<?xml version="1.0" encoding="UTF-8" standalone="no"?>
<!-- Created with Inkscape (http://www.inkscape.org/) -->

<svg
   xmlns:ns1="http://www.iki.fi/pav/software/textext/"
   xmlns:dc="http://purl.org/dc/elements/1.1/"
   xmlns:cc="http://creativecommons.org/ns#"
   xmlns:rdf="http://www.w3.org/1999/02/22-rdf-syntax-ns#"
   xmlns:svg="http://www.w3.org/2000/svg"
   xmlns="http://www.w3.org/2000/svg"
   xmlns:sodipodi="http://sodipodi.sourceforge.net/DTD/sodipodi-0.dtd"
   xmlns:inkscape="http://www.inkscape.org/namespaces/inkscape"
   width="27.733343mm"
   height="6.5457792mm"
   viewBox="0 0 27.733343 6.5457792"
   version="1.1"
   id="svg8"
   inkscape:version="0.92.4 (5da689c313, 2019-01-14)"
   sodipodi:docname="equation.svg"
   inkscape:export-filename="/home/david/Dropbox/UCR/02_Investigacion/01_ProyectosOficiales/MOO_PID_Book/Matlab/MOOTuningv2/equation2.png"
   inkscape:export-xdpi="601.4563"
   inkscape:export-ydpi="601.4563">
  <defs
     id="defs2" />
  <sodipodi:namedview
     id="base"
     pagecolor="#ffffff"
     bordercolor="#666666"
     borderopacity="1.0"
     inkscape:pageopacity="0.0"
     inkscape:pageshadow="2"
     inkscape:zoom="3.959798"
     inkscape:cx="87.978083"
     inkscape:cy="-16.769245"
     inkscape:document-units="mm"
     inkscape:current-layer="g1275"
     showgrid="false"
     inkscape:window-width="1366"
     inkscape:window-height="704"
     inkscape:window-x="0"
     inkscape:window-y="27"
     inkscape:window-maximized="1"
     fit-margin-top="0"
     fit-margin-left="0"
     fit-margin-right="0"
     fit-margin-bottom="0" />
  <metadata
     id="metadata5">
    <rdf:RDF>
      <cc:Work
         rdf:about="">
        <dc:format>image/svg+xml</dc:format>
        <dc:type
           rdf:resource="http://purl.org/dc/dcmitype/StillImage" />
        <dc:title></dc:title>
      </cc:Work>
    </rdf:RDF>
  </metadata>
  <g
     inkscape:label="Capa 1"
     inkscape:groupmode="layer"
     id="layer1"
     transform="translate(-91.133328,-145.22711)">
    <g
       id="g1275"
       ns1:jacobian_sqrt="0.267082"
       inkscapeversion="0.92.4"
       ns1:alignment="middle center"
       ns1:scale="0.757082209128"
       ns1:preamble="/home/david/.config/inkscape/extensions/textext/default_packages.tex"
       ns1:text="\\begin{equation*}\n    P(s) = \\frac{K e^{-L s}}{(T s +1)(a T s +1)}\n\\end{equation*}"
       ns1:pdfconverter="pdf2svg"
       ns1:texconverter="pdflatex"
       ns1:version="0.11.0"
       transform="matrix(0.267082,0,0,0.267082,23.533004,108.9754)">
      <g
         id="surface1">
        <g
           id="g1184"
           style="fill:#000000;fill-opacity:1">
          <path
             id="path1182"
             transform="translate(253.107,150.906)"
             d="M 1.453125,-6.34375 C 2.03125,-6.28125 2.15625,-6.1875 2.15625,-5.9375 2.15625,-5.796875 2.125,-5.578125 2,-5.140625 l -1.1875,4.25 C 0.640625,-0.296875 0.5625,-0.234375 0,-0.15625 V 0 H 2.4375 V -0.15625 C 1.8125,-0.25 1.765625,-0.28125 1.765625,-0.625 c 0,-0.109375 0.015625,-0.21875 0.125,-0.578125 L 2.40625,-3.125 c 0.25,0.0625 0.515625,0.078125 0.921875,0.078125 0.8125,0 1.484375,-0.15625 1.921875,-0.46875 0.484375,-0.375 0.78125,-0.921875 0.78125,-1.515625 0,-0.953125 -0.75,-1.484375 -2.109375,-1.484375 h -2.46875 z m 1.75,0.40625 c 0.0625,-0.203125 0.1875,-0.265625 0.46875,-0.265625 0.390625,0 0.765625,0.09375 0.96875,0.234375 C 4.890625,-5.796875 5,-5.5 5,-5.03125 c 0,0.65625 -0.21875,1.109375 -0.65625,1.375 -0.3125,0.171875 -0.703125,0.25 -1.328125,0.25 -0.171875,0 -0.25,-0.015625 -0.515625,-0.046875 z m 0,0"
             style="stroke:none;stroke-width:0"
             inkscape:connector-curvature="0" />
        </g>
        <g
           id="g1188"
           style="fill:#000000;fill-opacity:1">
          <path
             id="path1186"
             transform="translate(259.194,150.906)"
             d="m 3.296875,2.390625 c 0,-0.03125 0,-0.046875 -0.171875,-0.21875 C 1.890625,0.921875 1.5625,-0.96875 1.5625,-2.5 c 0,-1.734375 0.375,-3.46875 1.609375,-4.703125 0.125,-0.125 0.125,-0.140625 0.125,-0.171875 0,-0.078125 -0.03125,-0.109375 -0.09375,-0.109375 -0.109375,0 -1,0.6875 -1.59375,1.953125 -0.5,1.09375 -0.625,2.203125 -0.625,3.03125 0,0.78125 0.109375,1.984375 0.65625,3.125 C 2.25,1.84375 3.09375,2.5 3.203125,2.5 c 0.0625,0 0.09375,-0.03125 0.09375,-0.109375 z m 0,0"
             style="stroke:none;stroke-width:0"
             inkscape:connector-curvature="0" />
        </g>
        <g
           id="g1192"
           style="fill:#000000;fill-opacity:1">
          <path
             id="path1190"
             transform="translate(263.059,150.906)"
             d="M 0.359375,-1.453125 0.15625,0.125 H 0.3125 c 0.09375,-0.15625 0.140625,-0.203125 0.25,-0.203125 0.109375,0 0.28125,0.03125 0.484375,0.09375 0.21875,0.0625 0.390625,0.09375 0.546875,0.09375 0.84375,0 1.4375,-0.53125 1.4375,-1.296875 C 3.03125,-1.5625 2.828125,-2 2.359375,-2.578125 1.96875,-3.046875 1.8125,-3.359375 1.8125,-3.625 c 0,-0.328125 0.21875,-0.546875 0.5625,-0.546875 0.515625,0 0.8125,0.375 0.921875,1.15625 h 0.15625 L 3.65625,-4.40625 H 3.515625 c -0.09375,0.140625 -0.171875,0.171875 -0.3125,0.171875 -0.0625,0 -0.15625,-0.015625 -0.359375,-0.0625 -0.234375,-0.078125 -0.390625,-0.09375 -0.546875,-0.09375 -0.734375,0 -1.203125,0.421875 -1.203125,1.09375 0,0.3125 0.203125,0.75 0.625,1.28125 C 2.109375,-1.5 2.265625,-1.15625 2.265625,-0.875 c 0,0.453125 -0.296875,0.78125 -0.734375,0.78125 -0.546875,0 -0.859375,-0.421875 -1.015625,-1.359375 z m 0,0"
             style="stroke:none;stroke-width:0"
             inkscape:connector-curvature="0" />
        </g>
        <g
           id="g1196"
           style="fill:#000000;fill-opacity:1">
          <path
             id="path1194"
             transform="translate(266.935,150.906)"
             d="m 2.875,-2.5 c 0,-0.765625 -0.109375,-1.96875 -0.65625,-3.109375 -0.59375,-1.21875 -1.453125,-1.875 -1.546875,-1.875 -0.0625,0 -0.109375,0.046875 -0.109375,0.109375 0,0.03125 0,0.046875 0.1875,0.234375 0.984375,0.984375 1.546875,2.5625 1.546875,4.640625 0,1.71875 -0.359375,3.46875 -1.59375,4.71875 C 0.5625,2.34375 0.5625,2.359375 0.5625,2.390625 0.5625,2.453125 0.609375,2.5 0.671875,2.5 0.765625,2.5 1.671875,1.8125 2.25,0.546875 2.765625,-0.546875 2.875,-1.65625 2.875,-2.5 Z m 0,0"
             style="stroke:none;stroke-width:0"
             inkscape:connector-curvature="0" />
        </g>
        <g
           id="g1200"
           style="fill:#000000;fill-opacity:1">
          <path
             id="path1198"
             transform="translate(273.01119,150.906)"
             d="m 6.84375,-3.265625 c 0.15625,0 0.34375,0 0.34375,-0.1875 C 7.1875,-3.65625 7,-3.65625 6.859375,-3.65625 h -5.96875 c -0.140625,0 -0.328125,0 -0.328125,0.203125 0,0.1875 0.1875,0.1875 0.328125,0.1875 z m 0.015625,1.9375 c 0.140625,0 0.328125,0 0.328125,-0.203125 0,-0.1875 -0.1875,-0.1875 -0.34375,-0.1875 H 0.890625 c -0.140625,0 -0.328125,0 -0.328125,0.1875 0,0.203125 0.1875,0.203125 0.328125,0.203125 z m 0,0"
             style="stroke:none;stroke-width:0"
             inkscape:connector-curvature="0" />
        </g>
        <g
           id="g1204"
           style="fill:#000000;fill-opacity:1">
          <path
             id="path1202"
             transform="translate(308.314,144.162)"
             d="m 7.203125,-6.515625 h -2.21875 v 0.171875 c 0.125,0 0.234375,0.03125 0.265625,0.03125 0.25,0.015625 0.34375,0.078125 0.34375,0.1875 0,0.234375 -0.546875,0.765625 -1.4375,1.390625 l -1.515625,1.0625 0.53125,-1.9375 c 0.140625,-0.5 0.421875,-0.703125 1,-0.734375 v -0.171875 h -2.71875 v 0.171875 c 0.625,0.046875 0.765625,0.140625 0.765625,0.421875 0,0.140625 -0.03125,0.375 -0.109375,0.625 l -1.21875,4.40625 C 0.703125,-0.296875 0.65625,-0.25 0.0625,-0.15625 V 0 h 2.484375 v -0.15625 c -0.640625,-0.078125 -0.71875,-0.140625 -0.71875,-0.4375 0,-0.109375 0.015625,-0.1875 0.078125,-0.390625 l 0.0625,-0.21875 0.609375,-2.265625 1.203125,2.078125 c 0.25,0.40625 0.390625,0.75 0.390625,0.9375 0,0.15625 -0.140625,0.234375 -0.46875,0.265625 -0.046875,0 -0.15625,0.015625 -0.28125,0.03125 V 0 H 6.15625 V -0.15625 C 5.53125,-0.21875 5.46875,-0.25 5.1875,-0.71875 l -1.734375,-3.015625 3,-2.25 c 0.28125,-0.21875 0.5,-0.328125 0.75,-0.359375 z m 0,0"
             style="stroke:none;stroke-width:0"
             inkscape:connector-curvature="0" />
        </g>
        <g
           id="g1208"
           style="fill:#000000;fill-opacity:1">
          <path
             id="path1206"
             transform="translate(315.15831,144.162)"
             d="m 3.5625,-1.09375 c -0.71875,0.59375 -1.015625,0.75 -1.453125,0.75 -0.5625,0 -0.9375,-0.359375 -0.9375,-0.890625 0,-0.15625 0.03125,-0.296875 0.109375,-0.625 l 0.28125,-0.03125 c 1.484375,-0.21875 2.546875,-0.96875 2.546875,-1.828125 0,-0.421875 -0.296875,-0.671875 -0.796875,-0.671875 -1.4375,0 -3,1.640625 -3,3.140625 0,0.796875 0.53125,1.359375 1.3125,1.359375 0.703125,0 1.46875,-0.40625 2.0625,-1.078125 z M 1.515625,-2.515625 c 0.34375,-0.890625 1.078125,-1.65625 1.578125,-1.65625 0.21875,0 0.359375,0.171875 0.359375,0.390625 0,0.3125 -0.1875,0.671875 -0.5,0.96875 -0.375,0.34375 -0.75,0.53125 -1.609375,0.734375 z m 0,0"
             style="stroke:none;stroke-width:0"
             inkscape:connector-curvature="0" />
        </g>
        <g
           id="g1212"
           style="fill:#000000;fill-opacity:1">
          <path
             id="path1210"
             transform="translate(319.581,140.545)"
             d="m 4.859375,-1.703125 c 0.125,0 0.265625,0 0.265625,-0.140625 0,-0.140625 -0.140625,-0.140625 -0.265625,-0.140625 H 0.875 c -0.125,0 -0.265625,0 -0.265625,0.140625 0,0.140625 0.140625,0.140625 0.265625,0.140625 z m 0,0"
             style="stroke:none;stroke-width:0"
             inkscape:connector-curvature="0" />
        </g>
        <g
           id="g1216"
           style="fill:#000000;fill-opacity:1">
          <path
             id="path1214"
             transform="translate(325.309,140.545)"
             d="M 2.96875,-4.8125 H 0.953125 v 0.109375 C 1.421875,-4.65625 1.53125,-4.59375 1.53125,-4.375 c 0,0.09375 -0.03125,0.265625 -0.078125,0.453125 L 0.53125,-0.65625 C 0.40625,-0.234375 0.359375,-0.1875 -0.0625,-0.125 V 0 h 3.75 L 4.125,-1.3125 3.96875,-1.359375 c -0.25,0.53125 -0.453125,0.765625 -0.78125,0.921875 -0.25,0.125 -0.546875,0.171875 -1.203125,0.171875 -0.546875,0 -0.734375,-0.0625 -0.734375,-0.25 0,-0.046875 0.03125,-0.234375 0.0625,-0.375 L 2.234375,-4.15625 C 2.34375,-4.53125 2.53125,-4.671875 2.96875,-4.703125 Z m 0,0"
             style="stroke:none;stroke-width:0"
             inkscape:connector-curvature="0" />
        </g>
        <g
           id="g1220"
           style="fill:#000000;fill-opacity:1">
          <path
             id="path1218"
             transform="translate(329.43012,140.545)"
             d="M 0.265625,-1.078125 0.125,0.09375 H 0.234375 C 0.296875,-0.015625 0.34375,-0.0625 0.40625,-0.0625 0.5,-0.0625 0.625,-0.03125 0.78125,0 0.9375,0.0625 1.0625,0.078125 1.1875,0.078125 c 0.609375,0 1.046875,-0.390625 1.046875,-0.953125 0,-0.28125 -0.140625,-0.609375 -0.5,-1.03125 C 1.453125,-2.25 1.34375,-2.484375 1.34375,-2.6875 1.34375,-2.921875 1.5,-3.078125 1.75,-3.078125 c 0.390625,0 0.609375,0.265625 0.6875,0.84375 h 0.109375 l 0.15625,-1.03125 H 2.59375 C 2.53125,-3.15625 2.484375,-3.125 2.375,-3.125 2.328125,-3.125 2.25,-3.140625 2.109375,-3.171875 1.921875,-3.234375 1.8125,-3.25 1.703125,-3.25 c -0.546875,0 -0.90625,0.3125 -0.90625,0.8125 0,0.234375 0.15625,0.546875 0.46875,0.953125 0.296875,0.375 0.421875,0.625 0.421875,0.84375 0,0.328125 -0.234375,0.5625 -0.546875,0.5625 -0.40625,0 -0.640625,-0.296875 -0.75,-1 z m 0,0"
             style="stroke:none;stroke-width:0"
             inkscape:connector-curvature="0" />
        </g>
        <path
           id="path1222"
           transform="matrix(1,0,0,-1,284.164,148.416)"
           d="M 6.25e-5,0.0019375 H 72.781312"
           style="fill:none;stroke:#000000;stroke-width:0.398;stroke-linecap:butt;stroke-linejoin:miter;stroke-miterlimit:10;stroke-opacity:1"
           inkscape:connector-curvature="0" />
        <g
           id="g1226"
           style="fill:#000000;fill-opacity:1">
          <path
             id="path1224"
             transform="translate(284.164,157.741)"
             d="m 3.296875,2.390625 c 0,-0.03125 0,-0.046875 -0.171875,-0.21875 C 1.890625,0.921875 1.5625,-0.96875 1.5625,-2.5 c 0,-1.734375 0.375,-3.46875 1.609375,-4.703125 0.125,-0.125 0.125,-0.140625 0.125,-0.171875 0,-0.078125 -0.03125,-0.109375 -0.09375,-0.109375 -0.109375,0 -1,0.6875 -1.59375,1.953125 -0.5,1.09375 -0.625,2.203125 -0.625,3.03125 0,0.78125 0.109375,1.984375 0.65625,3.125 C 2.25,1.84375 3.09375,2.5 3.203125,2.5 c 0.0625,0 0.09375,-0.03125 0.09375,-0.109375 z m 0,0"
             style="stroke:none;stroke-width:0"
             inkscape:connector-curvature="0" />
        </g>
        <g
           id="g1230"
           style="fill:#000000;fill-opacity:1">
          <path
             id="path1228"
             transform="translate(288.03,157.741)"
             d="M 6.3125,-6.515625 H 1 L 0.59375,-4.96875 0.765625,-4.9375 c 0.53125,-1.078125 0.84375,-1.25 2.375,-1.21875 l -1.4375,5.265625 C 1.546875,-0.375 1.3125,-0.203125 0.640625,-0.15625 V 0 H 3.53125 V -0.15625 C 3.375,-0.171875 3.21875,-0.1875 3.15625,-0.1875 2.765625,-0.21875 2.640625,-0.3125 2.640625,-0.609375 c 0,-0.125 0.03125,-0.25 0.125,-0.59375 l 1.375,-4.953125 H 4.6875 c 0.71875,0 1.046875,0.25 1.046875,0.796875 0,0.140625 -0.015625,0.28125 -0.03125,0.453125 L 5.875,-4.890625 Z m 0,0"
             style="stroke:none;stroke-width:0"
             inkscape:connector-curvature="0" />
        </g>
        <g
           id="g1234"
           style="fill:#000000;fill-opacity:1">
          <path
             id="path1232"
             transform="translate(294.83446,157.741)"
             d="M 0.359375,-1.453125 0.15625,0.125 H 0.3125 c 0.09375,-0.15625 0.140625,-0.203125 0.25,-0.203125 0.109375,0 0.28125,0.03125 0.484375,0.09375 0.21875,0.0625 0.390625,0.09375 0.546875,0.09375 0.84375,0 1.4375,-0.53125 1.4375,-1.296875 C 3.03125,-1.5625 2.828125,-2 2.359375,-2.578125 1.96875,-3.046875 1.8125,-3.359375 1.8125,-3.625 c 0,-0.328125 0.21875,-0.546875 0.5625,-0.546875 0.515625,0 0.8125,0.375 0.921875,1.15625 h 0.15625 L 3.65625,-4.40625 H 3.515625 c -0.09375,0.140625 -0.171875,0.171875 -0.3125,0.171875 -0.0625,0 -0.15625,-0.015625 -0.359375,-0.0625 -0.234375,-0.078125 -0.390625,-0.09375 -0.546875,-0.09375 -0.734375,0 -1.203125,0.421875 -1.203125,1.09375 0,0.3125 0.203125,0.75 0.625,1.28125 C 2.109375,-1.5 2.265625,-1.15625 2.265625,-0.875 c 0,0.453125 -0.296875,0.78125 -0.734375,0.78125 -0.546875,0 -0.859375,-0.421875 -1.015625,-1.359375 z m 0,0"
             style="stroke:none;stroke-width:0"
             inkscape:connector-curvature="0" />
        </g>
        <g
           id="g1238"
           style="fill:#000000;fill-opacity:1">
          <path
             id="path1236"
             transform="translate(300.093,157.741)"
             d="m 4.078125,-2.296875 h 2.78125 C 7,-2.296875 7.1875,-2.296875 7.1875,-2.5 7.1875,-2.6875 7,-2.6875 6.859375,-2.6875 h -2.78125 v -2.796875 c 0,-0.140625 0,-0.328125 -0.203125,-0.328125 -0.203125,0 -0.203125,0.1875 -0.203125,0.328125 V -2.6875 h -2.78125 c -0.140625,0 -0.328125,0 -0.328125,0.1875 0,0.203125 0.1875,0.203125 0.328125,0.203125 h 2.78125 V 0.5 c 0,0.140625 0,0.328125 0.203125,0.328125 0.203125,0 0.203125,-0.1875 0.203125,-0.328125 z m 0,0"
             style="stroke:none;stroke-width:0"
             inkscape:connector-curvature="0" />
        </g>
        <g
           id="g1242"
           style="fill:#000000;fill-opacity:1">
          <path
             id="path1240"
             transform="translate(309.217,157.741)"
             d="m 2.90625,-6.734375 -1.796875,0.90625 V -5.6875 C 1.21875,-5.734375 1.328125,-5.78125 1.375,-5.796875 1.5625,-5.875 1.71875,-5.90625 1.828125,-5.90625 2.03125,-5.90625 2.125,-5.765625 2.125,-5.4375 v 4.515625 c 0,0.328125 -0.078125,0.546875 -0.234375,0.640625 -0.15625,0.09375 -0.296875,0.125 -0.71875,0.125 V 0 h 2.75 v -0.15625 c -0.78125,0 -0.9375,-0.109375 -0.9375,-0.578125 V -6.71875 Z m 0,0"
             style="stroke:none;stroke-width:0"
             inkscape:connector-curvature="0" />
        </g>
        <g
           id="g1246"
           style="fill:#000000;fill-opacity:1">
          <path
             id="path1244"
             transform="translate(314.199,157.741)"
             d="m 2.875,-2.5 c 0,-0.765625 -0.109375,-1.96875 -0.65625,-3.109375 -0.59375,-1.21875 -1.453125,-1.875 -1.546875,-1.875 -0.0625,0 -0.109375,0.046875 -0.109375,0.109375 0,0.03125 0,0.046875 0.1875,0.234375 0.984375,0.984375 1.546875,2.5625 1.546875,4.640625 0,1.71875 -0.359375,3.46875 -1.59375,4.71875 C 0.5625,2.34375 0.5625,2.359375 0.5625,2.390625 0.5625,2.453125 0.609375,2.5 0.671875,2.5 0.765625,2.5 1.671875,1.8125 2.25,0.546875 2.765625,-0.546875 2.875,-1.65625 2.875,-2.5 Z m 0,0"
             style="stroke:none;stroke-width:0"
             inkscape:connector-curvature="0" />
        </g>
        <g
           id="g1250"
           style="fill:#000000;fill-opacity:1">
          <path
             id="path1248"
             transform="translate(318.06349,157.741)"
             d="m 3.296875,2.390625 c 0,-0.03125 0,-0.046875 -0.171875,-0.21875 C 1.890625,0.921875 1.5625,-0.96875 1.5625,-2.5 c 0,-1.734375 0.375,-3.46875 1.609375,-4.703125 0.125,-0.125 0.125,-0.140625 0.125,-0.171875 0,-0.078125 -0.03125,-0.109375 -0.09375,-0.109375 -0.109375,0 -1,0.6875 -1.59375,1.953125 -0.5,1.09375 -0.625,2.203125 -0.625,3.03125 0,0.78125 0.109375,1.984375 0.65625,3.125 C 2.25,1.84375 3.09375,2.5 3.203125,2.5 c 0.0625,0 0.09375,-0.03125 0.09375,-0.109375 z m 0,0"
             style="stroke:none;stroke-width:0"
             inkscape:connector-curvature="0" />
        </g>
        <g
           id="g1256"
           style="fill:#000000;fill-opacity:1">
          <path
             id="path1252"
             transform="translate(321.93,157.741)"
             d="m 4.625,-1.09375 c -0.15625,0.140625 -0.203125,0.203125 -0.28125,0.28125 -0.296875,0.296875 -0.421875,0.40625 -0.515625,0.40625 -0.078125,0 -0.140625,-0.0625 -0.140625,-0.125 0,-0.203125 0.421875,-1.90625 0.890625,-3.625 0.03125,-0.09375 0.03125,-0.125 0.0625,-0.203125 L 4.5625,-4.390625 3.953125,-4.328125 3.921875,-4.296875 3.8125,-3.8125 c -0.078125,-0.375 -0.359375,-0.578125 -0.796875,-0.578125 -1.3125,0 -2.84375,1.8125 -2.84375,3.390625 0,0.703125 0.375,1.109375 1.015625,1.109375 0.703125,0 1.125,-0.328125 2,-1.5625 -0.203125,0.78125 -0.234375,0.90625 -0.234375,1.140625 0,0.296875 0.125,0.40625 0.40625,0.40625 C 3.765625,0.09375 4,-0.09375 4.75,-1 Z M 3.078125,-4.171875 c 0.34375,0.015625 0.5625,0.25 0.5625,0.609375 0,0.828125 -0.5,2 -1.1875,2.75 C 2.21875,-0.546875 1.875,-0.375 1.578125,-0.375 1.234375,-0.375 1,-0.671875 1,-1.125 1,-1.671875 1.390625,-2.6875 1.8125,-3.3125 2.21875,-3.890625 2.6875,-4.203125 3.078125,-4.171875 Z m 0,0"
             style="stroke:none;stroke-width:0"
             inkscape:connector-curvature="0" />
          <path
             id="path1254"
             transform="translate(326.9113,157.741)"
             d="M 6.3125,-6.515625 H 1 L 0.59375,-4.96875 0.765625,-4.9375 c 0.53125,-1.078125 0.84375,-1.25 2.375,-1.21875 l -1.4375,5.265625 C 1.546875,-0.375 1.3125,-0.203125 0.640625,-0.15625 V 0 H 3.53125 V -0.15625 C 3.375,-0.171875 3.21875,-0.1875 3.15625,-0.1875 2.765625,-0.21875 2.640625,-0.3125 2.640625,-0.609375 c 0,-0.125 0.03125,-0.25 0.125,-0.59375 l 1.375,-4.953125 H 4.6875 c 0.71875,0 1.046875,0.25 1.046875,0.796875 0,0.140625 -0.015625,0.28125 -0.03125,0.453125 L 5.875,-4.890625 Z m 0,0"
             style="stroke:none;stroke-width:0"
             inkscape:connector-curvature="0" />
        </g>
        <g
           id="g1260"
           style="fill:#000000;fill-opacity:1">
          <path
             id="path1258"
             transform="translate(333.71576,157.741)"
             d="M 0.359375,-1.453125 0.15625,0.125 H 0.3125 c 0.09375,-0.15625 0.140625,-0.203125 0.25,-0.203125 0.109375,0 0.28125,0.03125 0.484375,0.09375 0.21875,0.0625 0.390625,0.09375 0.546875,0.09375 0.84375,0 1.4375,-0.53125 1.4375,-1.296875 C 3.03125,-1.5625 2.828125,-2 2.359375,-2.578125 1.96875,-3.046875 1.8125,-3.359375 1.8125,-3.625 c 0,-0.328125 0.21875,-0.546875 0.5625,-0.546875 0.515625,0 0.8125,0.375 0.921875,1.15625 h 0.15625 L 3.65625,-4.40625 H 3.515625 c -0.09375,0.140625 -0.171875,0.171875 -0.3125,0.171875 -0.0625,0 -0.15625,-0.015625 -0.359375,-0.0625 -0.234375,-0.078125 -0.390625,-0.09375 -0.546875,-0.09375 -0.734375,0 -1.203125,0.421875 -1.203125,1.09375 0,0.3125 0.203125,0.75 0.625,1.28125 C 2.109375,-1.5 2.265625,-1.15625 2.265625,-0.875 c 0,0.453125 -0.296875,0.78125 -0.734375,0.78125 -0.546875,0 -0.859375,-0.421875 -1.015625,-1.359375 z m 0,0"
             style="stroke:none;stroke-width:0"
             inkscape:connector-curvature="0" />
        </g>
        <g
           id="g1264"
           style="fill:#000000;fill-opacity:1">
          <path
             id="path1262"
             transform="translate(338.974,157.741)"
             d="m 4.078125,-2.296875 h 2.78125 C 7,-2.296875 7.1875,-2.296875 7.1875,-2.5 7.1875,-2.6875 7,-2.6875 6.859375,-2.6875 h -2.78125 v -2.796875 c 0,-0.140625 0,-0.328125 -0.203125,-0.328125 -0.203125,0 -0.203125,0.1875 -0.203125,0.328125 V -2.6875 h -2.78125 c -0.140625,0 -0.328125,0 -0.328125,0.1875 0,0.203125 0.1875,0.203125 0.328125,0.203125 h 2.78125 V 0.5 c 0,0.140625 0,0.328125 0.203125,0.328125 0.203125,0 0.203125,-0.1875 0.203125,-0.328125 z m 0,0"
             style="stroke:none;stroke-width:0"
             inkscape:connector-curvature="0" />
        </g>
        <g
           id="g1268"
           style="fill:#000000;fill-opacity:1">
          <path
             id="path1266"
             transform="translate(348.099,157.741)"
             d="m 2.90625,-6.734375 -1.796875,0.90625 V -5.6875 C 1.21875,-5.734375 1.328125,-5.78125 1.375,-5.796875 1.5625,-5.875 1.71875,-5.90625 1.828125,-5.90625 2.03125,-5.90625 2.125,-5.765625 2.125,-5.4375 v 4.515625 c 0,0.328125 -0.078125,0.546875 -0.234375,0.640625 -0.15625,0.09375 -0.296875,0.125 -0.71875,0.125 V 0 h 2.75 v -0.15625 c -0.78125,0 -0.9375,-0.109375 -0.9375,-0.578125 V -6.71875 Z m 0,0"
             style="stroke:none;stroke-width:0"
             inkscape:connector-curvature="0" />
        </g>
        <g
           id="g1272"
           style="fill:#000000;fill-opacity:1">
          <path
             id="path1270"
             transform="translate(353.08,157.741)"
             d="m 2.875,-2.5 c 0,-0.765625 -0.109375,-1.96875 -0.65625,-3.109375 -0.59375,-1.21875 -1.453125,-1.875 -1.546875,-1.875 -0.0625,0 -0.109375,0.046875 -0.109375,0.109375 0,0.03125 0,0.046875 0.1875,0.234375 0.984375,0.984375 1.546875,2.5625 1.546875,4.640625 0,1.71875 -0.359375,3.46875 -1.59375,4.71875 C 0.5625,2.34375 0.5625,2.359375 0.5625,2.390625 0.5625,2.453125 0.609375,2.5 0.671875,2.5 0.765625,2.5 1.671875,1.8125 2.25,0.546875 2.765625,-0.546875 2.875,-1.65625 2.875,-2.5 Z m 0,0"
             style="stroke:none;stroke-width:0"
             inkscape:connector-curvature="0" />
        </g>
      </g>
    </g>
  </g>
</svg>
