<?xml version="1.0" encoding="UTF-8" standalone="no"?>
<!-- Created with Inkscape (http://www.inkscape.org/) -->

<svg
   xmlns:dc="http://purl.org/dc/elements/1.1/"
   xmlns:cc="http://creativecommons.org/ns#"
   xmlns:rdf="http://www.w3.org/1999/02/22-rdf-syntax-ns#"
   xmlns:svg="http://www.w3.org/2000/svg"
   xmlns="http://www.w3.org/2000/svg"
   xmlns:sodipodi="http://sodipodi.sourceforge.net/DTD/sodipodi-0.dtd"
   xmlns:inkscape="http://www.inkscape.org/namespaces/inkscape"
   id="svg4000"
   version="1.1"
   inkscape:version="0.91 r13725"
   xml:space="preserve"
   width="923.4303"
   height="452.31812"
   viewBox="0 0 923.4303 452.31811"
   sodipodi:docname="cambiodi.svg"><metadata
     id="metadata4006"><rdf:RDF><cc:Work
         rdf:about=""><dc:format>image/svg+xml</dc:format><dc:type
           rdf:resource="http://purl.org/dc/dcmitype/StillImage" /><dc:title></dc:title></cc:Work></rdf:RDF></metadata><defs
     id="defs4004"><clipPath
       clipPathUnits="userSpaceOnUse"
       id="clipPath4016"><path
         d="m 0,7.5 10240,0 0,4702.5 L 0,4710 0,7.5 Z"
         id="path4018"
         inkscape:connector-curvature="0" /></clipPath><clipPath
       clipPathUnits="userSpaceOnUse"
       id="clipPath4250"><path
         d="m 1909.17,4544.17 6760,0 0,-3275.84 -6760,0 0,3275.84 z"
         id="path4252"
         inkscape:connector-curvature="0" /></clipPath><clipPath
       clipPathUnits="userSpaceOnUse"
       id="clipPath4298"><path
         d="m 0,7 0,4703 10240,0 L 10240,7 0,7 Z"
         id="path4300"
         inkscape:connector-curvature="0" /></clipPath><clipPath
       clipPathUnits="userSpaceOnUse"
       id="clipPath4338"><path
         d="m 6933.33,4098.33 1295.01,0 0,-735.83 -1295.01,0 0,735.83 z"
         id="path4340"
         inkscape:connector-curvature="0" /></clipPath><clipPath
       clipPathUnits="userSpaceOnUse"
       id="clipPath4348"><path
         d="m 0,7 0,4703 10240,0 L 10240,7 0,7 Z"
         id="path4350"
         inkscape:connector-curvature="0" /></clipPath><clipPath
       clipPathUnits="userSpaceOnUse"
       id="clipPath4362"><path
         d="m 6933.33,4098.33 1295.01,0 0,-735.83 -1295.01,0 0,735.83 z"
         id="path4364"
         inkscape:connector-curvature="0" /></clipPath><clipPath
       clipPathUnits="userSpaceOnUse"
       id="clipPath4372"><path
         d="m 0,7 0,4703 10240,0 L 10240,7 0,7 Z"
         id="path4374"
         inkscape:connector-curvature="0" /></clipPath><clipPath
       clipPathUnits="userSpaceOnUse"
       id="clipPath4386"><path
         d="m 6933.33,4098.33 1295.01,0 0,-735.83 -1295.01,0 0,735.83 z"
         id="path4388"
         inkscape:connector-curvature="0" /></clipPath><clipPath
       clipPathUnits="userSpaceOnUse"
       id="clipPath4396"><path
         d="m 0,7 0,4703 10240,0 L 10240,7 0,7 Z"
         id="path4398"
         inkscape:connector-curvature="0" /></clipPath><clipPath
       clipPathUnits="userSpaceOnUse"
       id="clipPath4410"><path
         d="m 6933.33,4098.33 1295.01,0 0,-735.83 -1295.01,0 0,735.83 z"
         id="path4412"
         inkscape:connector-curvature="0" /></clipPath><clipPath
       clipPathUnits="userSpaceOnUse"
       id="clipPath4420"><path
         d="m 0,7 0,4703 10240,0 L 10240,7 0,7 Z"
         id="path4422"
         inkscape:connector-curvature="0" /></clipPath><clipPath
       clipPathUnits="userSpaceOnUse"
       id="clipPath4434"><path
         d="m 6933.33,4098.33 1295.01,0 0,-735.83 -1295.01,0 0,735.83 z"
         id="path4436"
         inkscape:connector-curvature="0" /></clipPath><clipPath
       clipPathUnits="userSpaceOnUse"
       id="clipPath5612"><path
         d="m 0,7 0,3323 10240,0 L 10240,7 0,7 Z"
         id="path5614"
         inkscape:connector-curvature="0" /></clipPath></defs><sodipodi:namedview
     pagecolor="#ffffff"
     bordercolor="#666666"
     borderopacity="1"
     objecttolerance="10"
     gridtolerance="10"
     guidetolerance="10"
     inkscape:pageopacity="0"
     inkscape:pageshadow="2"
     inkscape:window-width="1366"
     inkscape:window-height="705"
     id="namedview4002"
     showgrid="false"
     inkscape:zoom="3.0847533"
     inkscape:cx="409.23766"
     inkscape:cy="62.719022"
     inkscape:window-x="-8"
     inkscape:window-y="-8"
     inkscape:window-maximized="1"
     inkscape:current-layer="g4236"
     fit-margin-top="0"
     fit-margin-left="0"
     fit-margin-right="0"
     fit-margin-bottom="0" /><g
     id="g4008"
     inkscape:groupmode="layer"
     inkscape:label="ink_ext_XXXXXX"
     transform="matrix(1.25,0,0,-1.25,-169.94844,568.33375)"><g
       id="g4010"
       transform="scale(0.1,0.1)"><path
         d="m 1909.17,1269.17 0,3275 6759.16,0 0,-3275 -6759.16,0"
         style="fill:none;stroke:#ffffff;stroke-width:5;stroke-linecap:butt;stroke-linejoin:round;stroke-miterlimit:10;stroke-dasharray:none;stroke-opacity:1"
         id="path4024"
         inkscape:connector-curvature="0" /><path
         d="m 1909.17,4544.17 6759.17,0"
         style="fill:none;stroke:#000000;stroke-width:5;stroke-linecap:butt;stroke-linejoin:round;stroke-miterlimit:10;stroke-dasharray:none;stroke-opacity:1"
         id="path4026"
         inkscape:connector-curvature="0" /><path
         d="m 1909.17,1269.17 6759.17,0"
         style="fill:none;stroke:#000000;stroke-width:5;stroke-linecap:butt;stroke-linejoin:round;stroke-miterlimit:10;stroke-dasharray:none;stroke-opacity:1"
         id="path4028"
         inkscape:connector-curvature="0" /><path
         d="m 8668.34,1269.17 0,3275"
         style="fill:none;stroke:#000000;stroke-width:5;stroke-linecap:butt;stroke-linejoin:round;stroke-miterlimit:10;stroke-dasharray:none;stroke-opacity:1"
         id="path4030"
         inkscape:connector-curvature="0" /><path
         d="m 1909.17,1269.17 0,3275"
         style="fill:none;stroke:#000000;stroke-width:5;stroke-linecap:butt;stroke-linejoin:round;stroke-miterlimit:10;stroke-dasharray:none;stroke-opacity:1"
         id="path4032"
         inkscape:connector-curvature="0" /><path
         d="m 1909.17,1269.17 0,3275"
         style="fill:none;stroke:#000000;stroke-width:5;stroke-linecap:butt;stroke-linejoin:round;stroke-miterlimit:10;stroke-dasharray:none;stroke-opacity:1"
         id="path4036"
         inkscape:connector-curvature="0" /><path
         d="m 1909.17,1269.17 0,68.33"
         style="fill:none;stroke:#000000;stroke-width:5;stroke-linecap:butt;stroke-linejoin:round;stroke-miterlimit:10;stroke-dasharray:none;stroke-opacity:1"
         id="path4038"
         inkscape:connector-curvature="0" /><path
         d="m 1909.17,4544.17 0,-67.5"
         style="fill:none;stroke:#000000;stroke-width:5;stroke-linecap:butt;stroke-linejoin:round;stroke-miterlimit:10;stroke-dasharray:none;stroke-opacity:1"
         id="path4040"
         inkscape:connector-curvature="0" /><g
         id="g4042"
         transform="matrix(10,0,0,10,0,-48)"><text
           transform="matrix(1,0,0,-1,188.167,114.833)"
           style="font-variant:normal;font-weight:normal;font-size:10px;font-family:Helvetica;-inkscape-font-specification:Helvetica;writing-mode:lr-tb;fill:#000000;fill-opacity:1;fill-rule:nonzero;stroke:none"
           id="text4044"><tspan
             x="0"
             y="0"
             id="tspan4046">$0$</tspan></text>
</g><path
         d="m 2585,1269.17 0,68.33"
         style="fill:none;stroke:#000000;stroke-width:5;stroke-linecap:butt;stroke-linejoin:round;stroke-miterlimit:10;stroke-dasharray:none;stroke-opacity:1"
         id="path4048"
         inkscape:connector-curvature="0" /><path
         d="m 2585,4544.17 0,-67.5"
         style="fill:none;stroke:#000000;stroke-width:5;stroke-linecap:butt;stroke-linejoin:round;stroke-miterlimit:10;stroke-dasharray:none;stroke-opacity:1"
         id="path4050"
         inkscape:connector-curvature="0" /><g
         id="g4052"
         transform="matrix(10,0,0,10,0,-64)"><text
           transform="matrix(1,0,0,-1,253,114.833)"
           style="font-variant:normal;font-weight:normal;font-size:10px;font-family:Helvetica;-inkscape-font-specification:Helvetica;writing-mode:lr-tb;fill:#000000;fill-opacity:1;fill-rule:nonzero;stroke:none"
           id="text4054"><tspan
             x="0 5.5599999"
             y="0"
             sodipodi:role="line"
             id="tspan4056">10</tspan></text>
</g><path
         d="m 3260.83,1269.17 0,68.33"
         style="fill:none;stroke:#000000;stroke-width:5;stroke-linecap:butt;stroke-linejoin:round;stroke-miterlimit:10;stroke-dasharray:none;stroke-opacity:1"
         id="path4058"
         inkscape:connector-curvature="0" /><path
         d="m 3260.83,4544.17 0,-67.5"
         style="fill:none;stroke:#000000;stroke-width:5;stroke-linecap:butt;stroke-linejoin:round;stroke-miterlimit:10;stroke-dasharray:none;stroke-opacity:1"
         id="path4060"
         inkscape:connector-curvature="0" /><g
         id="g4062"
         transform="matrix(10,0,0,10,0,-64)"><text
           transform="matrix(1,0,0,-1,320.583,114.833)"
           style="font-variant:normal;font-weight:normal;font-size:10px;font-family:Helvetica;-inkscape-font-specification:Helvetica;writing-mode:lr-tb;fill:#000000;fill-opacity:1;fill-rule:nonzero;stroke:none"
           id="text4064"><tspan
             x="0 5.5599999"
             y="0"
             sodipodi:role="line"
             id="tspan4066">20</tspan></text>
</g><path
         d="m 3936.67,1269.17 0,68.33"
         style="fill:none;stroke:#000000;stroke-width:5;stroke-linecap:butt;stroke-linejoin:round;stroke-miterlimit:10;stroke-dasharray:none;stroke-opacity:1"
         id="path4068"
         inkscape:connector-curvature="0" /><path
         d="m 3936.67,4544.17 0,-67.5"
         style="fill:none;stroke:#000000;stroke-width:5;stroke-linecap:butt;stroke-linejoin:round;stroke-miterlimit:10;stroke-dasharray:none;stroke-opacity:1"
         id="path4070"
         inkscape:connector-curvature="0" /><g
         id="g4072"
         transform="matrix(10,0,0,10,0,-48)"><text
           transform="matrix(1,0,0,-1,388.167,114.833)"
           style="font-variant:normal;font-weight:normal;font-size:10px;font-family:Helvetica;-inkscape-font-specification:Helvetica;writing-mode:lr-tb;fill:#000000;fill-opacity:1;fill-rule:nonzero;stroke:none"
           id="text4074"><tspan
             x="0 5.5599999"
             y="0"
             sodipodi:role="line"
             id="tspan4076">30</tspan></text>
</g><path
         d="m 4612.5,1269.17 0,68.33"
         style="fill:none;stroke:#000000;stroke-width:5;stroke-linecap:butt;stroke-linejoin:round;stroke-miterlimit:10;stroke-dasharray:none;stroke-opacity:1"
         id="path4078"
         inkscape:connector-curvature="0" /><path
         d="m 4612.5,4544.17 0,-67.5"
         style="fill:none;stroke:#000000;stroke-width:5;stroke-linecap:butt;stroke-linejoin:round;stroke-miterlimit:10;stroke-dasharray:none;stroke-opacity:1"
         id="path4080"
         inkscape:connector-curvature="0" /><g
         id="g4082"
         transform="matrix(10,0,0,10,0,-48)"><text
           transform="matrix(1,0,0,-1,455.75,114.833)"
           style="font-variant:normal;font-weight:normal;font-size:10px;font-family:Helvetica;-inkscape-font-specification:Helvetica;writing-mode:lr-tb;fill:#000000;fill-opacity:1;fill-rule:nonzero;stroke:none"
           id="text4084"><tspan
             x="0 5.5599999"
             y="0"
             sodipodi:role="line"
             id="tspan4086">40</tspan></text>
</g><path
         d="m 5288.33,1269.17 0,68.33"
         style="fill:none;stroke:#000000;stroke-width:5;stroke-linecap:butt;stroke-linejoin:round;stroke-miterlimit:10;stroke-dasharray:none;stroke-opacity:1"
         id="path4088"
         inkscape:connector-curvature="0" /><path
         d="m 5288.33,4544.17 0,-67.5"
         style="fill:none;stroke:#000000;stroke-width:5;stroke-linecap:butt;stroke-linejoin:round;stroke-miterlimit:10;stroke-dasharray:none;stroke-opacity:1"
         id="path4090"
         inkscape:connector-curvature="0" /><g
         id="g4092"
         transform="matrix(10,0,0,10,0,-48)"><text
           transform="matrix(1,0,0,-1,523.333,114.833)"
           style="font-variant:normal;font-weight:normal;font-size:10px;font-family:Helvetica;-inkscape-font-specification:Helvetica;writing-mode:lr-tb;fill:#000000;fill-opacity:1;fill-rule:nonzero;stroke:none"
           id="text4094"><tspan
             x="0 5.5599999"
             y="0"
             sodipodi:role="line"
             id="tspan4096">50</tspan></text>
</g><path
         d="m 5964.17,1269.17 0,68.33"
         style="fill:none;stroke:#000000;stroke-width:5;stroke-linecap:butt;stroke-linejoin:round;stroke-miterlimit:10;stroke-dasharray:none;stroke-opacity:1"
         id="path4098"
         inkscape:connector-curvature="0" /><path
         d="m 5964.17,4544.17 0,-67.5"
         style="fill:none;stroke:#000000;stroke-width:5;stroke-linecap:butt;stroke-linejoin:round;stroke-miterlimit:10;stroke-dasharray:none;stroke-opacity:1"
         id="path4100"
         inkscape:connector-curvature="0" /><g
         id="g4102"
         transform="matrix(10,0,0,10,0,-48)"><text
           transform="matrix(1,0,0,-1,590.917,114.833)"
           style="font-variant:normal;font-weight:normal;font-size:10px;font-family:Helvetica;-inkscape-font-specification:Helvetica;writing-mode:lr-tb;fill:#000000;fill-opacity:1;fill-rule:nonzero;stroke:none"
           id="text4104"><tspan
             x="0 5.5599999"
             y="0"
             sodipodi:role="line"
             id="tspan4106">60</tspan></text>
</g><path
         d="m 6640,1269.17 0,68.33"
         style="fill:none;stroke:#000000;stroke-width:5;stroke-linecap:butt;stroke-linejoin:round;stroke-miterlimit:10;stroke-dasharray:none;stroke-opacity:1"
         id="path4108"
         inkscape:connector-curvature="0" /><path
         d="m 6640,4544.17 0,-67.5"
         style="fill:none;stroke:#000000;stroke-width:5;stroke-linecap:butt;stroke-linejoin:round;stroke-miterlimit:10;stroke-dasharray:none;stroke-opacity:1"
         id="path4110"
         inkscape:connector-curvature="0" /><g
         id="g4112"
         transform="matrix(10,0,0,10,0,-48)"><text
           transform="matrix(1,0,0,-1,658.5,114.833)"
           style="font-variant:normal;font-weight:normal;font-size:10px;font-family:Helvetica;-inkscape-font-specification:Helvetica;writing-mode:lr-tb;fill:#000000;fill-opacity:1;fill-rule:nonzero;stroke:none"
           id="text4114"><tspan
             x="0 5.5599999"
             y="0"
             sodipodi:role="line"
             id="tspan4116">70</tspan></text>
</g><path
         d="m 7315.83,1269.17 0,68.33"
         style="fill:none;stroke:#000000;stroke-width:5;stroke-linecap:butt;stroke-linejoin:round;stroke-miterlimit:10;stroke-dasharray:none;stroke-opacity:1"
         id="path4118"
         inkscape:connector-curvature="0" /><path
         d="m 7315.83,4544.17 0,-67.5"
         style="fill:none;stroke:#000000;stroke-width:5;stroke-linecap:butt;stroke-linejoin:round;stroke-miterlimit:10;stroke-dasharray:none;stroke-opacity:1"
         id="path4120"
         inkscape:connector-curvature="0" /><g
         id="g4122"
         transform="matrix(10,0,0,10,0,-32)"><text
           transform="matrix(1,0,0,-1,726.083,114.833)"
           style="font-variant:normal;font-weight:normal;font-size:10px;font-family:Helvetica;-inkscape-font-specification:Helvetica;writing-mode:lr-tb;fill:#000000;fill-opacity:1;fill-rule:nonzero;stroke:none"
           id="text4124"><tspan
             x="0 5.5599999"
             y="0"
             sodipodi:role="line"
             id="tspan4126">80</tspan></text>
</g><path
         d="m 7991.67,1269.17 0,68.33"
         style="fill:none;stroke:#000000;stroke-width:5;stroke-linecap:butt;stroke-linejoin:round;stroke-miterlimit:10;stroke-dasharray:none;stroke-opacity:1"
         id="path4128"
         inkscape:connector-curvature="0" /><path
         d="m 7991.67,4544.17 0,-67.5"
         style="fill:none;stroke:#000000;stroke-width:5;stroke-linecap:butt;stroke-linejoin:round;stroke-miterlimit:10;stroke-dasharray:none;stroke-opacity:1"
         id="path4130"
         inkscape:connector-curvature="0" /><g
         id="g4132"
         transform="matrix(10,0,0,10,0,-32)"><text
           transform="matrix(1,0,0,-1,793.667,114.833)"
           style="font-variant:normal;font-weight:normal;font-size:10px;font-family:Helvetica;-inkscape-font-specification:Helvetica;writing-mode:lr-tb;fill:#000000;fill-opacity:1;fill-rule:nonzero;stroke:none"
           id="text4134"><tspan
             x="0 5.5599999"
             y="0"
             sodipodi:role="line"
             id="tspan4136">90</tspan></text>
</g><path
         d="m 8668.34,1269.17 0,68.33"
         style="fill:none;stroke:#000000;stroke-width:5;stroke-linecap:butt;stroke-linejoin:round;stroke-miterlimit:10;stroke-dasharray:none;stroke-opacity:1"
         id="path4138"
         inkscape:connector-curvature="0" /><path
         d="m 8668.34,4544.17 0,-67.5"
         style="fill:none;stroke:#000000;stroke-width:5;stroke-linecap:butt;stroke-linejoin:round;stroke-miterlimit:10;stroke-dasharray:none;stroke-opacity:1"
         id="path4140"
         inkscape:connector-curvature="0" /><g
         id="g4142"
         transform="matrix(10,0,0,10,0,-32)"><text
           transform="matrix(1,0,0,-1,858.5,114.833)"
           style="font-variant:normal;font-weight:normal;font-size:10px;font-family:Helvetica;-inkscape-font-specification:Helvetica;writing-mode:lr-tb;fill:#000000;fill-opacity:1;fill-rule:nonzero;stroke:none"
           id="text4144"><tspan
             x="0 5.5599999 11.12"
             y="0"
             sodipodi:role="line"
             id="tspan4146">100</tspan></text>
</g><path
         d="m 1909.17,1269.17 67.5,0"
         style="fill:none;stroke:#000000;stroke-width:5;stroke-linecap:butt;stroke-linejoin:round;stroke-miterlimit:10;stroke-dasharray:none;stroke-opacity:1"
         id="path4148"
         inkscape:connector-curvature="0" /><path
         d="m 8668.34,1269.17 -68.34,0"
         style="fill:none;stroke:#000000;stroke-width:5;stroke-linecap:butt;stroke-linejoin:round;stroke-miterlimit:10;stroke-dasharray:none;stroke-opacity:1"
         id="path4150"
         inkscape:connector-curvature="0" /><path
         d="m 1909.17,1724.17 67.5,0"
         style="fill:none;stroke:#000000;stroke-width:5;stroke-linecap:butt;stroke-linejoin:round;stroke-miterlimit:10;stroke-dasharray:none;stroke-opacity:1"
         id="path4158"
         inkscape:connector-curvature="0" /><path
         d="m 8668.34,1724.17 -68.34,0"
         style="fill:none;stroke:#000000;stroke-width:5;stroke-linecap:butt;stroke-linejoin:round;stroke-miterlimit:10;stroke-dasharray:none;stroke-opacity:1"
         id="path4160"
         inkscape:connector-curvature="0" /><g
         id="g4162"
         transform="matrix(10,0,0,10,-224,0)"><text
           transform="matrix(1,0,0,-1,182.5,168.75)"
           style="font-variant:normal;font-weight:normal;font-size:10px;font-family:Helvetica;-inkscape-font-specification:Helvetica;writing-mode:lr-tb;fill:#000000;fill-opacity:1;fill-rule:nonzero;stroke:none"
           id="text4164"><tspan
             x="0"
             y="0"
             id="tspan4166">0</tspan></text>
</g><path
         d="m 1909.17,2179.17 67.5,0"
         style="fill:none;stroke:#000000;stroke-width:5;stroke-linecap:butt;stroke-linejoin:round;stroke-miterlimit:10;stroke-dasharray:none;stroke-opacity:1"
         id="path4168"
         inkscape:connector-curvature="0" /><path
         d="m 8668.34,2179.17 -68.34,0"
         style="fill:none;stroke:#000000;stroke-width:5;stroke-linecap:butt;stroke-linejoin:round;stroke-miterlimit:10;stroke-dasharray:none;stroke-opacity:1"
         id="path4170"
         inkscape:connector-curvature="0" /><g
         id="g4172"
         transform="matrix(10,0,0,10,-176,0)"><text
           transform="matrix(1,0,0,-1,168.583,214.25)"
           style="font-variant:normal;font-weight:normal;font-size:10px;font-family:Helvetica;-inkscape-font-specification:Helvetica;writing-mode:lr-tb;fill:#000000;fill-opacity:1;fill-rule:nonzero;stroke:none"
           id="text4174"><tspan
             x="0 5.5599999 8.3400002 13.9"
             y="0"
             sodipodi:role="line"
             id="tspan4176">0.05</tspan></text>
</g><path
         d="m 1909.17,2634.17 67.5,0"
         style="fill:none;stroke:#000000;stroke-width:5;stroke-linecap:butt;stroke-linejoin:round;stroke-miterlimit:10;stroke-dasharray:none;stroke-opacity:1"
         id="path4178"
         inkscape:connector-curvature="0" /><path
         d="m 8668.34,2634.17 -68.34,0"
         style="fill:none;stroke:#000000;stroke-width:5;stroke-linecap:butt;stroke-linejoin:round;stroke-miterlimit:10;stroke-dasharray:none;stroke-opacity:1"
         id="path4180"
         inkscape:connector-curvature="0" /><g
         id="g4182"
         transform="matrix(10,0,0,10,-112,0)"><text
           transform="scale(1,-1)"
           style="font-variant:normal;font-weight:normal;font-size:10px;font-family:Helvetica;-inkscape-font-specification:Helvetica;writing-mode:lr-tb;fill:#000000;fill-opacity:1;fill-rule:nonzero;stroke:none"
           id="text4184"
           x="162.96696"
           y="-259.75"><tspan
             x="162.96696 168.52696 171.30696"
             y="-259.75"
             sodipodi:role="line"
             id="tspan4186">0.10</tspan></text>
</g><path
         d="m 1909.17,3089.17 67.5,0"
         style="fill:none;stroke:#000000;stroke-width:5;stroke-linecap:butt;stroke-linejoin:round;stroke-miterlimit:10;stroke-dasharray:none;stroke-opacity:1"
         id="path4188"
         inkscape:connector-curvature="0" /><path
         d="m 8668.34,3089.17 -68.34,0"
         style="fill:none;stroke:#000000;stroke-width:5;stroke-linecap:butt;stroke-linejoin:round;stroke-miterlimit:10;stroke-dasharray:none;stroke-opacity:1"
         id="path4190"
         inkscape:connector-curvature="0" /><g
         id="g4192"
         transform="matrix(10,0,0,10,-160,0)"><text
           transform="matrix(1,0,0,-1,168.583,305.25)"
           style="font-variant:normal;font-weight:normal;font-size:10px;font-family:Helvetica;-inkscape-font-specification:Helvetica;writing-mode:lr-tb;fill:#000000;fill-opacity:1;fill-rule:nonzero;stroke:none"
           id="text4194"><tspan
             x="0 5.5599999 8.3400002 13.9"
             y="0"
             sodipodi:role="line"
             id="tspan4196">0.15</tspan></text>
</g><path
         d="m 1909.17,3544.17 67.5,0"
         style="fill:none;stroke:#000000;stroke-width:5;stroke-linecap:butt;stroke-linejoin:round;stroke-miterlimit:10;stroke-dasharray:none;stroke-opacity:1"
         id="path4198"
         inkscape:connector-curvature="0" /><path
         d="m 8668.34,3544.17 -68.34,0"
         style="fill:none;stroke:#000000;stroke-width:5;stroke-linecap:butt;stroke-linejoin:round;stroke-miterlimit:10;stroke-dasharray:none;stroke-opacity:1"
         id="path4200"
         inkscape:connector-curvature="0" /><g
         id="g4202"
         transform="matrix(10,0,0,10,-128,0)"><text
           transform="matrix(1,0,0,-1,174.167,350.75)"
           style="font-variant:normal;font-weight:normal;font-size:10px;font-family:Helvetica;-inkscape-font-specification:Helvetica;writing-mode:lr-tb;fill:#000000;fill-opacity:1;fill-rule:nonzero;stroke:none"
           id="text4204"><tspan
             x="0 5.5599999 8.3400002"
             y="0"
             sodipodi:role="line"
             id="tspan4206">0.2</tspan></text>
</g><path
         d="m 1909.17,3999.17 67.5,0"
         style="fill:none;stroke:#000000;stroke-width:5;stroke-linecap:butt;stroke-linejoin:round;stroke-miterlimit:10;stroke-dasharray:none;stroke-opacity:1"
         id="path4208"
         inkscape:connector-curvature="0" /><path
         d="m 8668.34,3999.17 -68.34,0"
         style="fill:none;stroke:#000000;stroke-width:5;stroke-linecap:butt;stroke-linejoin:round;stroke-miterlimit:10;stroke-dasharray:none;stroke-opacity:1"
         id="path4210"
         inkscape:connector-curvature="0" /><g
         id="g4212"
         transform="matrix(10,0,0,10,-160,0)"><text
           transform="matrix(1,0,0,-1,168.583,396.25)"
           style="font-variant:normal;font-weight:normal;font-size:10px;font-family:Helvetica;-inkscape-font-specification:Helvetica;writing-mode:lr-tb;fill:#000000;fill-opacity:1;fill-rule:nonzero;stroke:none"
           id="text4214"><tspan
             x="0 5.5599999 8.3400002 13.9"
             y="0"
             sodipodi:role="line"
             id="tspan4216">0.25</tspan></text>
</g><path
         d="m 1909.17,4453.33 67.5,0"
         style="fill:none;stroke:#000000;stroke-width:5;stroke-linecap:butt;stroke-linejoin:round;stroke-miterlimit:10;stroke-dasharray:none;stroke-opacity:1"
         id="path4218"
         inkscape:connector-curvature="0" /><path
         d="m 8668.34,4453.33 -68.34,0"
         style="fill:none;stroke:#000000;stroke-width:5;stroke-linecap:butt;stroke-linejoin:round;stroke-miterlimit:10;stroke-dasharray:none;stroke-opacity:1"
         id="path4220"
         inkscape:connector-curvature="0" /><g
         id="g4222"
         transform="matrix(10,0,0,10,-128,0)"><text
           transform="scale(1,-1)"
           style="font-variant:normal;font-weight:normal;font-size:10px;font-family:Helvetica;-inkscape-font-specification:Helvetica;writing-mode:lr-tb;fill:#000000;fill-opacity:1;fill-rule:nonzero;stroke:none"
           id="text4224"
           x="164.56697"
           y="-441.66699"><tspan
             x="164.56697 170.12697 172.90697"
             y="-441.66699"
             sodipodi:role="line"
             id="tspan4226">0.30</tspan></text>
</g><path
         d="m 1909.17,4544.17 6759.17,0"
         style="fill:none;stroke:#000000;stroke-width:5;stroke-linecap:butt;stroke-linejoin:round;stroke-miterlimit:10;stroke-dasharray:none;stroke-opacity:1"
         id="path4228"
         inkscape:connector-curvature="0" /><path
         d="m 1909.17,1269.17 0,3275"
         style="fill:none;stroke:#000000;stroke-width:5;stroke-linecap:butt;stroke-linejoin:round;stroke-miterlimit:10;stroke-dasharray:none;stroke-opacity:1"
         id="path4234"
         inkscape:connector-curvature="0" /><g
         id="g4236"
         transform="scale(10,10)"><text
           transform="scale(1,-1)"
           style="font-variant:normal;font-weight:normal;font-size:10px;font-family:Helvetica;-inkscape-font-specification:Helvetica;writing-mode:lr-tb;fill:#000000;fill-opacity:1;fill-rule:nonzero;stroke:none"
           id="text4238"
           x="519.33301"
           y="-91.71701"><tspan
             x="519.33301 522.11298 524.33301 532.66302"
             y="-91.71701"
             sodipodi:role="line"
             id="tspan4240">time ($s$)</tspan></text>
<text
           transform="matrix(0,1,1,0,0,0)"
           style="font-variant:normal;font-weight:normal;font-size:10px;font-family:Helvetica;-inkscape-font-specification:Helvetica;writing-mode:lr-tb;fill:#000000;fill-opacity:1;fill-rule:nonzero;stroke:none"
           id="text4242"
           x="268.91699"
           y="143.11696"><tspan
             x="268.91699 274.47699 282.80701 288.367 290.58701 292.80701 295.58701 301.147 306.707"
             y="143.11696"
             sodipodi:role="line"
             id="tspan4244">amplitude</tspan></text>
</g><g
         id="g4246"><g
           id="g4248"
           clip-path="url(#clipPath4250)"><path
             d="m 6720.83,4453.33 1947.5,0"
             style="fill:none;stroke:#000000;stroke-width:20;stroke-linecap:butt;stroke-linejoin:round;stroke-miterlimit:10;stroke-dasharray:none;stroke-opacity:1"
             id="path4254"
             inkscape:connector-curvature="0" /><path
             d="m 4749.17,4453.33 1971.66,0"
             style="fill:none;stroke:#000000;stroke-width:20;stroke-linecap:butt;stroke-linejoin:round;stroke-miterlimit:10;stroke-dasharray:none;stroke-opacity:1"
             id="path4256"
             inkscape:connector-curvature="0" /><path
             d="m 2861.67,4453.33 1887.5,0"
             style="fill:none;stroke:#000000;stroke-width:20;stroke-linecap:butt;stroke-linejoin:round;stroke-miterlimit:10;stroke-dasharray:none;stroke-opacity:1"
             id="path4258"
             inkscape:connector-curvature="0" /><path
             d="m 1909.17,1724.17 67.5,0 0,2729.16 885,0"
             style="fill:none;stroke:#000000;stroke-width:20;stroke-linecap:butt;stroke-linejoin:round;stroke-miterlimit:10;stroke-dasharray:none;stroke-opacity:1"
             id="path4260"
             inkscape:connector-curvature="0" /><path
             d="m 6720.83,1724.17 1947.5,0"
             style="fill:none;stroke:#00ffff;stroke-width:20;stroke-linecap:butt;stroke-linejoin:round;stroke-miterlimit:10;stroke-dasharray:none;stroke-opacity:1"
             id="path4262"
             inkscape:connector-curvature="0" /><path
             d="m 4749.17,1724.17 1971.66,0"
             style="fill:none;stroke:#00ffff;stroke-width:20;stroke-linecap:butt;stroke-linejoin:round;stroke-miterlimit:10;stroke-dasharray:none;stroke-opacity:1"
             id="path4264"
             inkscape:connector-curvature="0" /><path
             d="m 2861.67,1724.17 1887.5,0"
             style="fill:none;stroke:#00ffff;stroke-width:20;stroke-linecap:butt;stroke-linejoin:round;stroke-miterlimit:10;stroke-dasharray:none;stroke-opacity:1"
             id="path4266"
             inkscape:connector-curvature="0" /><path
             d="m 1909.17,1724.17 87.5,0 1.66,13.33 2.5,12.5 3.34,17.5 3.33,20 3.33,26.67 3.34,39.16 3.33,35 2.5,46.67 4.17,53.33 4.16,70 5,70 5.84,85.84 5.83,79.16 4.17,44.17 5,35 4.16,25 3.34,14.17 5.83,9.16 4.17,-5 4.16,-12.5 5,-20.83 4.17,-28.33 5,-35.84 5,-43.33 4.17,-46.67 5.83,-52.5 6.67,-67.5 5.83,-63.33 6.67,-62.5 5.83,-44.17 5,-40.83 5.83,-42.5 5.84,-33.33 5,-26.67 5,-21.67 5,-19.16 5,-15.84 3.33,-7.5 3.33,-6.66 2.5,-5 3.34,-4.17 5.83,-6.67 5.83,-5 5.84,-1.66 5,-0.84 5.83,0 6.67,1.67 6.66,1.67 6.67,2.5 7.5,2.5 6.67,2.5 6.66,1.66 7.5,2.5 7.5,1.67 7.5,0.83 8.34,1.67 5.83,0.83 5,0 7.5,0.84 8.33,0.83 7.5,0 6.67,0.83 19.17,0 2.5,0.84 59.16,0 5.84,0.83 5.83,0 8.33,-0.83 8.34,0.83 5.83,-0.83 426.67,0"
             style="fill:none;stroke:#00ffff;stroke-width:20;stroke-linecap:butt;stroke-linejoin:round;stroke-miterlimit:10;stroke-dasharray:none;stroke-opacity:1"
             id="path4268"
             inkscape:connector-curvature="0" /><path
             d="m 6720.83,1725 1330,0 7.5,-0.83 610,0"
             style="fill:none;stroke:#0000ff;stroke-width:20;stroke-linecap:butt;stroke-linejoin:round;stroke-miterlimit:10;stroke-dasharray:60;stroke-dashoffset:0;stroke-opacity:1"
             id="path4270"
             inkscape:connector-curvature="0" /><path
             d="m 4749.17,1740 11.66,-0.83 28.34,0 5.83,-0.84 35.83,0 7.5,-0.83 39.17,0 6.67,-0.83 41.66,0 8.34,-0.84 41.66,0 5.84,-0.83 50,0 5.83,-0.83 51.67,0 7.5,-0.84 60.83,0 6.67,-0.83 65,0 6.66,-0.83 75.84,0 6.66,-0.84 85.84,0 5.83,-0.83 95,0 7.5,-0.83 119.17,0 5.83,-0.84 148.33,0 4.17,-0.83 185,0 7.5,-0.83 262.5,0 6.67,-0.84 426.66,0 5.84,-0.83 36.66,0"
             style="fill:none;stroke:#0000ff;stroke-width:20;stroke-linecap:butt;stroke-linejoin:round;stroke-miterlimit:10;stroke-dasharray:60;stroke-dashoffset:0;stroke-opacity:1"
             id="path4272"
             inkscape:connector-curvature="0" /><path
             d="m 2867.5,1945 13.33,-4.17 6.67,-2.5 5.83,-1.66 1.67,-0.84 8.33,-2.5 8.34,-1.66 3.33,-1.67 6.67,-1.67 5.83,-1.66 5.83,-1.67 5.84,-1.67 5.83,-1.66 10,-2.5 6.67,-2.5 7.5,-1.67 7.5,-1.67 7.5,-2.5 6.66,-1.66 5.84,-1.67 6.66,-1.67 7.5,-1.66 5.84,-1.67 7.5,-1.67 1.66,-0.83 7.5,-1.67 7.5,-1.66 7.5,-1.67 6.67,-1.67 5.83,-1.66 6.67,-1.67 7.5,-1.67 7.5,-1.66 7.5,-1.67 5.83,-1.67 6.67,-0.83 6.67,-1.67 3.33,-0.83 8.33,-1.67 6.67,-1.66 5,-0.84 6.67,-1.66 7.5,-1.67 8.33,-1.67 7.5,-1.66 5.83,-0.84 5.84,-1.66 6.66,-0.84 0.84,-0.83 5.83,-0.83 5,-0.84 4.17,-0.83 5,-0.83 5.83,-1.67 10.83,-1.67 7.5,-1.66 7.5,-1.67 8.34,-0.83 6.66,-1.67 0.84,0 5.83,-0.83 5.83,-1.67 8.34,-0.83 8.33,-1.67 5.83,-0.83 5.84,-0.84 7.5,-1.66 7.5,-1.67 5.83,-0.83 5.83,-0.84 3.34,-0.83 7.5,-0.83 0.83,0 7.5,-1.67 7.5,-0.83 7.5,-0.84 5.83,-1.66 6.67,-0.84 5,-0.83 6.67,-0.83 6.66,-0.84 4.17,-0.83 5.83,-0.83 5.84,-0.84 8.33,-1.66 7.5,-0.84 7.5,-0.83 6.67,-0.83 6.66,-0.84 6.67,-1.66 6.67,-0.84 7.5,-0.83 7.5,-0.83 2.5,0 6.66,-1.67 6.67,-0.83 6.67,-0.84 7.5,-0.83 7.5,-0.83 6.66,-0.84 6.67,-0.83 6.67,-0.83 6.66,-0.84 7.5,-0.83 5,-0.83 3.34,0 1.66,-0.84 3.34,0 6.66,-0.83 12.5,-1.67 6.67,-0.83 5.83,0 8.34,-1.67 7.5,-0.83 6.66,0 7.5,-0.83 6.67,-0.84 6.67,-0.83 6.66,-0.83 7.5,-0.84 4.17,-0.83 7.5,0 7.5,-0.83 7.5,-0.84 7.5,-0.83 5.83,-0.83 6.67,-0.84 6.67,0 7.5,-0.83 8.33,-0.83 4.17,-0.84 6.66,0 6.67,-0.83 3.33,-0.83 7.5,0 6.67,-0.84 6.67,-0.83 5.83,-0.83 8.33,0 5,-0.84 6.67,-0.83 5,0 7.5,-0.83 6.67,-0.84 14.16,-0.83 5,-0.83 8.34,0 4.16,-0.84 10,-0.83 6.67,0 7.5,-0.83 7.5,-0.84 6.67,0 4.16,-0.83 5.84,0 6.66,-0.83 5,0 3.34,-0.84 9.16,0 12.5,-0.83 5.84,-0.83 5.83,0 7.5,-0.84 10,-0.83 5,0 5.83,-0.83 6.67,0 8.33,-0.84 5.84,0 5,-0.83 5.83,0 5,-0.83 10,0 10,-0.84 10,-0.83 7.5,0 7.5,-0.83 6.67,-0.84 14.16,0 0,-0.83 13.34,0 7.5,-0.83 8.33,0 6.67,-0.84 5.83,0 5.83,-0.83 7.5,0 6.67,-0.83 7.5,0 8.33,-0.84 12.5,0 6.67,-0.83 9.17,0 6.66,-0.83 6.67,0 7.5,-0.84 15,0 6.67,-0.83 5.83,0 6.67,-0.83 15,0 3.33,-0.84 17.5,0 10.83,-0.83 5,0 5,-0.83 14.17,0 7.5,-0.84 12.5,0 5.83,-0.83 15,0 5,-0.83 13.34,0 10,-0.84 19.16,0 2.5,-0.83 20.84,0 1.66,-0.83 21.67,0 10,-0.84 13.33,0 5.84,-0.83 15.83,0 6.67,-0.83 21.66,0 6.67,-0.84 20.83,0 5,-0.83 22.5,0 6.67,-0.83 26.67,0 5.83,-0.84 20,0 6.67,-0.83 28.33,0 5.83,-0.83 30,0 8.34,-0.84 25.83,0 8.33,-0.83 30.84,0"
             style="fill:none;stroke:#0000ff;stroke-width:20;stroke-linecap:butt;stroke-linejoin:round;stroke-miterlimit:10;stroke-dasharray:60;stroke-dashoffset:0;stroke-opacity:1"
             id="path4274"
             inkscape:connector-curvature="0" /><path
             d="m 1909.17,1724.17 87.5,0 1.66,13.33 2.5,12.5 3.34,17.5 3.33,20 3.33,26.67 3.34,39.16 3.33,35 2.5,46.67 4.17,53.33 4.16,70 5,69.17 5.84,85.83 5.83,78.34 4.17,45 5,36.66 4.16,25.84 3.34,18.33 5.83,15.83 4.17,5 4.16,-1.66 5,-5.84 4.17,-9.16 5,-12.5 5,-14.17 4.17,-14.17 5.83,-14.16 6.67,-15 5.83,-11.67 6.67,-8.33 5.83,-4.17 5,-2.5 5.83,-0.83 5.84,-0.84 5,-0.83 5,0 5,-0.83 5,-1.67 3.33,-0.83 3.33,-1.67 2.5,-1.67 3.34,-1.66 5.83,-4.17 5.83,-4.17 5.84,-5.83 5,-5 5.83,-5.83 6.67,-5.84 6.66,-6.66 6.67,-5.84 7.5,-5.83 6.67,-5.83 6.66,-5 7.5,-5 7.5,-5 7.5,-5.84 8.34,-5.83 5.83,-3.33 5,-4.17 7.5,-5 8.33,-5.83 7.5,-5 6.67,-4.17 5,-4.17 6.67,-4.16 7.5,-5.84 2.5,-1.66 5.83,-3.34 5.83,-4.16 7.5,-5 9.17,-5.84 5.83,-3.33 2.5,-1.67 5.84,-3.33 5.83,-3.33 10.83,-7.5 5.84,-3.34 5.83,-3.33 8.33,-5 8.34,-5 5.83,-3.33 5.83,-3.34 7.5,-4.16 8.34,-5 5.83,-3.34 6.67,-3.33 6.66,-4.17 8.34,-4.16 6.66,-3.34 5.84,-3.33 7.5,-4.17 8.33,-4.16 0.83,0 7.5,-4.17 7.5,-3.33 6.67,-4.17 6.67,-3.33 2.5,-0.84 5.83,-3.33 6.67,-2.5 5.83,-3.33 6.67,-3.34 7.5,-3.33 6.66,-3.33 3.34,-1.67 0.83,0 0.83,-0.83 1.67,0 2.5,-1.67 5,-2.5 7.5,-3.33 10.83,-4.17 5.84,-3.33 5.83,-2.5 7.5,-3.34 9.17,-4.16 5.83,-1.67 5.83,-2.5 6.67,-3.33 9.17,-3.34 5.83,-2.5 5,-2.5 1.67,-0.83 2.5,-0.83 3.33,-0.84 2.5,-1.66 1.67,-0.84 5.83,-1.66 5.83,-2.5 11.67,-4.17 7.5,-3.33 8.33,-3.34 7.5,-2.5 5.84,-2.5 5.83,-2.5 6.67,-1.66 7.5,-3.34 7.5,-2.5 6.66,-2.5 6.67,-2.5 6.67,-1.66 6.66,-2.5 6.67,-2.5 7.5,-2.5 6.67,-2.5 6.66,-1.67 4.17,-1.67 6.67,-1.66 4.16,-1.67 5.84,-2.5 5.83,-0.83 6.67,-2.5 5.83,-1.67"
             style="fill:none;stroke:#0000ff;stroke-width:20;stroke-linecap:butt;stroke-linejoin:round;stroke-miterlimit:10;stroke-dasharray:60;stroke-dashoffset:0;stroke-opacity:1"
             id="path4276"
             inkscape:connector-curvature="0" /><path
             d="m 6720.83,1724.17 1947.5,0"
             style="fill:none;stroke:#000000;stroke-width:5;stroke-linecap:butt;stroke-linejoin:round;stroke-miterlimit:10;stroke-dasharray:none;stroke-opacity:1"
             id="path4278"
             inkscape:connector-curvature="0" /><path
             d="m 4749.17,1724.17 1971.66,0"
             style="fill:none;stroke:#000000;stroke-width:5;stroke-linecap:butt;stroke-linejoin:round;stroke-miterlimit:10;stroke-dasharray:none;stroke-opacity:1"
             id="path4280"
             inkscape:connector-curvature="0" /><path
             d="m 2861.67,1724.17 1887.5,0"
             style="fill:none;stroke:#000000;stroke-width:5;stroke-linecap:butt;stroke-linejoin:round;stroke-miterlimit:10;stroke-dasharray:none;stroke-opacity:1"
             id="path4282"
             inkscape:connector-curvature="0" /><path
             d="m 1909.17,1724.17 87.5,0 1.66,13.33 2.5,12.5 3.34,17.5 3.33,20 3.33,26.67 3.34,39.16 3.33,35 2.5,46.67 4.17,53.33 4.16,67.5 5,67.5 5.84,80 5.83,69.17 4.17,35 5,25 4.16,13.33 3.34,4.17 5.83,-3.33 4.17,-12.5 4.16,-16.67 5,-21.67 4.17,-24.16 5,-25 5,-26.67 4.17,-23.33 5.83,-21.67 6.67,-21.67 5.83,-15 6.67,-11.66 5.83,-6.67 5,-6.67 5.83,-8.33 5.84,-8.33 5,-10 5,-10.84 5,-12.5 5,-14.16 3.33,-10.84 3.33,-8.33 2.5,-9.17 3.34,-9.16 5.83,-18.34 5.83,-18.33 5.84,-17.5 5,-15 5.83,-13.33 6.67,-15 6.66,-13.34 6.67,-10.83 7.5,-10.83 6.67,-10 6.66,-9.17 7.5,-10 7.5,-10 7.5,-10 8.34,-10.83 5.83,-6.67 5,-6.67 7.5,-8.33 8.33,-7.5 7.5,-6.67 6.67,-5 5,-4.16 6.67,-3.34 7.5,-5 2.5,-1.66 5.83,-2.5 5.83,-2.5 7.5,-4.17 9.17,-3.33 5.83,-2.5 2.5,-0.84 5.84,-2.5 5.83,-1.66 10.83,-3.34 5.84,-1.66 5.83,-1.67 8.33,-1.67 8.34,-1.66 5.83,-0.84 5.83,-0.83 7.5,-0.83 8.34,-0.84 5.83,-0.83 6.67,-0.83 6.66,-0.84 8.34,0 6.66,-0.83 5.84,0 7.5,-0.83 8.33,0 0.83,-0.84 15,0 6.67,-0.83 34.17,0 7.5,-0.83 285,0"
             style="fill:none;stroke:#000000;stroke-width:5;stroke-linecap:butt;stroke-linejoin:round;stroke-miterlimit:10;stroke-dasharray:none;stroke-opacity:1"
             id="path4284"
             inkscape:connector-curvature="0" /><path
             d="m 6720.83,1724.17 1947.5,0"
             style="fill:none;stroke:#00ff00;stroke-width:5;stroke-linecap:butt;stroke-linejoin:round;stroke-miterlimit:10;stroke-dasharray:5, 40, 60, 40;stroke-dashoffset:0;stroke-opacity:1"
             id="path4286"
             inkscape:connector-curvature="0" /><path
             d="m 4749.17,1724.17 1971.66,0"
             style="fill:none;stroke:#00ff00;stroke-width:5;stroke-linecap:butt;stroke-linejoin:round;stroke-miterlimit:10;stroke-dasharray:5, 40, 60, 40;stroke-dashoffset:0;stroke-opacity:1"
             id="path4288"
             inkscape:connector-curvature="0" /><path
             d="m 2861.67,1724.17 1887.5,0"
             style="fill:none;stroke:#00ff00;stroke-width:5;stroke-linecap:butt;stroke-linejoin:round;stroke-miterlimit:10;stroke-dasharray:5, 40, 60, 40;stroke-dashoffset:0;stroke-opacity:1"
             id="path4290"
             inkscape:connector-curvature="0" /><path
             d="m 1909.17,1724.17 87.5,0 1.66,13.33 2.5,12.5 3.34,17.5 3.33,20 3.33,26.67 3.34,39.16 3.33,35 2.5,46.67 4.17,53.33 4.16,69.17 5,69.17 5.84,84.16 5.83,75.84 4.17,41.66 5,32.5 4.16,20.84 3.34,10.83 5.83,5 4.17,-8.33 4.16,-15 5,-22.5 4.17,-30 5,-35.84 5,-41.66 4.17,-45 5.83,-49.17 6.67,-61.67 5.83,-56.66 6.67,-56.67 5.83,-40 5,-37.5 5.83,-38.33 5.84,-32.5 5,-27.5 5,-23.34 5,-21.66 5,-18.34 3.33,-11.66 3.33,-8.34 2.5,-8.33 3.34,-7.5 5.83,-13.33 5.83,-11.67 5.84,-8.33 5,-6.67 5.83,-5 6.67,-3.33 6.66,-2.5 6.67,0 7.5,1.66 6.67,2.5 6.66,4.17 7.5,5 7.5,5.83 7.5,6.67 8.34,7.5 5.83,5 5,5 7.5,5 8.33,6.67 7.5,5 6.67,4.16 5,3.34 6.67,3.33 7.5,3.33 2.5,0.84 5.83,2.5 5.83,1.66 7.5,1.67 9.17,1.67 5.83,0 2.5,0.83 34.17,0 8.33,-0.83 8.34,-0.84 5.83,0 5.83,-0.83 7.5,-0.83 8.34,-0.84 5.83,-0.83 6.67,0 6.66,-0.83 8.34,-0.84 6.66,0 5.84,-0.83 7.5,0 8.33,-0.83 22.5,0 6.67,-0.84 55.83,0 7.5,0.84 256.67,0"
             style="fill:none;stroke:#00ff00;stroke-width:5;stroke-linecap:butt;stroke-linejoin:round;stroke-miterlimit:10;stroke-dasharray:5, 40, 60, 40;stroke-dashoffset:0;stroke-opacity:1"
             id="path4292"
             inkscape:connector-curvature="0" /></g></g><g
         id="g4294"
         transform="translate(-48,0)"><g
           id="g4296"
           clip-path="url(#clipPath4298)"><g
             id="g4302"
             transform="scale(10,10)" /><path
             d="m 6933.33,3363.33 1294.17,0 0,735 -1294.17,0 0,-735 z"
             style="fill:#ffffff;fill-opacity:1;fill-rule:evenodd;stroke:none"
             id="path4304"
             inkscape:connector-curvature="0" /><path
             d="m 6933.33,3363.33 0,735 1294.17,0 0,-735 -1294.17,0"
             style="fill:none;stroke:#ffffff;stroke-width:5;stroke-linecap:butt;stroke-linejoin:round;stroke-miterlimit:10;stroke-dasharray:none;stroke-opacity:1"
             id="path4306"
             inkscape:connector-curvature="0" /><text
             xml:space="preserve"
             style="font-style:normal;font-weight:normal;font-size:180px;line-height:125%;font-family:sans-serif;letter-spacing:0px;word-spacing:0px;fill:#000000;fill-opacity:1;stroke:none;stroke-width:1px;stroke-linecap:butt;stroke-linejoin:miter;stroke-opacity:1"
             x="7011.5308"
             y="-4173.7925"
             id="text3811"
             sodipodi:linespacing="125%"
             transform="scale(1,-1)"><tspan
               sodipodi:role="line"
               id="tspan3813"
               x="7011.5308"
               y="-4173.7925">disturbance change</tspan></text>
</g></g><g
         id="g4334"
         transform="translate(-368,208)"><g
           id="g4336"
           clip-path="url(#clipPath4338)"><path
             d="m 6993.33,4010.83 302.5,0"
             style="fill:none;stroke:#000000;stroke-width:20;stroke-linecap:butt;stroke-linejoin:round;stroke-miterlimit:10;stroke-dasharray:none;stroke-opacity:1"
             id="path4342"
             inkscape:connector-curvature="0" /></g></g><g
         id="g4358"
         transform="translate(-368,160)"><g
           id="g4360"
           clip-path="url(#clipPath4362)"><path
             d="m 6993.33,3870.83 302.5,0"
             style="fill:none;stroke:#00ffff;stroke-width:20;stroke-linecap:butt;stroke-linejoin:round;stroke-miterlimit:10;stroke-dasharray:none;stroke-opacity:1"
             id="path4366"
             inkscape:connector-curvature="0" /></g></g><g
         id="g4382"
         transform="translate(-352,80)"><g
           id="g4384"
           clip-path="url(#clipPath4386)"><path
             d="m 6993.33,3730.83 302.5,0"
             style="fill:none;stroke:#0000ff;stroke-width:20;stroke-linecap:butt;stroke-linejoin:round;stroke-miterlimit:10;stroke-dasharray:60;stroke-dashoffset:0;stroke-opacity:1"
             id="path4390"
             inkscape:connector-curvature="0" /></g></g><g
         id="g4406"
         transform="translate(-352,-16)"><g
           id="g4408"
           clip-path="url(#clipPath4410)"><path
             d="m 6993.33,3590.83 302.5,0"
             style="fill:none;stroke:#000000;stroke-width:5;stroke-linecap:butt;stroke-linejoin:round;stroke-miterlimit:10;stroke-dasharray:none;stroke-opacity:1"
             id="path4414"
             inkscape:connector-curvature="0" /></g></g><g
         id="g4430"
         transform="translate(-352,-144)"><g
           id="g4432"
           clip-path="url(#clipPath4434)"><path
             d="m 6993.33,3450.83 302.5,0"
             style="fill:none;stroke:#00ff00;stroke-width:5;stroke-linecap:butt;stroke-linejoin:round;stroke-miterlimit:10;stroke-dasharray:5, 40, 60, 40;stroke-dashoffset:0;stroke-opacity:1"
             id="path4438"
             inkscape:connector-curvature="0" /></g></g><text
         xml:space="preserve"
         style="font-style:normal;font-weight:normal;font-size:180px;line-height:125%;font-family:sans-serif;letter-spacing:0px;word-spacing:0px;fill:#000000;fill-opacity:1;stroke:none;stroke-width:1px;stroke-linecap:butt;stroke-linejoin:miter;stroke-opacity:1"
         x="7070.8608"
         y="-3971.5146"
         id="text3755-6-5-2"
         sodipodi:linespacing="125%"
         transform="scale(1,-1)"><tspan
           sodipodi:role="line"
           id="tspan3757-2-4-3"
           x="7070.8608"
           y="-3971.5146">best $J_{di}$</tspan></text>
<text
         xml:space="preserve"
         style="font-style:normal;font-weight:normal;font-size:180px;line-height:125%;font-family:sans-serif;letter-spacing:0px;word-spacing:0px;fill:#000000;fill-opacity:1;stroke:none;stroke-width:1px;stroke-linecap:butt;stroke-linejoin:miter;stroke-opacity:1"
         x="7081.8638"
         y="-3747.7898"
         id="text3755-6-5-2-0"
         sodipodi:linespacing="125%"
         transform="scale(1,-1)"><tspan
           sodipodi:role="line"
           id="tspan3757-2-4-3-4"
           x="7081.8638"
           y="-3747.7898">best $J_r$</tspan></text>
<text
         xml:space="preserve"
         style="font-style:normal;font-weight:normal;font-size:180px;line-height:125%;font-family:sans-serif;letter-spacing:0px;word-spacing:0px;fill:#000000;fill-opacity:1;stroke:none;stroke-width:1px;stroke-linecap:butt;stroke-linejoin:miter;stroke-opacity:1"
         x="7099.9907"
         y="-3516.3757"
         id="text3755-6"
         sodipodi:linespacing="125%"
         transform="scale(1,-1)"><tspan
           sodipodi:role="line"
           id="tspan3757-2"
           x="7099.9907"
           y="-3516.3757">$ART_2$</tspan></text>
<g
         id="g5608"
         transform="translate(-1198.4922,2146.4662)"><g
           clip-path="url(#clipPath5612)"
           id="g5610"><g
             transform="scale(10,10)"
             id="g5616"><text
               xml:space="preserve"
               style="font-style:normal;font-weight:normal;font-size:18px;line-height:125%;font-family:sans-serif;letter-spacing:0px;word-spacing:0px;fill:#000000;fill-opacity:1;stroke:none;stroke-width:1px;stroke-linecap:butt;stroke-linejoin:miter;stroke-opacity:1"
               x="831.93665"
               y="-109.98351"
               id="text3755"
               sodipodi:linespacing="125%"
               transform="scale(1,-1)"><tspan
                 sodipodi:role="line"
                 id="tspan3757"
                 x="831.93665"
                 y="-109.98351">$uSORT_2$</tspan></text>
</g></g></g></g></g></svg>