<?xml version="1.0" encoding="UTF-8" standalone="no"?>
<!-- Created with Inkscape (http://www.inkscape.org/) -->

<svg
   xmlns:ns1="http://www.iki.fi/pav/software/textext/"
   xmlns:dc="http://purl.org/dc/elements/1.1/"
   xmlns:cc="http://creativecommons.org/ns#"
   xmlns:rdf="http://www.w3.org/1999/02/22-rdf-syntax-ns#"
   xmlns:svg="http://www.w3.org/2000/svg"
   xmlns="http://www.w3.org/2000/svg"
   xmlns:sodipodi="http://sodipodi.sourceforge.net/DTD/sodipodi-0.dtd"
   xmlns:inkscape="http://www.inkscape.org/namespaces/inkscape"
   width="416.24893"
   height="124.8752"
   id="svg5554"
   version="1.1"
   inkscape:version="0.92.4 (5da689c313, 2019-01-14)"
   sodipodi:docname="Ch4bloques.svg">
  <defs
     id="defs5556">
    <marker
       inkscape:stockid="Arrow2Lend"
       orient="auto"
       refY="0"
       refX="0"
       id="Arrow2Lend"
       style="overflow:visible">
      <path
         id="path6377"
         style="fill-rule:evenodd;stroke-width:0.73333335;stroke-linejoin:round"
         d="M -11.403143,-4.732916 1.416553,-0.01878889 -11.403144,4.6953372 c 2.0480517,-2.7832182 2.0362508,-6.5911436 10e-7,-9.4282532 z"
         inkscape:connector-curvature="0" />
    </marker>
    <marker
       inkscape:stockid="Arrow1Mend"
       orient="auto"
       refY="0"
       refX="0"
       id="Arrow1Mend"
       style="overflow:visible">
      <path
         id="path6365"
         d="M -4.2666667,0 -6.4,2.1333333 1.0666667,0 -6.4,-2.1333333 Z"
         style="fill-rule:evenodd;stroke:#000000;stroke-width:0.42666668pt"
         inkscape:connector-curvature="0" />
    </marker>
    <marker
       inkscape:stockid="Arrow2Lend"
       orient="auto"
       refY="0"
       refX="0"
       id="Arrow2Lend-2"
       style="overflow:visible">
      <path
         inkscape:connector-curvature="0"
         id="path6377-7"
         style="fill-rule:evenodd;stroke-width:0.73333335;stroke-linejoin:round"
         d="M -11.403143,-4.732916 1.416553,-0.01878889 -11.403144,4.6953372 c 2.0480517,-2.7832182 2.0362508,-6.5911436 10e-7,-9.4282532 z" />
    </marker>
    <marker
       inkscape:stockid="Arrow2Lend"
       orient="auto"
       refY="0"
       refX="0"
       id="Arrow2Lend-3"
       style="overflow:visible">
      <path
         inkscape:connector-curvature="0"
         id="path6377-2"
         style="fill-rule:evenodd;stroke-width:0.73333335;stroke-linejoin:round"
         d="M -11.403143,-4.732916 1.416553,-0.01878889 -11.403144,4.6953372 c 2.0480517,-2.7832182 2.0362508,-6.5911436 10e-7,-9.4282532 z" />
    </marker>
    <marker
       inkscape:stockid="Arrow2Lend"
       orient="auto"
       refY="0"
       refX="0"
       id="Arrow2Lend-8"
       style="overflow:visible">
      <path
         inkscape:connector-curvature="0"
         id="path6377-5"
         style="fill-rule:evenodd;stroke-width:0.73333335;stroke-linejoin:round"
         d="M -11.403143,-4.732916 1.416553,-0.01878889 -11.403144,4.6953372 c 2.0480517,-2.7832182 2.0362508,-6.5911436 10e-7,-9.4282532 z" />
    </marker>
    <marker
       inkscape:stockid="Arrow2Lend"
       orient="auto"
       refY="0"
       refX="0"
       id="Arrow2Lend-6"
       style="overflow:visible">
      <path
         inkscape:connector-curvature="0"
         id="path6377-1"
         style="fill-rule:evenodd;stroke-width:0.73333335;stroke-linejoin:round"
         d="M -11.403143,-4.732916 1.416553,-0.01878889 -11.403144,4.6953372 c 2.0480517,-2.7832182 2.0362508,-6.5911436 10e-7,-9.4282532 z" />
    </marker>
    <marker
       inkscape:stockid="Arrow2Lend"
       orient="auto"
       refY="0"
       refX="0"
       id="Arrow2Lend-9"
       style="overflow:visible">
      <path
         inkscape:connector-curvature="0"
         id="path6377-27"
         style="fill-rule:evenodd;stroke-width:0.73333335;stroke-linejoin:round"
         d="M -11.403143,-4.732916 1.416553,-0.01878889 -11.403144,4.6953372 c 2.0480517,-2.7832182 2.0362508,-6.5911436 10e-7,-9.4282532 z" />
    </marker>
    <marker
       inkscape:stockid="Arrow2Lend"
       orient="auto"
       refY="0"
       refX="0"
       id="Arrow2Lend-23"
       style="overflow:visible">
      <path
         id="path6377-3"
         style="fill-rule:evenodd;stroke-width:0.73333335;stroke-linejoin:round"
         d="M -11.403143,-4.732916 1.416553,-0.01878889 -11.403144,4.6953372 c 2.0480517,-2.7832182 2.0362508,-6.5911436 10e-7,-9.4282532 z"
         inkscape:connector-curvature="0" />
    </marker>
    <marker
       inkscape:stockid="Arrow2Lend"
       orient="auto"
       refY="0"
       refX="0"
       id="Arrow2Lend-4"
       style="overflow:visible">
      <path
         id="path6377-0"
         style="fill-rule:evenodd;stroke-width:0.73333335;stroke-linejoin:round"
         d="M -11.403143,-4.732916 1.416553,-0.01878889 -11.403144,4.6953372 c 2.0480517,-2.7832182 2.0362508,-6.5911436 10e-7,-9.4282532 z"
         inkscape:connector-curvature="0" />
    </marker>
    <marker
       inkscape:stockid="Arrow2Lend"
       orient="auto"
       refY="0"
       refX="0"
       id="Arrow2Lend-82"
       style="overflow:visible">
      <path
         id="path6377-4"
         style="fill-rule:evenodd;stroke-width:0.73333335;stroke-linejoin:round"
         d="M -11.403143,-4.732916 1.416553,-0.01878889 -11.403144,4.6953372 c 2.0480517,-2.7832182 2.0362508,-6.5911436 10e-7,-9.4282532 z"
         inkscape:connector-curvature="0" />
    </marker>
    <marker
       inkscape:stockid="Arrow2Lend"
       orient="auto"
       refY="0"
       refX="0"
       id="Arrow2Lend-88"
       style="overflow:visible">
      <path
         id="path6377-9"
         style="fill-rule:evenodd;stroke-width:0.73333335;stroke-linejoin:round"
         d="M -11.403143,-4.732916 1.416553,-0.01878889 -11.403144,4.6953372 c 2.0480517,-2.7832182 2.0362508,-6.5911436 10e-7,-9.4282532 z"
         inkscape:connector-curvature="0" />
    </marker>
  </defs>
  <sodipodi:namedview
     id="base"
     pagecolor="#ffffff"
     bordercolor="#666666"
     borderopacity="1.0"
     inkscape:pageopacity="0.0"
     inkscape:pageshadow="2"
     inkscape:zoom="1.1797281"
     inkscape:cx="131.74053"
     inkscape:cy="84.409646"
     inkscape:document-units="px"
     inkscape:current-layer="layer1"
     showgrid="false"
     inkscape:snap-midpoints="true"
     inkscape:snap-grids="false"
     showguides="true"
     inkscape:guide-bbox="true"
     inkscape:snap-page="false"
     inkscape:window-width="1366"
     inkscape:window-height="704"
     inkscape:window-x="0"
     inkscape:window-y="27"
     inkscape:window-maximized="1"
     fit-margin-top="0"
     fit-margin-left="0"
     fit-margin-right="0"
     fit-margin-bottom="0" />
  <metadata
     id="metadata5559">
    <rdf:RDF>
      <cc:Work
         rdf:about="">
        <dc:format>image/svg+xml</dc:format>
        <dc:type
           rdf:resource="http://purl.org/dc/dcmitype/StillImage" />
        <dc:title></dc:title>
      </cc:Work>
    </rdf:RDF>
  </metadata>
  <g
     inkscape:label="Capa 1"
     inkscape:groupmode="layer"
     id="layer1"
     transform="translate(-205.11945,-405.33017)">
    <path
       style="fill:none;stroke:#000000;stroke-width:1.06666672px;stroke-linecap:butt;stroke-linejoin:miter;stroke-opacity:1;marker-end:url(#Arrow2Lend)"
       d="m 322.8214,466.68793 h 43.04453"
       id="path5568"
       inkscape:connector-curvature="0" />
    <path
       style="fill:none;stroke:#000000;stroke-width:1.06666648px;stroke-linecap:butt;stroke-linejoin:miter;stroke-opacity:1;marker-end:none"
       d="M 208.49258,529.45505 V 475.64458"
       id="path5570"
       inkscape:connector-curvature="0" />
    <rect
       style="fill:#ffffff;fill-opacity:1;stroke:#000000;stroke-width:1.06700003;stroke-miterlimit:4;stroke-dasharray:none;stroke-dashoffset:0;stroke-opacity:1"
       id="rect5580"
       width="62.893688"
       height="34.696804"
       x="258.61618"
       y="449.88486"
       inkscape:connector-avoid="true" />
    <rect
       style="fill:#ffffff;fill-opacity:1;stroke:#000000;stroke-width:1.06666672;stroke-miterlimit:4;stroke-dasharray:none;stroke-dashoffset:0;stroke-opacity:1"
       id="rect5580-1"
       width="57.743793"
       height="39.840687"
       x="420.94177"
       y="446.96753"
       inkscape:connector-avoid="true" />
    <ellipse
       style="fill:#ffffff;fill-opacity:1;stroke:#000000;stroke-width:1.06700003;stroke-miterlimit:4;stroke-dasharray:none;stroke-dashoffset:0;stroke-opacity:1"
       id="path7173"
       cx="380.54965"
       cy="466.64896"
       rx="11.660535"
       ry="12.705735" />
    <path
       style="fill:none;stroke:#000000;stroke-width:1.06666672px;stroke-linecap:butt;stroke-linejoin:miter;stroke-opacity:1;marker-end:url(#Arrow2Lend)"
       d="m 391.95772,466.70163 h 27.97203"
       id="path5568-1"
       inkscape:connector-curvature="0" />
    <text
       xml:space="preserve"
       style="font-style:normal;font-weight:normal;font-size:14.77580929px;line-height:125%;font-family:Sans;text-align:center;letter-spacing:0px;word-spacing:0px;text-anchor:middle;fill:#000000;fill-opacity:1;stroke:none;stroke-width:1.06666672"
       x="362.9653"
       y="459.33679"
       id="text8007"
       transform="scale(1.0005842,0.99941615)"><tspan
         sodipodi:role="line"
         id="tspan8009"
         x="362.9653"
         y="459.33679"
         style="stroke-width:1.06666672">+</tspan></text>
    <path
       style="fill:none;stroke:#000000;stroke-width:1.0666666px;stroke-linecap:butt;stroke-linejoin:miter;stroke-opacity:1;marker-mid:none;marker-end:url(#Arrow2Lend)"
       d="m 208.60468,476.0029 h 48.24295"
       id="path5568-1-6"
       inkscape:connector-curvature="0" />
    <path
       style="fill:none;stroke:#000000;stroke-width:1.0666666px;stroke-linecap:butt;stroke-linejoin:miter;stroke-opacity:1;marker-end:none"
       d="M 585.24292,529.67203 H 208.11936"
       id="path5570-2"
       inkscape:connector-curvature="0"
       sodipodi:nodetypes="cc" />
    <path
       style="fill:none;stroke:#000000;stroke-width:1.06666648px;stroke-linecap:butt;stroke-linejoin:miter;stroke-opacity:1;marker-end:none"
       d="m 585.07714,468.33532 v 61.56693"
       id="path5568-1-7"
       inkscape:connector-curvature="0" />
    <path
       style="fill:none;stroke:#000000;stroke-width:1.06666648px;stroke-linecap:butt;stroke-linejoin:miter;stroke-opacity:1;marker-end:url(#Arrow2Lend)"
       d="m 380.52961,422.90385 v 30.24461"
       id="path5568-1-8"
       inkscape:connector-curvature="0" />
    <path
       style="fill:none;stroke:#000000;stroke-width:1.06666672px;stroke-linecap:butt;stroke-linejoin:miter;stroke-opacity:1;marker-end:url(#Arrow2Lend)"
       d="m 205.11945,457.31766 h 51.70499"
       id="path5568-9"
       inkscape:connector-curvature="0" />
    <text
       xml:space="preserve"
       style="font-style:normal;font-weight:normal;font-size:14.77580929px;line-height:125%;font-family:Sans;text-align:center;letter-spacing:0px;word-spacing:0px;text-anchor:middle;fill:#000000;fill-opacity:1;stroke:none;stroke-width:1.06666672"
       x="391.36325"
       y="447.75894"
       id="text8007-5"
       transform="scale(1.0005842,0.99941616)"><tspan
         sodipodi:role="line"
         id="tspan8009-4"
         x="391.36325"
         y="447.75894"
         style="stroke-width:1.06666672">+</tspan></text>
    <path
       style="fill:none;stroke:#000000;stroke-width:1.06666672px;stroke-linecap:butt;stroke-linejoin:miter;stroke-opacity:1;marker-end:none"
       d="m 528.68045,468.61048 h 56.76793"
       id="path5568-1-4"
       inkscape:connector-curvature="0" />
    <ellipse
       style="fill:#ffffff;fill-opacity:1;stroke:#000000;stroke-width:1.06700003;stroke-miterlimit:4;stroke-dasharray:none;stroke-dashoffset:0;stroke-opacity:1"
       id="path7173-17"
       cx="524.05133"
       cy="467.39844"
       rx="11.660535"
       ry="12.705735" />
    <path
       style="fill:none;stroke:#000000;stroke-width:1.06666672px;stroke-linecap:butt;stroke-linejoin:miter;stroke-opacity:1;marker-end:url(#Arrow2Lend)"
       d="m 478.91187,468.34669 h 31.61356"
       id="path5568-1-9"
       inkscape:connector-curvature="0" />
    <path
       style="fill:none;stroke:#000000;stroke-width:1.06666672px;stroke-linecap:butt;stroke-linejoin:miter;stroke-opacity:1;marker-end:url(#Arrow2Lend)"
       d="m 524.03129,424.61436 v 28.37411"
       id="path5568-1-8-5"
       inkscape:connector-curvature="0" />
    <text
       xml:space="preserve"
       style="font-style:normal;font-weight:normal;font-size:14.77580929px;line-height:125%;font-family:Sans;text-align:center;letter-spacing:0px;word-spacing:0px;text-anchor:middle;fill:#000000;fill-opacity:1;stroke:none;stroke-width:1.06666672"
       x="537.10101"
       y="447.14252"
       id="text8007-5-5"
       transform="scale(1.0005842,0.99941615)"><tspan
         sodipodi:role="line"
         id="tspan8009-4-1"
         x="537.10101"
         y="447.14252"
         style="stroke-width:1.06666672">+</tspan></text>
    <text
       xml:space="preserve"
       style="font-style:normal;font-weight:normal;font-size:14.77580929px;line-height:125%;font-family:Sans;text-align:center;letter-spacing:0px;word-spacing:0px;text-anchor:middle;fill:#000000;fill-opacity:1;stroke:none;stroke-width:1.06666672"
       x="503.88022"
       y="462.58316"
       id="text8007-5-7"
       transform="scale(1.0005842,0.99941615)"><tspan
         sodipodi:role="line"
         id="tspan8009-4-11"
         x="503.88022"
         y="462.58316"
         style="stroke-width:1.06666672">+</tspan></text>
    <path
       style="fill:none;stroke:#000000;stroke-width:1.06666672px;stroke-linecap:butt;stroke-linejoin:miter;stroke-opacity:1;marker-end:url(#Arrow2Lend-88)"
       d="m 585.44838,468.61048 h 27.97204"
       id="path5568-1-75"
       inkscape:connector-curvature="0" />
    <ellipse
       style="opacity:1;fill:#000000;fill-opacity:1;stroke:#000001;stroke-width:1.13385832;stroke-linecap:round;stroke-linejoin:round;stroke-miterlimit:4;stroke-dasharray:none;stroke-dashoffset:0;stroke-opacity:1"
       id="path4708"
       cx="585.07715"
       cy="468.59662"
       rx="1.0962334"
       ry="1.0949537" />
    <g
       id="g1904"
       ns1:jacobian_sqrt="1.333333"
       inkscapeversion="0.92.0"
       ns1:alignment="middle center"
       ns1:scale="1.0"
       ns1:preamble="/home/david/.config/inkscape/extensions/textext/default_packages.tex"
       ns1:text="$r(s)$"
       ns1:pdfconverter="pdf2svg"
       ns1:texconverter="pdflatex"
       ns1:version="0.11.0"
       transform="matrix(1.333333,0,0,1.333333,11.906415,262.76108)">
      <g
         id="surface1">
        <g
           id="g1889"
           style="fill:#000000;fill-opacity:1">
          <path
             id="path1887"
             transform="translate(148.712,134.765)"
             d="m 0.875,-0.59375 c -0.03125,0.15625 -0.09375,0.390625 -0.09375,0.4375 0,0.171875 0.140625,0.265625 0.296875,0.265625 0.125,0 0.296875,-0.078125 0.375,-0.28125 C 1.46875,-0.203125 1.796875,-1.5625 1.84375,-1.75 c 0.078125,-0.328125 0.265625,-1.015625 0.3125,-1.296875 0.046875,-0.125 0.328125,-0.59375 0.5625,-0.8125 0.078125,-0.0625 0.375,-0.328125 0.796875,-0.328125 0.265625,0 0.40625,0.125 0.421875,0.125 -0.296875,0.046875 -0.515625,0.28125 -0.515625,0.546875 0,0.15625 0.109375,0.34375 0.375,0.34375 0.265625,0 0.546875,-0.234375 0.546875,-0.59375 0,-0.34375 -0.3125,-0.640625 -0.828125,-0.640625 C 2.875,-4.40625 2.4375,-3.921875 2.25,-3.640625 2.15625,-4.09375 1.796875,-4.40625 1.328125,-4.40625 0.875,-4.40625 0.6875,-4.015625 0.59375,-3.84375 0.421875,-3.5 0.296875,-2.90625 0.296875,-2.875 c 0,0.109375 0.09375,0.109375 0.109375,0.109375 0.109375,0 0.109375,-0.015625 0.171875,-0.234375 0.171875,-0.703125 0.375,-1.1875 0.734375,-1.1875 0.15625,0 0.296875,0.078125 0.296875,0.453125 0,0.21875 -0.03125,0.328125 -0.15625,0.84375 z m 0,0"
             style="stroke:none;stroke-width:0"
             inkscape:connector-curvature="0" />
        </g>
        <g
           id="g1893"
           style="fill:#000000;fill-opacity:1">
          <path
             id="path1891"
             transform="translate(153.484,134.765)"
             d="m 3.296875,2.390625 c 0,-0.03125 0,-0.046875 -0.171875,-0.21875 C 1.890625,0.921875 1.5625,-0.96875 1.5625,-2.5 c 0,-1.734375 0.375,-3.46875 1.609375,-4.703125 0.125,-0.125 0.125,-0.140625 0.125,-0.171875 0,-0.078125 -0.03125,-0.109375 -0.09375,-0.109375 -0.109375,0 -1,0.6875 -1.59375,1.953125 -0.5,1.09375 -0.625,2.203125 -0.625,3.03125 0,0.78125 0.109375,1.984375 0.65625,3.125 C 2.25,1.84375 3.09375,2.5 3.203125,2.5 c 0.0625,0 0.09375,-0.03125 0.09375,-0.109375 z m 0,0"
             style="stroke:none;stroke-width:0"
             inkscape:connector-curvature="0" />
        </g>
        <g
           id="g1897"
           style="fill:#000000;fill-opacity:1">
          <path
             id="path1895"
             transform="translate(157.358,134.765)"
             d="M 3.890625,-3.734375 C 3.625,-3.71875 3.421875,-3.5 3.421875,-3.28125 c 0,0.140625 0.09375,0.296875 0.3125,0.296875 0.21875,0 0.453125,-0.171875 0.453125,-0.5625 C 4.1875,-4 3.765625,-4.40625 3,-4.40625 c -1.3125,0 -1.6875,1.015625 -1.6875,1.453125 0,0.78125 0.734375,0.921875 1.03125,0.984375 0.515625,0.109375 1.03125,0.21875 1.03125,0.765625 0,0.25 -0.21875,1.09375 -1.421875,1.09375 -0.140625,0 -0.90625,0 -1.140625,-0.53125 0.390625,0.046875 0.640625,-0.25 0.640625,-0.53125 0,-0.21875 -0.171875,-0.34375 -0.375,-0.34375 -0.265625,0 -0.5625,0.203125 -0.5625,0.65625 0,0.5625 0.578125,0.96875 1.421875,0.96875 1.625,0 2.015625,-1.203125 2.015625,-1.65625 0,-0.359375 -0.1875,-0.609375 -0.3125,-0.71875 -0.265625,-0.28125 -0.5625,-0.34375 -1,-0.421875 -0.359375,-0.078125 -0.75,-0.15625 -0.75,-0.609375 C 1.890625,-3.578125 2.125,-4.1875 3,-4.1875 c 0.25,0 0.75,0.078125 0.890625,0.453125 z m 0,0"
             style="stroke:none;stroke-width:0"
             inkscape:connector-curvature="0" />
        </g>
        <g
           id="g1901"
           style="fill:#000000;fill-opacity:1">
          <path
             id="path1899"
             transform="translate(162.028,134.765)"
             d="m 2.875,-2.5 c 0,-0.765625 -0.109375,-1.96875 -0.65625,-3.109375 -0.59375,-1.21875 -1.453125,-1.875 -1.546875,-1.875 -0.0625,0 -0.109375,0.046875 -0.109375,0.109375 0,0.03125 0,0.046875 0.1875,0.234375 0.984375,0.984375 1.546875,2.5625 1.546875,4.640625 0,1.71875 -0.359375,3.46875 -1.59375,4.71875 C 0.5625,2.34375 0.5625,2.359375 0.5625,2.390625 0.5625,2.453125 0.609375,2.5 0.671875,2.5 0.765625,2.5 1.671875,1.8125 2.25,0.546875 2.765625,-0.546875 2.875,-1.65625 2.875,-2.5 Z m 0,0"
             style="stroke:none;stroke-width:0"
             inkscape:connector-curvature="0" />
        </g>
      </g>
    </g>
    <g
       id="g2082"
       ns1:jacobian_sqrt="1.333333"
       inkscapeversion="0.92.0"
       ns1:alignment="middle center"
       ns1:scale="1.0"
       ns1:preamble="/home/david/.config/inkscape/extensions/textext/default_packages.tex"
       ns1:text="$C(s,\\mathbf{\\theta})$"
       ns1:pdfconverter="pdf2svg"
       ns1:texconverter="pdflatex"
       ns1:version="0.11.0"
       transform="matrix(1.333333,0,0,1.333333,73.551579,290.86955)">
      <g
         id="g2080">
        <g
           id="g2058"
           style="fill:#000000;fill-opacity:1">
          <path
             id="path2056"
             transform="translate(148.214,134.765)"
             d="M 6.5,-4.640625 6.875,-6.625 H 6.65625 c -0.078125,0.171875 -0.171875,0.21875 -0.375,0.21875 -0.078125,0 -0.203125,-0.015625 -0.40625,-0.0625 -0.453125,-0.109375 -0.84375,-0.171875 -1.171875,-0.171875 -2.125,0 -4.046875,2 -4.046875,4.21875 0,1.53125 1.078125,2.59375 2.609375,2.59375 1.015625,0 1.8125,-0.4375 2.71875,-1.484375 L 5.8125,-1.453125 c -0.890625,0.890625 -1.46875,1.1875 -2.296875,1.1875 -1.109375,0 -1.734375,-0.765625 -1.734375,-2.046875 0,-1.1875 0.46875,-2.390625 1.25,-3.203125 C 3.515625,-6 4.140625,-6.28125 4.796875,-6.28125 c 0.921875,0 1.421875,0.546875 1.515625,1.609375 z m 0,0"
             style="stroke:none;stroke-width:0"
             inkscape:connector-curvature="0" />
        </g>
        <g
           id="g2062"
           style="fill:#000000;fill-opacity:1">
          <path
             id="path2060"
             transform="translate(155.078,134.765)"
             d="m 3.296875,2.390625 c 0,-0.03125 0,-0.046875 -0.171875,-0.21875 C 1.890625,0.921875 1.5625,-0.96875 1.5625,-2.5 c 0,-1.734375 0.375,-3.46875 1.609375,-4.703125 0.125,-0.125 0.125,-0.140625 0.125,-0.171875 0,-0.078125 -0.03125,-0.109375 -0.09375,-0.109375 -0.109375,0 -1,0.6875 -1.59375,1.953125 -0.5,1.09375 -0.625,2.203125 -0.625,3.03125 0,0.78125 0.109375,1.984375 0.65625,3.125 C 2.25,1.84375 3.09375,2.5 3.203125,2.5 c 0.0625,0 0.09375,-0.03125 0.09375,-0.109375 z m 0,0"
             style="stroke:none;stroke-width:0"
             inkscape:connector-curvature="0" />
        </g>
        <g
           id="g2066"
           style="fill:#000000;fill-opacity:1">
          <path
             id="path2064"
             transform="translate(158.944,134.765)"
             d="M 0.359375,-1.453125 0.15625,0.125 H 0.3125 c 0.09375,-0.15625 0.140625,-0.203125 0.25,-0.203125 0.109375,0 0.28125,0.03125 0.484375,0.09375 0.21875,0.0625 0.390625,0.09375 0.546875,0.09375 0.84375,0 1.4375,-0.53125 1.4375,-1.296875 C 3.03125,-1.5625 2.828125,-2 2.359375,-2.578125 1.96875,-3.046875 1.8125,-3.359375 1.8125,-3.625 c 0,-0.328125 0.21875,-0.546875 0.5625,-0.546875 0.515625,0 0.8125,0.375 0.921875,1.15625 h 0.15625 L 3.65625,-4.40625 H 3.515625 c -0.09375,0.140625 -0.171875,0.171875 -0.3125,0.171875 -0.0625,0 -0.15625,-0.015625 -0.359375,-0.0625 -0.234375,-0.078125 -0.390625,-0.09375 -0.546875,-0.09375 -0.734375,0 -1.203125,0.421875 -1.203125,1.09375 0,0.3125 0.203125,0.75 0.625,1.28125 C 2.109375,-1.5 2.265625,-1.15625 2.265625,-0.875 c 0,0.453125 -0.296875,0.78125 -0.734375,0.78125 -0.546875,0 -0.859375,-0.421875 -1.015625,-1.359375 z m 0,0"
             style="stroke:none;stroke-width:0"
             inkscape:connector-curvature="0" />
        </g>
        <g
           id="g2070"
           style="fill:#000000;fill-opacity:1">
          <path
             id="path2068"
             transform="translate(162.819,134.765)"
             d="m 2.03125,-0.015625 c 0,-0.65625 -0.25,-1.046875 -0.640625,-1.046875 -0.328125,0 -0.53125,0.25 -0.53125,0.53125 C 0.859375,-0.265625 1.0625,0 1.390625,0 1.5,0 1.640625,-0.046875 1.734375,-0.125 1.765625,-0.15625 1.78125,-0.15625 1.78125,-0.15625 c 0.015625,0 0.015625,0 0.015625,0.140625 0,0.75 -0.34375,1.34375 -0.671875,1.671875 -0.109375,0.109375 -0.109375,0.125 -0.109375,0.15625 0,0.078125 0.046875,0.109375 0.09375,0.109375 0.109375,0 0.921875,-0.765625 0.921875,-1.9375 z m 0,0"
             style="stroke:none;stroke-width:0"
             inkscape:connector-curvature="0" />
        </g>
        <g
           id="g2074"
           style="fill:#000000;fill-opacity:1">
          <path
             id="path2072"
             transform="translate(166.686,134.765)"
             d="m 3.78125,-6.84375 c -0.390625,0 -0.828125,0.171875 -1.234375,0.46875 -0.765625,0.546875 -1.328125,1.625 -1.5625,3.03125 -0.21875,1.296875 -0.0625,2.328125 0.4375,2.890625 C 1.75,-0.078125 2.1875,0.125 2.609375,0.125 3,0.125 3.421875,-0.03125 3.84375,-0.34375 4.609375,-0.890625 5.15625,-1.953125 5.390625,-3.296875 5.609375,-4.671875 5.46875,-5.6875 4.96875,-6.265625 4.640625,-6.625 4.21875,-6.84375 3.78125,-6.84375 Z m 0.546875,3.734375 c -0.21875,1.140625 -0.4375,1.78125 -0.8125,2.3125 -0.234375,0.3125 -0.59375,0.53125 -0.84375,0.53125 -0.265625,0 -0.53125,-0.234375 -0.65625,-0.53125 C 1.8125,-1.328125 1.796875,-1.96875 1.96875,-3.109375 Z M 2.0625,-3.671875 C 2.265625,-4.75 2.515625,-5.40625 2.875,-5.9375 c 0.21875,-0.296875 0.578125,-0.53125 0.828125,-0.53125 0.25,0 0.546875,0.234375 0.65625,0.53125 0.203125,0.53125 0.21875,1.1875 0.0625,2.265625 z m 0,0"
             style="stroke:none;stroke-width:0"
             inkscape:connector-curvature="0" />
        </g>
        <g
           id="g2078"
           style="fill:#000000;fill-opacity:1">
          <path
             id="path2076"
             transform="translate(173.022,134.765)"
             d="m 2.875,-2.5 c 0,-0.765625 -0.109375,-1.96875 -0.65625,-3.109375 -0.59375,-1.21875 -1.453125,-1.875 -1.546875,-1.875 -0.0625,0 -0.109375,0.046875 -0.109375,0.109375 0,0.03125 0,0.046875 0.1875,0.234375 0.984375,0.984375 1.546875,2.5625 1.546875,4.640625 0,1.71875 -0.359375,3.46875 -1.59375,4.71875 C 0.5625,2.34375 0.5625,2.359375 0.5625,2.390625 0.5625,2.453125 0.609375,2.5 0.671875,2.5 0.765625,2.5 1.671875,1.8125 2.25,0.546875 2.765625,-0.546875 2.875,-1.65625 2.875,-2.5 Z m 0,0"
             style="stroke:none;stroke-width:0"
             inkscape:connector-curvature="0" />
        </g>
      </g>
    </g>
    <g
       id="g2202"
       ns1:jacobian_sqrt="1.333333"
       inkscapeversion="0.92.0"
       ns1:alignment="middle center"
       ns1:scale="1.0"
       ns1:preamble="/home/david/.config/inkscape/extensions/textext/default_packages.tex"
       ns1:text="$u(s)$"
       ns1:pdfconverter="pdf2svg"
       ns1:texconverter="pdflatex"
       ns1:version="0.11.0"
       transform="matrix(1.333333,0,0,1.333333,130.16089,280.04298)">
      <g
         id="g2200">
        <g
           id="g2186"
           style="fill:#000000;fill-opacity:1">
          <path
             id="path2184"
             transform="translate(148.712,134.765)"
             d="M 4.59375,-1.171875 C 4.078125,-0.515625 3.921875,-0.375 3.765625,-0.375 c -0.0625,0 -0.109375,-0.0625 -0.109375,-0.171875 0,-0.0625 0,-0.0625 0.1875,-0.78125 L 4.640625,-4.3125 h -0.75 c -0.5625,1.546875 -0.625,1.703125 -1.09375,2.4375 -0.59375,0.953125 -1.078125,1.453125 -1.40625,1.453125 -0.109375,0 -0.203125,-0.09375 -0.203125,-0.25 0,-0.03125 0,-0.0625 0.015625,-0.078125 l 0.90625,-3.625 -0.03125,-0.015625 c -0.578125,0.125 -0.9375,0.1875 -1.5,0.265625 v 0.140625 c 0.375,0 0.40625,0 0.484375,0.0625 C 1.125,-3.90625 1.171875,-3.8125 1.171875,-3.75 c 0,0.078125 -0.046875,0.328125 -0.140625,0.671875 l -0.359375,1.40625 c -0.1875,0.71875 -0.25,1.046875 -0.25,1.234375 0,0.359375 0.171875,0.546875 0.53125,0.546875 0.703125,0 1.234375,-0.53125 2.375,-2.46875 C 3.046875,-1.28125 2.875,-0.59375 2.875,-0.390625 c 0,0.296875 0.1875,0.484375 0.484375,0.484375 0.46875,0 0.703125,-0.203125 1.375,-1.171875 z m 0,0"
             style="stroke:none;stroke-width:0"
             inkscape:connector-curvature="0" />
        </g>
        <g
           id="g2190"
           style="fill:#000000;fill-opacity:1">
          <path
             id="path2188"
             transform="translate(153.694,134.765)"
             d="m 3.296875,2.390625 c 0,-0.03125 0,-0.046875 -0.171875,-0.21875 C 1.890625,0.921875 1.5625,-0.96875 1.5625,-2.5 c 0,-1.734375 0.375,-3.46875 1.609375,-4.703125 0.125,-0.125 0.125,-0.140625 0.125,-0.171875 0,-0.078125 -0.03125,-0.109375 -0.09375,-0.109375 -0.109375,0 -1,0.6875 -1.59375,1.953125 -0.5,1.09375 -0.625,2.203125 -0.625,3.03125 0,0.78125 0.109375,1.984375 0.65625,3.125 C 2.25,1.84375 3.09375,2.5 3.203125,2.5 c 0.0625,0 0.09375,-0.03125 0.09375,-0.109375 z m 0,0"
             style="stroke:none;stroke-width:0"
             inkscape:connector-curvature="0" />
        </g>
        <g
           id="g2194"
           style="fill:#000000;fill-opacity:1">
          <path
             id="path2192"
             transform="translate(157.559,134.765)"
             d="M 0.359375,-1.453125 0.15625,0.125 H 0.3125 c 0.09375,-0.15625 0.140625,-0.203125 0.25,-0.203125 0.109375,0 0.28125,0.03125 0.484375,0.09375 0.21875,0.0625 0.390625,0.09375 0.546875,0.09375 0.84375,0 1.4375,-0.53125 1.4375,-1.296875 C 3.03125,-1.5625 2.828125,-2 2.359375,-2.578125 1.96875,-3.046875 1.8125,-3.359375 1.8125,-3.625 c 0,-0.328125 0.21875,-0.546875 0.5625,-0.546875 0.515625,0 0.8125,0.375 0.921875,1.15625 h 0.15625 L 3.65625,-4.40625 H 3.515625 c -0.09375,0.140625 -0.171875,0.171875 -0.3125,0.171875 -0.0625,0 -0.15625,-0.015625 -0.359375,-0.0625 -0.234375,-0.078125 -0.390625,-0.09375 -0.546875,-0.09375 -0.734375,0 -1.203125,0.421875 -1.203125,1.09375 0,0.3125 0.203125,0.75 0.625,1.28125 C 2.109375,-1.5 2.265625,-1.15625 2.265625,-0.875 c 0,0.453125 -0.296875,0.78125 -0.734375,0.78125 -0.546875,0 -0.859375,-0.421875 -1.015625,-1.359375 z m 0,0"
             style="stroke:none;stroke-width:0"
             inkscape:connector-curvature="0" />
        </g>
        <g
           id="g2198"
           style="fill:#000000;fill-opacity:1">
          <path
             id="path2196"
             transform="translate(161.434,134.765)"
             d="m 2.875,-2.5 c 0,-0.765625 -0.109375,-1.96875 -0.65625,-3.109375 -0.59375,-1.21875 -1.453125,-1.875 -1.546875,-1.875 -0.0625,0 -0.109375,0.046875 -0.109375,0.109375 0,0.03125 0,0.046875 0.1875,0.234375 0.984375,0.984375 1.546875,2.5625 1.546875,4.640625 0,1.71875 -0.359375,3.46875 -1.59375,4.71875 C 0.5625,2.34375 0.5625,2.359375 0.5625,2.390625 0.5625,2.453125 0.609375,2.5 0.671875,2.5 0.765625,2.5 1.671875,1.8125 2.25,0.546875 2.765625,-0.546875 2.875,-1.65625 2.875,-2.5 Z m 0,0"
             style="stroke:none;stroke-width:0"
             inkscape:connector-curvature="0" />
        </g>
      </g>
    </g>
    <g
       id="g2330"
       ns1:jacobian_sqrt="1.333333"
       inkscapeversion="0.92.0"
       ns1:alignment="middle center"
       ns1:scale="1.0"
       ns1:preamble="/home/david/.config/inkscape/extensions/textext/default_packages.tex"
       ns1:text="$d_i(s)$"
       ns1:pdfconverter="pdf2svg"
       ns1:texconverter="pdflatex"
       ns1:version="0.11.0"
       transform="matrix(1.333333,0,0,1.333333,170.0662,235.62271)">
      <g
         id="g2328">
        <g
           id="g2310"
           style="fill:#000000;fill-opacity:1">
          <path
             id="path2308"
             transform="translate(148.712,134.765)"
             d="m 4.609375,-1.109375 c -0.53125,0.625 -0.640625,0.703125 -0.8125,0.703125 -0.09375,0 -0.171875,-0.078125 -0.171875,-0.1875 0,-0.140625 0.3125,-1.359375 0.640625,-2.453125 C 4.53125,-3.96875 4.75,-4.765625 5.25,-6.765625 L 5.203125,-6.8125 c -0.53125,0.109375 -0.890625,0.171875 -1.53125,0.234375 v 0.171875 c 0.5625,0.015625 0.625,0.046875 0.625,0.25 0,0.140625 -0.015625,0.1875 -0.15625,0.703125 L 3.703125,-3.8125 C 3.625,-4.234375 3.453125,-4.390625 3.0625,-4.390625 c -1.296875,0 -2.90625,1.875 -2.90625,3.359375 0,0.71875 0.390625,1.140625 1.046875,1.140625 0.671875,0 1.109375,-0.3125 1.78125,-1.3125 -0.109375,0.5 -0.125,0.65625 -0.125,0.890625 0,0.265625 0.171875,0.4375 0.421875,0.4375 0.421875,0 0.9375,-0.40625 1.453125,-1.125 z m -1.515625,-3.0625 c 0.3125,0.03125 0.453125,0.21875 0.453125,0.578125 0,1.515625 -1.03125,3.21875 -1.953125,3.21875 -0.34375,0 -0.578125,-0.265625 -0.578125,-0.65625 0,-0.828125 0.5,-1.984375 1.15625,-2.671875 C 2.453125,-4 2.828125,-4.1875 3.09375,-4.171875 Z m 0,0"
             style="stroke:none;stroke-width:0"
             inkscape:connector-curvature="0" />
        </g>
        <g
           id="g2314"
           style="fill:#000000;fill-opacity:1">
          <path
             id="path2312"
             transform="translate(153.694,136.259)"
             d="m 1.640625,-0.84375 c -0.1875,0.234375 -0.234375,0.296875 -0.3125,0.375 -0.125,0.125 -0.234375,0.203125 -0.296875,0.203125 -0.0625,0 -0.109375,-0.0625 -0.109375,-0.109375 0,-0.078125 0.015625,-0.1875 0.0625,-0.328125 0,-0.015625 0.03125,-0.078125 0.046875,-0.125 v -0.03125 L 1.6875,-3.234375 1.65625,-3.25 c -0.734375,0.140625 -0.890625,0.15625 -1.171875,0.1875 v 0.109375 C 0.875,-2.9375 0.9375,-2.921875 0.9375,-2.765625 c 0,0.046875 -0.015625,0.171875 -0.0625,0.3125 l -0.34375,1.3125 c -0.125,0.421875 -0.171875,0.65625 -0.171875,0.796875 0,0.28125 0.125,0.421875 0.34375,0.421875 0.34375,0 0.609375,-0.21875 1.03125,-0.84375 z m -0.0625,-3.984375 c -0.203125,0 -0.34375,0.171875 -0.34375,0.390625 0,0.234375 0.140625,0.390625 0.34375,0.390625 0.203125,0 0.375,-0.171875 0.375,-0.375 0,-0.203125 -0.171875,-0.40625 -0.375,-0.40625 z m 0,0"
             style="stroke:none;stroke-width:0"
             inkscape:connector-curvature="0" />
        </g>
        <g
           id="g2318"
           style="fill:#000000;fill-opacity:1">
          <path
             id="path2316"
             transform="translate(156.241,134.765)"
             d="m 3.296875,2.390625 c 0,-0.03125 0,-0.046875 -0.171875,-0.21875 C 1.890625,0.921875 1.5625,-0.96875 1.5625,-2.5 c 0,-1.734375 0.375,-3.46875 1.609375,-4.703125 0.125,-0.125 0.125,-0.140625 0.125,-0.171875 0,-0.078125 -0.03125,-0.109375 -0.09375,-0.109375 -0.109375,0 -1,0.6875 -1.59375,1.953125 -0.5,1.09375 -0.625,2.203125 -0.625,3.03125 0,0.78125 0.109375,1.984375 0.65625,3.125 C 2.25,1.84375 3.09375,2.5 3.203125,2.5 c 0.0625,0 0.09375,-0.03125 0.09375,-0.109375 z m 0,0"
             style="stroke:none;stroke-width:0"
             inkscape:connector-curvature="0" />
        </g>
        <g
           id="g2322"
           style="fill:#000000;fill-opacity:1">
          <path
             id="path2320"
             transform="translate(160.107,134.765)"
             d="M 0.359375,-1.453125 0.15625,0.125 H 0.3125 c 0.09375,-0.15625 0.140625,-0.203125 0.25,-0.203125 0.109375,0 0.28125,0.03125 0.484375,0.09375 0.21875,0.0625 0.390625,0.09375 0.546875,0.09375 0.84375,0 1.4375,-0.53125 1.4375,-1.296875 C 3.03125,-1.5625 2.828125,-2 2.359375,-2.578125 1.96875,-3.046875 1.8125,-3.359375 1.8125,-3.625 c 0,-0.328125 0.21875,-0.546875 0.5625,-0.546875 0.515625,0 0.8125,0.375 0.921875,1.15625 h 0.15625 L 3.65625,-4.40625 H 3.515625 c -0.09375,0.140625 -0.171875,0.171875 -0.3125,0.171875 -0.0625,0 -0.15625,-0.015625 -0.359375,-0.0625 -0.234375,-0.078125 -0.390625,-0.09375 -0.546875,-0.09375 -0.734375,0 -1.203125,0.421875 -1.203125,1.09375 0,0.3125 0.203125,0.75 0.625,1.28125 C 2.109375,-1.5 2.265625,-1.15625 2.265625,-0.875 c 0,0.453125 -0.296875,0.78125 -0.734375,0.78125 -0.546875,0 -0.859375,-0.421875 -1.015625,-1.359375 z m 0,0"
             style="stroke:none;stroke-width:0"
             inkscape:connector-curvature="0" />
        </g>
        <g
           id="g2326"
           style="fill:#000000;fill-opacity:1">
          <path
             id="path2324"
             transform="translate(163.982,134.765)"
             d="m 2.875,-2.5 c 0,-0.765625 -0.109375,-1.96875 -0.65625,-3.109375 -0.59375,-1.21875 -1.453125,-1.875 -1.546875,-1.875 -0.0625,0 -0.109375,0.046875 -0.109375,0.109375 0,0.03125 0,0.046875 0.1875,0.234375 0.984375,0.984375 1.546875,2.5625 1.546875,4.640625 0,1.71875 -0.359375,3.46875 -1.59375,4.71875 C 0.5625,2.34375 0.5625,2.359375 0.5625,2.390625 0.5625,2.453125 0.609375,2.5 0.671875,2.5 0.765625,2.5 1.671875,1.8125 2.25,0.546875 2.765625,-0.546875 2.875,-1.65625 2.875,-2.5 Z m 0,0"
             style="stroke:none;stroke-width:0"
             inkscape:connector-curvature="0" />
        </g>
      </g>
    </g>
    <g
       id="g2466"
       ns1:jacobian_sqrt="1.333333"
       inkscapeversion="0.92.0"
       ns1:alignment="middle center"
       ns1:scale="1.0"
       ns1:preamble="/home/david/.config/inkscape/extensions/textext/default_packages.tex"
       ns1:text="$P(s)$"
       ns1:pdfconverter="pdf2svg"
       ns1:texconverter="pdflatex"
       ns1:version="0.11.0"
       transform="matrix(1.333333,0,0,1.333333,240.39572,290.52417)">
      <g
         id="g2464">
        <g
           id="g2450"
           style="fill:#000000;fill-opacity:1">
          <path
             id="path2448"
             transform="translate(148.712,134.765)"
             d="M 1.453125,-6.34375 C 2.03125,-6.28125 2.15625,-6.1875 2.15625,-5.9375 2.15625,-5.796875 2.125,-5.578125 2,-5.140625 l -1.1875,4.25 C 0.640625,-0.296875 0.5625,-0.234375 0,-0.15625 V 0 H 2.4375 V -0.15625 C 1.8125,-0.25 1.765625,-0.28125 1.765625,-0.625 c 0,-0.109375 0.015625,-0.21875 0.125,-0.578125 L 2.40625,-3.125 c 0.25,0.0625 0.515625,0.078125 0.921875,0.078125 0.8125,0 1.484375,-0.15625 1.921875,-0.46875 0.484375,-0.375 0.78125,-0.921875 0.78125,-1.515625 0,-0.953125 -0.75,-1.484375 -2.109375,-1.484375 h -2.46875 z m 1.75,0.40625 c 0.0625,-0.203125 0.1875,-0.265625 0.46875,-0.265625 0.390625,0 0.765625,0.09375 0.96875,0.234375 C 4.890625,-5.796875 5,-5.5 5,-5.03125 c 0,0.65625 -0.21875,1.109375 -0.65625,1.375 -0.3125,0.171875 -0.703125,0.25 -1.328125,0.25 -0.171875,0 -0.25,-0.015625 -0.515625,-0.046875 z m 0,0"
             style="stroke:none;stroke-width:0"
             inkscape:connector-curvature="0" />
        </g>
        <g
           id="g2454"
           style="fill:#000000;fill-opacity:1">
          <path
             id="path2452"
             transform="translate(154.799,134.765)"
             d="m 3.296875,2.390625 c 0,-0.03125 0,-0.046875 -0.171875,-0.21875 C 1.890625,0.921875 1.5625,-0.96875 1.5625,-2.5 c 0,-1.734375 0.375,-3.46875 1.609375,-4.703125 0.125,-0.125 0.125,-0.140625 0.125,-0.171875 0,-0.078125 -0.03125,-0.109375 -0.09375,-0.109375 -0.109375,0 -1,0.6875 -1.59375,1.953125 -0.5,1.09375 -0.625,2.203125 -0.625,3.03125 0,0.78125 0.109375,1.984375 0.65625,3.125 C 2.25,1.84375 3.09375,2.5 3.203125,2.5 c 0.0625,0 0.09375,-0.03125 0.09375,-0.109375 z m 0,0"
             style="stroke:none;stroke-width:0"
             inkscape:connector-curvature="0" />
        </g>
        <g
           id="g2458"
           style="fill:#000000;fill-opacity:1">
          <path
             id="path2456"
             transform="translate(158.665,134.765)"
             d="M 0.359375,-1.453125 0.15625,0.125 H 0.3125 c 0.09375,-0.15625 0.140625,-0.203125 0.25,-0.203125 0.109375,0 0.28125,0.03125 0.484375,0.09375 0.21875,0.0625 0.390625,0.09375 0.546875,0.09375 0.84375,0 1.4375,-0.53125 1.4375,-1.296875 C 3.03125,-1.5625 2.828125,-2 2.359375,-2.578125 1.96875,-3.046875 1.8125,-3.359375 1.8125,-3.625 c 0,-0.328125 0.21875,-0.546875 0.5625,-0.546875 0.515625,0 0.8125,0.375 0.921875,1.15625 h 0.15625 L 3.65625,-4.40625 H 3.515625 c -0.09375,0.140625 -0.171875,0.171875 -0.3125,0.171875 -0.0625,0 -0.15625,-0.015625 -0.359375,-0.0625 -0.234375,-0.078125 -0.390625,-0.09375 -0.546875,-0.09375 -0.734375,0 -1.203125,0.421875 -1.203125,1.09375 0,0.3125 0.203125,0.75 0.625,1.28125 C 2.109375,-1.5 2.265625,-1.15625 2.265625,-0.875 c 0,0.453125 -0.296875,0.78125 -0.734375,0.78125 -0.546875,0 -0.859375,-0.421875 -1.015625,-1.359375 z m 0,0"
             style="stroke:none;stroke-width:0"
             inkscape:connector-curvature="0" />
        </g>
        <g
           id="g2462"
           style="fill:#000000;fill-opacity:1">
          <path
             id="path2460"
             transform="translate(162.54,134.765)"
             d="m 2.875,-2.5 c 0,-0.765625 -0.109375,-1.96875 -0.65625,-3.109375 -0.59375,-1.21875 -1.453125,-1.875 -1.546875,-1.875 -0.0625,0 -0.109375,0.046875 -0.109375,0.109375 0,0.03125 0,0.046875 0.1875,0.234375 0.984375,0.984375 1.546875,2.5625 1.546875,4.640625 0,1.71875 -0.359375,3.46875 -1.59375,4.71875 C 0.5625,2.34375 0.5625,2.359375 0.5625,2.390625 0.5625,2.453125 0.609375,2.5 0.671875,2.5 0.765625,2.5 1.671875,1.8125 2.25,0.546875 2.765625,-0.546875 2.875,-1.65625 2.875,-2.5 Z m 0,0"
             style="stroke:none;stroke-width:0"
             inkscape:connector-curvature="0" />
        </g>
      </g>
    </g>
    <g
       id="g2612"
       ns1:jacobian_sqrt="1.333333"
       inkscapeversion="0.92.0"
       ns1:alignment="middle center"
       ns1:scale="1.0"
       ns1:preamble="/home/david/.config/inkscape/extensions/textext/default_packages.tex"
       ns1:text="$d_o(s)$"
       ns1:pdfconverter="pdf2svg"
       ns1:texconverter="pdflatex"
       ns1:version="0.11.0"
       transform="matrix(1.333333,0,0,1.333333,313.89984,235.62271)">
      <g
         id="g2610">
        <g
           id="g2592"
           style="fill:#000000;fill-opacity:1">
          <path
             id="path2590"
             transform="translate(148.712,134.765)"
             d="m 4.609375,-1.109375 c -0.53125,0.625 -0.640625,0.703125 -0.8125,0.703125 -0.09375,0 -0.171875,-0.078125 -0.171875,-0.1875 0,-0.140625 0.3125,-1.359375 0.640625,-2.453125 C 4.53125,-3.96875 4.75,-4.765625 5.25,-6.765625 L 5.203125,-6.8125 c -0.53125,0.109375 -0.890625,0.171875 -1.53125,0.234375 v 0.171875 c 0.5625,0.015625 0.625,0.046875 0.625,0.25 0,0.140625 -0.015625,0.1875 -0.15625,0.703125 L 3.703125,-3.8125 C 3.625,-4.234375 3.453125,-4.390625 3.0625,-4.390625 c -1.296875,0 -2.90625,1.875 -2.90625,3.359375 0,0.71875 0.390625,1.140625 1.046875,1.140625 0.671875,0 1.109375,-0.3125 1.78125,-1.3125 -0.109375,0.5 -0.125,0.65625 -0.125,0.890625 0,0.265625 0.171875,0.4375 0.421875,0.4375 0.421875,0 0.9375,-0.40625 1.453125,-1.125 z m -1.515625,-3.0625 c 0.3125,0.03125 0.453125,0.21875 0.453125,0.578125 0,1.515625 -1.03125,3.21875 -1.953125,3.21875 -0.34375,0 -0.578125,-0.265625 -0.578125,-0.65625 0,-0.828125 0.5,-1.984375 1.15625,-2.671875 C 2.453125,-4 2.828125,-4.1875 3.09375,-4.171875 Z m 0,0"
             style="stroke:none;stroke-width:0"
             inkscape:connector-curvature="0" />
        </g>
        <g
           id="g2596"
           style="fill:#000000;fill-opacity:1">
          <path
             id="path2594"
             transform="translate(153.694,136.259)"
             d="m 2.390625,-3.25 c -1.09375,0 -2.1875,1.140625 -2.1875,2.296875 0,0.640625 0.40625,1.03125 1.078125,1.03125 0.484375,0 0.953125,-0.21875 1.390625,-0.640625 0.484375,-0.484375 0.78125,-1.109375 0.78125,-1.65625 0,-0.609375 -0.421875,-1.03125 -1.0625,-1.03125 z M 2.3125,-3.09375 c 0.3125,0 0.515625,0.265625 0.515625,0.6875 0,0.546875 -0.234375,1.28125 -0.5625,1.75 -0.28125,0.390625 -0.546875,0.578125 -0.875,0.578125 -0.34375,0 -0.578125,-0.265625 -0.578125,-0.671875 0,-0.546875 0.21875,-1.1875 0.578125,-1.71875 0.296875,-0.40625 0.59375,-0.625 0.921875,-0.625 z m 0,0"
             style="stroke:none;stroke-width:0"
             inkscape:connector-curvature="0" />
        </g>
        <g
           id="g2600"
           style="fill:#000000;fill-opacity:1">
          <path
             id="path2598"
             transform="translate(157.878,134.765)"
             d="m 3.296875,2.390625 c 0,-0.03125 0,-0.046875 -0.171875,-0.21875 C 1.890625,0.921875 1.5625,-0.96875 1.5625,-2.5 c 0,-1.734375 0.375,-3.46875 1.609375,-4.703125 0.125,-0.125 0.125,-0.140625 0.125,-0.171875 0,-0.078125 -0.03125,-0.109375 -0.09375,-0.109375 -0.109375,0 -1,0.6875 -1.59375,1.953125 -0.5,1.09375 -0.625,2.203125 -0.625,3.03125 0,0.78125 0.109375,1.984375 0.65625,3.125 C 2.25,1.84375 3.09375,2.5 3.203125,2.5 c 0.0625,0 0.09375,-0.03125 0.09375,-0.109375 z m 0,0"
             style="stroke:none;stroke-width:0"
             inkscape:connector-curvature="0" />
        </g>
        <g
           id="g2604"
           style="fill:#000000;fill-opacity:1">
          <path
             id="path2602"
             transform="translate(161.743,134.765)"
             d="M 0.359375,-1.453125 0.15625,0.125 H 0.3125 c 0.09375,-0.15625 0.140625,-0.203125 0.25,-0.203125 0.109375,0 0.28125,0.03125 0.484375,0.09375 0.21875,0.0625 0.390625,0.09375 0.546875,0.09375 0.84375,0 1.4375,-0.53125 1.4375,-1.296875 C 3.03125,-1.5625 2.828125,-2 2.359375,-2.578125 1.96875,-3.046875 1.8125,-3.359375 1.8125,-3.625 c 0,-0.328125 0.21875,-0.546875 0.5625,-0.546875 0.515625,0 0.8125,0.375 0.921875,1.15625 h 0.15625 L 3.65625,-4.40625 H 3.515625 c -0.09375,0.140625 -0.171875,0.171875 -0.3125,0.171875 -0.0625,0 -0.15625,-0.015625 -0.359375,-0.0625 -0.234375,-0.078125 -0.390625,-0.09375 -0.546875,-0.09375 -0.734375,0 -1.203125,0.421875 -1.203125,1.09375 0,0.3125 0.203125,0.75 0.625,1.28125 C 2.109375,-1.5 2.265625,-1.15625 2.265625,-0.875 c 0,0.453125 -0.296875,0.78125 -0.734375,0.78125 -0.546875,0 -0.859375,-0.421875 -1.015625,-1.359375 z m 0,0"
             style="stroke:none;stroke-width:0"
             inkscape:connector-curvature="0" />
        </g>
        <g
           id="g2608"
           style="fill:#000000;fill-opacity:1">
          <path
             id="path2606"
             transform="translate(165.619,134.765)"
             d="m 2.875,-2.5 c 0,-0.765625 -0.109375,-1.96875 -0.65625,-3.109375 -0.59375,-1.21875 -1.453125,-1.875 -1.546875,-1.875 -0.0625,0 -0.109375,0.046875 -0.109375,0.109375 0,0.03125 0,0.046875 0.1875,0.234375 0.984375,0.984375 1.546875,2.5625 1.546875,4.640625 0,1.71875 -0.359375,3.46875 -1.59375,4.71875 C 0.5625,2.34375 0.5625,2.359375 0.5625,2.390625 0.5625,2.453125 0.609375,2.5 0.671875,2.5 0.765625,2.5 1.671875,1.8125 2.25,0.546875 2.765625,-0.546875 2.875,-1.65625 2.875,-2.5 Z m 0,0"
             style="stroke:none;stroke-width:0"
             inkscape:connector-curvature="0" />
        </g>
      </g>
    </g>
    <g
       id="g2766"
       ns1:jacobian_sqrt="1.333333"
       inkscapeversion="0.92.0"
       ns1:alignment="middle center"
       ns1:scale="1.0"
       ns1:preamble="/home/david/.config/inkscape/extensions/textext/default_packages.tex"
       ns1:text="$y(s)$"
       ns1:pdfconverter="pdf2svg"
       ns1:texconverter="pdflatex"
       ns1:version="0.11.0"
       transform="matrix(1.333333,0,0,1.333333,403.03377,271.88527)">
      <g
         id="g2764">
        <g
           id="g2750"
           style="fill:#000000;fill-opacity:1">
          <path
             id="path2748"
             transform="translate(148.712,134.765)"
             d="m 0.15625,-3.984375 c 0.125,-0.03125 0.1875,-0.046875 0.296875,-0.046875 0.578125,0 0.71875,0.25 1.1875,1.96875 0.15625,0.640625 0.40625,1.8125 0.40625,1.984375 0,0.15625 -0.0625,0.3125 -0.21875,0.5 -0.296875,0.40625 -0.5,0.671875 -0.609375,0.78125 C 1,1.421875 0.890625,1.5 0.75,1.5 0.703125,1.5 0.625,1.46875 0.515625,1.390625 0.375,1.28125 0.265625,1.21875 0.15625,1.21875 c -0.21875,0 -0.390625,0.171875 -0.390625,0.390625 0,0.25 0.21875,0.4375 0.5,0.4375 0.640625,0 1.953125,-1.484375 3.03125,-3.46875 C 3.96875,-2.640625 4.25,-3.359375 4.25,-3.84375 4.25,-4.140625 4,-4.390625 3.703125,-4.390625 3.46875,-4.390625 3.3125,-4.25 3.3125,-4.03125 c 0,0.15625 0.078125,0.265625 0.28125,0.390625 0.1875,0.109375 0.25,0.203125 0.25,0.34375 0,0.390625 -0.359375,1.171875 -1.21875,2.578125 L 2.4375,-1.875 C 2.28125,-2.75 1.71875,-4.390625 1.578125,-4.390625 H 1.53125 c 0,0 -0.046875,0 -0.078125,0 C 1.359375,-4.375 1,-4.3125 0.46875,-4.21875 c -0.046875,0.015625 -0.171875,0.046875 -0.3125,0.0625 z m 0,0"
             style="stroke:none;stroke-width:0"
             inkscape:connector-curvature="0" />
        </g>
        <g
           id="g2754"
           style="fill:#000000;fill-opacity:1">
          <path
             id="path2752"
             transform="translate(153.136,134.765)"
             d="m 3.296875,2.390625 c 0,-0.03125 0,-0.046875 -0.171875,-0.21875 C 1.890625,0.921875 1.5625,-0.96875 1.5625,-2.5 c 0,-1.734375 0.375,-3.46875 1.609375,-4.703125 0.125,-0.125 0.125,-0.140625 0.125,-0.171875 0,-0.078125 -0.03125,-0.109375 -0.09375,-0.109375 -0.109375,0 -1,0.6875 -1.59375,1.953125 -0.5,1.09375 -0.625,2.203125 -0.625,3.03125 0,0.78125 0.109375,1.984375 0.65625,3.125 C 2.25,1.84375 3.09375,2.5 3.203125,2.5 c 0.0625,0 0.09375,-0.03125 0.09375,-0.109375 z m 0,0"
             style="stroke:none;stroke-width:0"
             inkscape:connector-curvature="0" />
        </g>
        <g
           id="g2758"
           style="fill:#000000;fill-opacity:1">
          <path
             id="path2756"
             transform="translate(157.001,134.765)"
             d="M 0.359375,-1.453125 0.15625,0.125 H 0.3125 c 0.09375,-0.15625 0.140625,-0.203125 0.25,-0.203125 0.109375,0 0.28125,0.03125 0.484375,0.09375 0.21875,0.0625 0.390625,0.09375 0.546875,0.09375 0.84375,0 1.4375,-0.53125 1.4375,-1.296875 C 3.03125,-1.5625 2.828125,-2 2.359375,-2.578125 1.96875,-3.046875 1.8125,-3.359375 1.8125,-3.625 c 0,-0.328125 0.21875,-0.546875 0.5625,-0.546875 0.515625,0 0.8125,0.375 0.921875,1.15625 h 0.15625 L 3.65625,-4.40625 H 3.515625 c -0.09375,0.140625 -0.171875,0.171875 -0.3125,0.171875 -0.0625,0 -0.15625,-0.015625 -0.359375,-0.0625 -0.234375,-0.078125 -0.390625,-0.09375 -0.546875,-0.09375 -0.734375,0 -1.203125,0.421875 -1.203125,1.09375 0,0.3125 0.203125,0.75 0.625,1.28125 C 2.109375,-1.5 2.265625,-1.15625 2.265625,-0.875 c 0,0.453125 -0.296875,0.78125 -0.734375,0.78125 -0.546875,0 -0.859375,-0.421875 -1.015625,-1.359375 z m 0,0"
             style="stroke:none;stroke-width:0"
             inkscape:connector-curvature="0" />
        </g>
        <g
           id="g2762"
           style="fill:#000000;fill-opacity:1">
          <path
             id="path2760"
             transform="translate(160.876,134.765)"
             d="m 2.875,-2.5 c 0,-0.765625 -0.109375,-1.96875 -0.65625,-3.109375 -0.59375,-1.21875 -1.453125,-1.875 -1.546875,-1.875 -0.0625,0 -0.109375,0.046875 -0.109375,0.109375 0,0.03125 0,0.046875 0.1875,0.234375 0.984375,0.984375 1.546875,2.5625 1.546875,4.640625 0,1.71875 -0.359375,3.46875 -1.59375,4.71875 C 0.5625,2.34375 0.5625,2.359375 0.5625,2.390625 0.5625,2.453125 0.609375,2.5 0.671875,2.5 0.765625,2.5 1.671875,1.8125 2.25,0.546875 2.765625,-0.546875 2.875,-1.65625 2.875,-2.5 Z m 0,0"
             style="stroke:none;stroke-width:0"
             inkscape:connector-curvature="0" />
        </g>
      </g>
    </g>
  </g>
</svg>
