<?xml version="1.0" encoding="UTF-8" standalone="no"?>
<!-- Created with Inkscape (http://www.inkscape.org/) -->

<svg
   xmlns:ns1="http://www.iki.fi/pav/software/textext/"
   xmlns:dc="http://purl.org/dc/elements/1.1/"
   xmlns:cc="http://creativecommons.org/ns#"
   xmlns:rdf="http://www.w3.org/1999/02/22-rdf-syntax-ns#"
   xmlns:svg="http://www.w3.org/2000/svg"
   xmlns="http://www.w3.org/2000/svg"
   xmlns:sodipodi="http://sodipodi.sourceforge.net/DTD/sodipodi-0.dtd"
   xmlns:inkscape="http://www.inkscape.org/namespaces/inkscape"
   width="266.67993"
   height="149.90306"
   id="svg3207"
   version="1.1"
   inkscape:version="0.92.4 (5da689c313, 2019-01-14)"
   sodipodi:docname="Ch4controlador.svg"
   viewBox="0 0 250.01244 140.53411">
  <defs
     id="defs3209">
    <marker
       inkscape:stockid="Arrow2Lend"
       orient="auto"
       refY="0"
       refX="0"
       id="Arrow2Lend"
       style="overflow:visible">
      <path
         id="path6377"
         style="fill-rule:evenodd;stroke-width:0.625;stroke-linejoin:round"
         d="M 8.7185878,4.0337352 -2.2072895,0.01601326 8.7185884,-4.0017078 c -1.7454984,2.3720609 -1.7354408,5.6174519 -6e-7,8.035443 z"
         transform="matrix(-1.1,0,0,-1.1,-1.1,0)"
         inkscape:connector-curvature="0" />
    </marker>
    <marker
       inkscape:stockid="Arrow2Lend"
       orient="auto"
       refY="0"
       refX="0"
       id="marker3135"
       style="overflow:visible">
      <path
         id="path3137"
         style="fill-rule:evenodd;stroke-width:0.625;stroke-linejoin:round"
         d="M 8.7185878,4.0337352 -2.2072895,0.01601326 8.7185884,-4.0017078 c -1.7454984,2.3720609 -1.7354408,5.6174519 -6e-7,8.035443 z"
         transform="matrix(-1.1,0,0,-1.1,-1.1,0)"
         inkscape:connector-curvature="0" />
    </marker>
    <marker
       inkscape:stockid="Arrow2Lend"
       orient="auto"
       refY="0"
       refX="0"
       id="marker3139"
       style="overflow:visible">
      <path
         id="path3141"
         style="fill-rule:evenodd;stroke-width:0.625;stroke-linejoin:round"
         d="M 8.7185878,4.0337352 -2.2072895,0.01601326 8.7185884,-4.0017078 c -1.7454984,2.3720609 -1.7354408,5.6174519 -6e-7,8.035443 z"
         transform="matrix(-1.1,0,0,-1.1,-1.1,0)"
         inkscape:connector-curvature="0" />
    </marker>
    <marker
       inkscape:stockid="Arrow2Lend"
       orient="auto"
       refY="0"
       refX="0"
       id="marker3143"
       style="overflow:visible">
      <path
         id="path3145"
         style="fill-rule:evenodd;stroke-width:0.625;stroke-linejoin:round"
         d="M 8.7185878,4.0337352 -2.2072895,0.01601326 8.7185884,-4.0017078 c -1.7454984,2.3720609 -1.7354408,5.6174519 -6e-7,8.035443 z"
         transform="matrix(-1.1,0,0,-1.1,-1.1,0)"
         inkscape:connector-curvature="0" />
    </marker>
    <marker
       inkscape:stockid="Arrow2Lend"
       orient="auto"
       refY="0"
       refX="0"
       id="marker3147"
       style="overflow:visible">
      <path
         id="path3149"
         style="fill-rule:evenodd;stroke-width:0.625;stroke-linejoin:round"
         d="M 8.7185878,4.0337352 -2.2072895,0.01601326 8.7185884,-4.0017078 c -1.7454984,2.3720609 -1.7354408,5.6174519 -6e-7,8.035443 z"
         transform="matrix(-1.1,0,0,-1.1,-1.1,0)"
         inkscape:connector-curvature="0" />
    </marker>
    <marker
       inkscape:stockid="Arrow2Lend"
       orient="auto"
       refY="0"
       refX="0"
       id="marker3151"
       style="overflow:visible">
      <path
         id="path3153"
         style="fill-rule:evenodd;stroke-width:0.625;stroke-linejoin:round"
         d="M 8.7185878,4.0337352 -2.2072895,0.01601326 8.7185884,-4.0017078 c -1.7454984,2.3720609 -1.7354408,5.6174519 -6e-7,8.035443 z"
         transform="matrix(-1.1,0,0,-1.1,-1.1,0)"
         inkscape:connector-curvature="0" />
    </marker>
    <marker
       inkscape:stockid="Arrow2Lend"
       orient="auto"
       refY="0"
       refX="0"
       id="marker3155"
       style="overflow:visible">
      <path
         id="path3157"
         style="fill-rule:evenodd;stroke-width:0.625;stroke-linejoin:round"
         d="M 8.7185878,4.0337352 -2.2072895,0.01601326 8.7185884,-4.0017078 c -1.7454984,2.3720609 -1.7354408,5.6174519 -6e-7,8.035443 z"
         transform="matrix(-1.1,0,0,-1.1,-1.1,0)"
         inkscape:connector-curvature="0" />
    </marker>
    <marker
       inkscape:stockid="Arrow2Lend"
       orient="auto"
       refY="0"
       refX="0"
       id="marker3159"
       style="overflow:visible">
      <path
         id="path3161"
         style="fill-rule:evenodd;stroke-width:0.625;stroke-linejoin:round"
         d="M 8.7185878,4.0337352 -2.2072895,0.01601326 8.7185884,-4.0017078 c -1.7454984,2.3720609 -1.7354408,5.6174519 -6e-7,8.035443 z"
         transform="matrix(-1.1,0,0,-1.1,-1.1,0)"
         inkscape:connector-curvature="0" />
    </marker>
    <marker
       inkscape:stockid="Arrow2Lend"
       orient="auto"
       refY="0"
       refX="0"
       id="Arrow2Lend-2"
       style="overflow:visible">
      <path
         id="path6377-7"
         style="fill-rule:evenodd;stroke-width:0.625;stroke-linejoin:round"
         d="M 8.7185878,4.0337352 -2.2072895,0.01601326 8.7185884,-4.0017078 c -1.7454984,2.3720609 -1.7354408,5.6174519 -6e-7,8.035443 z"
         transform="matrix(-1.1,0,0,-1.1,-1.1,0)"
         inkscape:connector-curvature="0" />
    </marker>
    <marker
       inkscape:stockid="Arrow2Lend"
       orient="auto"
       refY="0"
       refX="0"
       id="Arrow2Lend-5"
       style="overflow:visible">
      <path
         id="path6377-4"
         style="fill-rule:evenodd;stroke-width:0.625;stroke-linejoin:round"
         d="M 8.7185878,4.0337352 -2.2072895,0.01601326 8.7185884,-4.0017078 c -1.7454984,2.3720609 -1.7354408,5.6174519 -6e-7,8.035443 z"
         transform="matrix(-1.1,0,0,-1.1,-1.1,0)"
         inkscape:connector-curvature="0" />
    </marker>
    <marker
       inkscape:stockid="Arrow2Lend"
       orient="auto"
       refY="0"
       refX="0"
       id="Arrow2Lend-1"
       style="overflow:visible">
      <path
         id="path6377-2"
         style="fill-rule:evenodd;stroke-width:0.625;stroke-linejoin:round"
         d="M 8.7185878,4.0337352 -2.2072895,0.01601326 8.7185884,-4.0017078 c -1.7454984,2.3720609 -1.7354408,5.6174519 -6e-7,8.035443 z"
         transform="matrix(-1.1,0,0,-1.1,-1.1,0)"
         inkscape:connector-curvature="0" />
    </marker>
    <marker
       inkscape:stockid="Arrow2Lend"
       orient="auto"
       refY="0"
       refX="0"
       id="Arrow2Lend-27"
       style="overflow:visible">
      <path
         id="path6377-79"
         style="fill-rule:evenodd;stroke-width:0.625;stroke-linejoin:round"
         d="M 8.7185878,4.0337352 -2.2072895,0.01601326 8.7185884,-4.0017078 c -1.7454984,2.3720609 -1.7354408,5.6174519 -6e-7,8.035443 z"
         transform="matrix(-1.1,0,0,-1.1,-1.1,0)"
         inkscape:connector-curvature="0" />
    </marker>
    <marker
       inkscape:stockid="Arrow2Lend"
       orient="auto"
       refY="0"
       refX="0"
       id="Arrow2Lend-19"
       style="overflow:visible">
      <path
         id="path6377-8"
         style="fill-rule:evenodd;stroke-width:0.625;stroke-linejoin:round"
         d="M 8.7185878,4.0337352 -2.2072895,0.01601326 8.7185884,-4.0017078 c -1.7454984,2.3720609 -1.7354408,5.6174519 -6e-7,8.035443 z"
         transform="matrix(-1.1,0,0,-1.1,-1.1,0)"
         inkscape:connector-curvature="0" />
    </marker>
  </defs>
  <sodipodi:namedview
     id="base"
     pagecolor="#ffffff"
     bordercolor="#666666"
     borderopacity="1.0"
     inkscape:pageopacity="0.0"
     inkscape:pageshadow="2"
     inkscape:zoom="1.5630852"
     inkscape:cx="101.28359"
     inkscape:cy="72.627309"
     inkscape:document-units="px"
     inkscape:current-layer="layer1"
     showgrid="false"
     fit-margin-top="0"
     fit-margin-left="0"
     fit-margin-right="0"
     fit-margin-bottom="0"
     inkscape:window-width="1366"
     inkscape:window-height="704"
     inkscape:window-x="0"
     inkscape:window-y="27"
     inkscape:window-maximized="1" />
  <metadata
     id="metadata3212">
    <rdf:RDF>
      <cc:Work
         rdf:about="">
        <dc:format>image/svg+xml</dc:format>
        <dc:type
           rdf:resource="http://purl.org/dc/dcmitype/StillImage" />
        <dc:title></dc:title>
      </cc:Work>
    </rdf:RDF>
  </metadata>
  <g
     inkscape:label="Capa 1"
     inkscape:groupmode="layer"
     id="layer1"
     transform="translate(89.103079,-368.01877)">
    <path
       style="fill:none;stroke:#000000;stroke-width:0.99999988px;stroke-linecap:butt;stroke-linejoin:miter;stroke-opacity:1;marker-end:url(#Arrow2Lend)"
       d="M -1.1759308,506.54005 V 469.62334"
       id="path5570"
       inkscape:connector-curvature="0" />
    <path
       style="fill:none;stroke:#000000;stroke-width:0.99999994px;stroke-linecap:butt;stroke-linejoin:miter;stroke-opacity:1;marker-mid:none;marker-end:url(#Arrow2Lend)"
       d="M 94.418232,409.5602 H 159.58134"
       id="path5568-1-6"
       inkscape:connector-curvature="0" />
    <ellipse
       style="fill:#ffffff;fill-opacity:1;stroke:#000000;stroke-width:1.00031245;stroke-miterlimit:4;stroke-dasharray:none;stroke-dashoffset:0;stroke-opacity:1"
       id="path7173-1"
       cx="80.182182"
       cy="407.16394"
       rx="14.462083"
       ry="15.774837" />
    <text
       xml:space="preserve"
       style="font-style:normal;font-weight:normal;font-size:11.00122929px;line-height:0%;font-family:sans-serif;text-align:center;letter-spacing:0px;word-spacing:0px;text-anchor:middle;fill:#000000;fill-opacity:1;stroke:none;stroke-width:1"
       x="60.089931"
       y="398.78946"
       id="text8007-4"
       transform="scale(1.0000627,0.99993726)"><tspan
         sodipodi:role="line"
         id="tspan8009-2"
         x="60.089931"
         y="398.78946"
         style="font-size:18.33538437px;line-height:1.25;font-family:sans-serif;stroke-width:1">+</tspan></text>
    <text
       xml:space="preserve"
       style="font-style:normal;font-weight:normal;font-size:11.00122929px;line-height:0%;font-family:sans-serif;text-align:center;letter-spacing:0px;word-spacing:0px;text-anchor:middle;fill:#000000;fill-opacity:1;stroke:none;stroke-width:1"
       x="90.625938"
       y="433.97314"
       id="text8007-4-1"
       transform="scale(1.0000627,0.99993726)"><tspan
         sodipodi:role="line"
         id="tspan8009-2-6"
         x="90.625938"
         y="433.97314"
         style="font-size:18.33538437px;line-height:1.25;font-family:sans-serif;stroke-width:1">-</tspan></text>
    <path
       style="fill:none;stroke:#000000;stroke-width:0.99999994px;stroke-linecap:butt;stroke-linejoin:miter;stroke-opacity:1;marker-end:url(#Arrow2Lend)"
       d="M 20.952372,409.32834 H 64.555205"
       id="path5568-9"
       inkscape:connector-curvature="0" />
    <rect
       style="fill:#ffffff;fill-opacity:1;stroke:#000000;stroke-width:0.99999994;stroke-miterlimit:4;stroke-dasharray:none;stroke-dashoffset:0;stroke-opacity:1"
       id="rect5580-1-5"
       width="44.347294"
       height="35.831036"
       x="-24.660368"
       y="388.40463"
       inkscape:connector-avoid="true" />
    <rect
       style="fill:#ffffff;fill-opacity:1;stroke:#000000;stroke-width:0.99999994;stroke-miterlimit:4;stroke-dasharray:none;stroke-dashoffset:0;stroke-opacity:1"
       id="rect5580-1-5-1"
       width="44.347294"
       height="35.831036"
       x="-24.0406"
       y="432.40289"
       inkscape:connector-avoid="true" />
    <path
       style="fill:none;stroke:#000000;stroke-width:0.99999994;stroke-linecap:butt;stroke-linejoin:miter;stroke-miterlimit:4;stroke-dasharray:none;stroke-opacity:1;marker-end:url(#Arrow2Lend)"
       d="m -89.103079,409.12487 h 62.680433"
       id="path5568-9-9"
       inkscape:connector-curvature="0" />
    <path
       style="fill:none;stroke:#000000;stroke-width:0.99999994px;stroke-linecap:butt;stroke-linejoin:miter;stroke-opacity:1;marker-end:none"
       d="M 20.90499,450.1796 H 81.277952"
       id="path5568-9-3"
       inkscape:connector-curvature="0" />
    <path
       style="fill:none;stroke:#000000;stroke-width:0.99999988px;stroke-linecap:butt;stroke-linejoin:miter;stroke-opacity:1;marker-end:url(#Arrow2Lend)"
       d="m 80.819555,449.84337 v -25.3457"
       id="path5570-3"
       inkscape:connector-curvature="0" />
    <rect
       style="fill:#00ffff;fill-opacity:0;stroke:#000000;stroke-width:0.99999994;stroke-linecap:butt;stroke-linejoin:miter;stroke-miterlimit:4;stroke-dasharray:none;stroke-dashoffset:0;stroke-opacity:0.56730772"
       id="rect5602"
       width="182.21295"
       height="125.17823"
       x="-60.745281"
       y="368.51877" />
    <path
       style="fill:none;stroke:#000000;stroke-width:0.99999994px;stroke-linecap:butt;stroke-linejoin:miter;stroke-opacity:1;marker-end:none"
       d="M -1.2340412,506.08589 H 44.151882"
       id="path5568-9-6"
       inkscape:connector-curvature="0" />
    <g
       id="g3657"
       ns1:jacobian_sqrt="1.333333"
       inkscapeversion="0.92.4"
       ns1:alignment="middle center"
       ns1:scale="1.0"
       ns1:preamble="/home/david/.config/inkscape/extensions/textext/default_packages.tex"
       ns1:text="$r(s)$"
       ns1:pdfconverter="pdf2svg"
       ns1:texconverter="pdflatex"
       ns1:version="0.11.0"
       transform="matrix(1.333333,0,0,1.333333,-284.66552,221.23741)">
      <g
         id="surface1">
        <g
           id="g3642"
           style="fill:#000000;fill-opacity:1">
          <path
             id="path3640"
             transform="translate(148.712,134.765)"
             d="M 1.203125,0 C 1.71875,-1.6875 1.890625,-2.125 2.359375,-2.875 2.6875,-3.4375 2.953125,-3.75 3.125,-3.75 c 0.0625,0 0.109375,0.046875 0.171875,0.140625 0.078125,0.171875 0.15625,0.21875 0.359375,0.21875 0.28125,0 0.453125,-0.171875 0.453125,-0.484375 0,-0.3125 -0.1875,-0.515625 -0.46875,-0.515625 -0.234375,0 -0.5,0.140625 -0.765625,0.40625 C 2.46875,-3.5625 2.078125,-2.96875 1.90625,-2.578125 L 1.78125,-2.21875 2.296875,-4.375 2.265625,-4.390625 c -0.71875,0.125 -0.8125,0.140625 -1.53125,0.265625 v 0.171875 C 0.96875,-4 1,-4 1.0625,-4 c 0.21875,0 0.359375,0.09375 0.359375,0.265625 0,0.140625 0,0.140625 -0.171875,0.828125 L 0.453125,0 Z m 0,0"
             style="stroke:none;stroke-width:0"
             inkscape:connector-curvature="0" />
        </g>
        <g
           id="g3646"
           style="fill:#000000;fill-opacity:1">
          <path
             id="path3644"
             transform="translate(152.817,134.765)"
             d="m 3.296875,2.390625 c 0,-0.03125 0,-0.046875 -0.171875,-0.21875 C 1.890625,0.921875 1.5625,-0.96875 1.5625,-2.5 c 0,-1.734375 0.375,-3.46875 1.609375,-4.703125 0.125,-0.125 0.125,-0.140625 0.125,-0.171875 0,-0.078125 -0.03125,-0.109375 -0.09375,-0.109375 -0.109375,0 -1,0.6875 -1.59375,1.953125 -0.5,1.09375 -0.625,2.203125 -0.625,3.03125 0,0.78125 0.109375,1.984375 0.65625,3.125 C 2.25,1.84375 3.09375,2.5 3.203125,2.5 c 0.0625,0 0.09375,-0.03125 0.09375,-0.109375 z m 0,0"
             style="stroke:none;stroke-width:0"
             inkscape:connector-curvature="0" />
        </g>
        <g
           id="g3650"
           style="fill:#000000;fill-opacity:1">
          <path
             id="path3648"
             transform="translate(156.682,134.765)"
             d="M 0.359375,-1.453125 0.15625,0.125 H 0.3125 c 0.09375,-0.15625 0.140625,-0.203125 0.25,-0.203125 0.109375,0 0.28125,0.03125 0.484375,0.09375 0.21875,0.0625 0.390625,0.09375 0.546875,0.09375 0.84375,0 1.4375,-0.53125 1.4375,-1.296875 C 3.03125,-1.5625 2.828125,-2 2.359375,-2.578125 1.96875,-3.046875 1.8125,-3.359375 1.8125,-3.625 c 0,-0.328125 0.21875,-0.546875 0.5625,-0.546875 0.515625,0 0.8125,0.375 0.921875,1.15625 h 0.15625 L 3.65625,-4.40625 H 3.515625 c -0.09375,0.140625 -0.171875,0.171875 -0.3125,0.171875 -0.0625,0 -0.15625,-0.015625 -0.359375,-0.0625 -0.234375,-0.078125 -0.390625,-0.09375 -0.546875,-0.09375 -0.734375,0 -1.203125,0.421875 -1.203125,1.09375 0,0.3125 0.203125,0.75 0.625,1.28125 C 2.109375,-1.5 2.265625,-1.15625 2.265625,-0.875 c 0,0.453125 -0.296875,0.78125 -0.734375,0.78125 -0.546875,0 -0.859375,-0.421875 -1.015625,-1.359375 z m 0,0"
             style="stroke:none;stroke-width:0"
             inkscape:connector-curvature="0" />
        </g>
        <g
           id="g3654"
           style="fill:#000000;fill-opacity:1">
          <path
             id="path3652"
             transform="translate(160.557,134.765)"
             d="m 2.875,-2.5 c 0,-0.765625 -0.109375,-1.96875 -0.65625,-3.109375 -0.59375,-1.21875 -1.453125,-1.875 -1.546875,-1.875 -0.0625,0 -0.109375,0.046875 -0.109375,0.109375 0,0.03125 0,0.046875 0.1875,0.234375 0.984375,0.984375 1.546875,2.5625 1.546875,4.640625 0,1.71875 -0.359375,3.46875 -1.59375,4.71875 C 0.5625,2.34375 0.5625,2.359375 0.5625,2.390625 0.5625,2.453125 0.609375,2.5 0.671875,2.5 0.765625,2.5 1.671875,1.8125 2.25,0.546875 2.765625,-0.546875 2.875,-1.65625 2.875,-2.5 Z m 0,0"
             style="stroke:none;stroke-width:0"
             inkscape:connector-curvature="0" />
        </g>
      </g>
    </g>
    <g
       id="g3849"
       ns1:jacobian_sqrt="1.333333"
       inkscapeversion="0.92.4"
       ns1:alignment="middle center"
       ns1:scale="1.0"
       ns1:preamble="/home/david/.config/inkscape/extensions/textext/default_packages.tex"
       ns1:text="$C_r(s,\\bm{\\theta})$"
       ns1:pdfconverter="pdf2svg"
       ns1:texconverter="pdflatex"
       ns1:version="0.11.0"
       transform="matrix(1.333333,0,0,1.333333,-221.33817,229.95644)">
      <g
         id="g3847">
        <g
           id="g3813"
           style="fill:#000000;fill-opacity:1">
          <path
             id="path3811"
             transform="translate(148.214,134.765)"
             d="M 6.5,-4.640625 6.875,-6.625 H 6.65625 c -0.078125,0.171875 -0.171875,0.21875 -0.375,0.21875 -0.078125,0 -0.203125,-0.015625 -0.40625,-0.0625 -0.453125,-0.109375 -0.84375,-0.171875 -1.171875,-0.171875 -2.125,0 -4.046875,2 -4.046875,4.21875 0,1.53125 1.078125,2.59375 2.609375,2.59375 1.015625,0 1.8125,-0.4375 2.71875,-1.484375 L 5.8125,-1.453125 c -0.890625,0.890625 -1.46875,1.1875 -2.296875,1.1875 -1.109375,0 -1.734375,-0.765625 -1.734375,-2.046875 0,-1.1875 0.46875,-2.390625 1.25,-3.203125 C 3.515625,-6 4.140625,-6.28125 4.796875,-6.28125 c 0.921875,0 1.421875,0.546875 1.515625,1.609375 z m 0,0"
             style="stroke:none;stroke-width:0"
             inkscape:connector-curvature="0" />
        </g>
        <g
           id="g3817"
           style="fill:#000000;fill-opacity:1">
          <path
             id="path3815"
             transform="translate(154.61,136.259)"
             d="m 0.890625,0 c 0.390625,-1.25 0.515625,-1.578125 0.84375,-2.125 0.25,-0.421875 0.453125,-0.640625 0.578125,-0.640625 0.046875,0 0.078125,0.015625 0.125,0.09375 C 2.5,-2.546875 2.546875,-2.5 2.703125,-2.5 c 0.203125,0 0.328125,-0.140625 0.328125,-0.375 0,-0.21875 -0.140625,-0.375 -0.34375,-0.375 -0.171875,0 -0.359375,0.109375 -0.5625,0.3125 -0.296875,0.296875 -0.59375,0.734375 -0.703125,1.03125 L 1.3125,-1.640625 1.703125,-3.234375 1.6875,-3.25 c -0.546875,0.09375 -0.609375,0.109375 -1.15625,0.203125 v 0.125 c 0.1875,-0.046875 0.203125,-0.046875 0.265625,-0.046875 0.15625,0 0.25,0.078125 0.25,0.203125 0,0.109375 0,0.109375 -0.125,0.609375 L 0.328125,0 Z m 0,0"
             style="stroke:none;stroke-width:0"
             inkscape:connector-curvature="0" />
        </g>
        <g
           id="g3821"
           style="fill:#000000;fill-opacity:1">
          <path
             id="path3819"
             transform="translate(158.146,134.765)"
             d="m 3.296875,2.390625 c 0,-0.03125 0,-0.046875 -0.171875,-0.21875 C 1.890625,0.921875 1.5625,-0.96875 1.5625,-2.5 c 0,-1.734375 0.375,-3.46875 1.609375,-4.703125 0.125,-0.125 0.125,-0.140625 0.125,-0.171875 0,-0.078125 -0.03125,-0.109375 -0.09375,-0.109375 -0.109375,0 -1,0.6875 -1.59375,1.953125 -0.5,1.09375 -0.625,2.203125 -0.625,3.03125 0,0.78125 0.109375,1.984375 0.65625,3.125 C 2.25,1.84375 3.09375,2.5 3.203125,2.5 c 0.0625,0 0.09375,-0.03125 0.09375,-0.109375 z m 0,0"
             style="stroke:none;stroke-width:0"
             inkscape:connector-curvature="0" />
        </g>
        <g
           id="g3825"
           style="fill:#000000;fill-opacity:1">
          <path
             id="path3823"
             transform="translate(162.011,134.765)"
             d="M 0.359375,-1.453125 0.15625,0.125 H 0.3125 c 0.09375,-0.15625 0.140625,-0.203125 0.25,-0.203125 0.109375,0 0.28125,0.03125 0.484375,0.09375 0.21875,0.0625 0.390625,0.09375 0.546875,0.09375 0.84375,0 1.4375,-0.53125 1.4375,-1.296875 C 3.03125,-1.5625 2.828125,-2 2.359375,-2.578125 1.96875,-3.046875 1.8125,-3.359375 1.8125,-3.625 c 0,-0.328125 0.21875,-0.546875 0.5625,-0.546875 0.515625,0 0.8125,0.375 0.921875,1.15625 h 0.15625 L 3.65625,-4.40625 H 3.515625 c -0.09375,0.140625 -0.171875,0.171875 -0.3125,0.171875 -0.0625,0 -0.15625,-0.015625 -0.359375,-0.0625 -0.234375,-0.078125 -0.390625,-0.09375 -0.546875,-0.09375 -0.734375,0 -1.203125,0.421875 -1.203125,1.09375 0,0.3125 0.203125,0.75 0.625,1.28125 C 2.109375,-1.5 2.265625,-1.15625 2.265625,-0.875 c 0,0.453125 -0.296875,0.78125 -0.734375,0.78125 -0.546875,0 -0.859375,-0.421875 -1.015625,-1.359375 z m 0,0"
             style="stroke:none;stroke-width:0"
             inkscape:connector-curvature="0" />
        </g>
        <g
           id="g3829"
           style="fill:#000000;fill-opacity:1">
          <path
             id="path3827"
             transform="translate(165.886,134.765)"
             d="m 2.03125,-0.015625 c 0,-0.65625 -0.25,-1.046875 -0.640625,-1.046875 -0.328125,0 -0.53125,0.25 -0.53125,0.53125 C 0.859375,-0.265625 1.0625,0 1.390625,0 1.5,0 1.640625,-0.046875 1.734375,-0.125 1.765625,-0.15625 1.78125,-0.15625 1.78125,-0.15625 c 0.015625,0 0.015625,0 0.015625,0.140625 0,0.75 -0.34375,1.34375 -0.671875,1.671875 -0.109375,0.109375 -0.109375,0.125 -0.109375,0.15625 0,0.078125 0.046875,0.109375 0.09375,0.109375 0.109375,0 0.921875,-0.765625 0.921875,-1.9375 z m 0,0"
             style="stroke:none;stroke-width:0"
             inkscape:connector-curvature="0" />
        </g>
        <g
           id="g3833"
           style="fill:#000000;fill-opacity:1">
          <path
             id="path3831"
             transform="translate(169.753,134.765)"
             d="m 3.78125,-6.84375 c -0.390625,0 -0.828125,0.171875 -1.234375,0.46875 -0.765625,0.546875 -1.328125,1.625 -1.5625,3.03125 -0.21875,1.296875 -0.0625,2.328125 0.4375,2.890625 C 1.75,-0.078125 2.1875,0.125 2.609375,0.125 3,0.125 3.421875,-0.03125 3.84375,-0.34375 4.609375,-0.890625 5.15625,-1.953125 5.390625,-3.296875 5.609375,-4.671875 5.46875,-5.6875 4.96875,-6.265625 4.640625,-6.625 4.21875,-6.84375 3.78125,-6.84375 Z m 0.546875,3.734375 c -0.21875,1.140625 -0.4375,1.78125 -0.8125,2.3125 -0.234375,0.3125 -0.59375,0.53125 -0.84375,0.53125 -0.265625,0 -0.53125,-0.234375 -0.65625,-0.53125 C 1.8125,-1.328125 1.796875,-1.96875 1.96875,-3.109375 Z M 2.0625,-3.671875 C 2.265625,-4.75 2.515625,-5.40625 2.875,-5.9375 c 0.21875,-0.296875 0.578125,-0.53125 0.828125,-0.53125 0.25,0 0.546875,0.234375 0.65625,0.53125 0.203125,0.53125 0.21875,1.1875 0.0625,2.265625 z m 0,0"
             style="stroke:none;stroke-width:0"
             inkscape:connector-curvature="0" />
        </g>
        <g
           id="g3837"
           style="fill:#000000;fill-opacity:1">
          <path
             id="path3835"
             transform="translate(169.974,134.433)"
             d="m 3.78125,-6.84375 c -0.390625,0 -0.828125,0.171875 -1.234375,0.46875 -0.765625,0.546875 -1.328125,1.625 -1.5625,3.03125 -0.21875,1.296875 -0.0625,2.328125 0.4375,2.890625 C 1.75,-0.078125 2.1875,0.125 2.609375,0.125 3,0.125 3.421875,-0.03125 3.84375,-0.34375 4.609375,-0.890625 5.15625,-1.953125 5.390625,-3.296875 5.609375,-4.671875 5.46875,-5.6875 4.96875,-6.265625 4.640625,-6.625 4.21875,-6.84375 3.78125,-6.84375 Z m 0.546875,3.734375 c -0.21875,1.140625 -0.4375,1.78125 -0.8125,2.3125 -0.234375,0.3125 -0.59375,0.53125 -0.84375,0.53125 -0.265625,0 -0.53125,-0.234375 -0.65625,-0.53125 C 1.8125,-1.328125 1.796875,-1.96875 1.96875,-3.109375 Z M 2.0625,-3.671875 C 2.265625,-4.75 2.515625,-5.40625 2.875,-5.9375 c 0.21875,-0.296875 0.578125,-0.53125 0.828125,-0.53125 0.25,0 0.546875,0.234375 0.65625,0.53125 0.203125,0.53125 0.21875,1.1875 0.0625,2.265625 z m 0,0"
             style="stroke:none;stroke-width:0"
             inkscape:connector-curvature="0" />
        </g>
        <g
           id="g3841"
           style="fill:#000000;fill-opacity:1">
          <path
             id="path3839"
             transform="translate(170.196,134.765)"
             d="m 3.78125,-6.84375 c -0.390625,0 -0.828125,0.171875 -1.234375,0.46875 -0.765625,0.546875 -1.328125,1.625 -1.5625,3.03125 -0.21875,1.296875 -0.0625,2.328125 0.4375,2.890625 C 1.75,-0.078125 2.1875,0.125 2.609375,0.125 3,0.125 3.421875,-0.03125 3.84375,-0.34375 4.609375,-0.890625 5.15625,-1.953125 5.390625,-3.296875 5.609375,-4.671875 5.46875,-5.6875 4.96875,-6.265625 4.640625,-6.625 4.21875,-6.84375 3.78125,-6.84375 Z m 0.546875,3.734375 c -0.21875,1.140625 -0.4375,1.78125 -0.8125,2.3125 -0.234375,0.3125 -0.59375,0.53125 -0.84375,0.53125 -0.265625,0 -0.53125,-0.234375 -0.65625,-0.53125 C 1.8125,-1.328125 1.796875,-1.96875 1.96875,-3.109375 Z M 2.0625,-3.671875 C 2.265625,-4.75 2.515625,-5.40625 2.875,-5.9375 c 0.21875,-0.296875 0.578125,-0.53125 0.828125,-0.53125 0.25,0 0.546875,0.234375 0.65625,0.53125 0.203125,0.53125 0.21875,1.1875 0.0625,2.265625 z m 0,0"
             style="stroke:none;stroke-width:0"
             inkscape:connector-curvature="0" />
        </g>
        <g
           id="g3845"
           style="fill:#000000;fill-opacity:1">
          <path
             id="path3843"
             transform="translate(176.532,134.765)"
             d="m 2.875,-2.5 c 0,-0.765625 -0.109375,-1.96875 -0.65625,-3.109375 -0.59375,-1.21875 -1.453125,-1.875 -1.546875,-1.875 -0.0625,0 -0.109375,0.046875 -0.109375,0.109375 0,0.03125 0,0.046875 0.1875,0.234375 0.984375,0.984375 1.546875,2.5625 1.546875,4.640625 0,1.71875 -0.359375,3.46875 -1.59375,4.71875 C 0.5625,2.34375 0.5625,2.359375 0.5625,2.390625 0.5625,2.453125 0.609375,2.5 0.671875,2.5 0.765625,2.5 1.671875,1.8125 2.25,0.546875 2.765625,-0.546875 2.875,-1.65625 2.875,-2.5 Z m 0,0"
             style="stroke:none;stroke-width:0"
             inkscape:connector-curvature="0" />
        </g>
      </g>
    </g>
    <g
       id="g3993"
       ns1:jacobian_sqrt="1.333333"
       inkscapeversion="0.92.4"
       ns1:alignment="middle center"
       ns1:scale="1.0"
       ns1:preamble="/home/david/.config/inkscape/extensions/textext/default_packages.tex"
       ns1:text="$C_y(s,\\bm{\\theta})$"
       ns1:pdfconverter="pdf2svg"
       ns1:texconverter="pdflatex"
       ns1:version="0.11.0"
       transform="matrix(1.333333,0,0,1.333333,-220.87573,273.61496)">
      <g
         id="g3991">
        <g
           id="g3957"
           style="fill:#000000;fill-opacity:1">
          <path
             id="path3955"
             transform="translate(148.214,134.765)"
             d="M 6.5,-4.640625 6.875,-6.625 H 6.65625 c -0.078125,0.171875 -0.171875,0.21875 -0.375,0.21875 -0.078125,0 -0.203125,-0.015625 -0.40625,-0.0625 -0.453125,-0.109375 -0.84375,-0.171875 -1.171875,-0.171875 -2.125,0 -4.046875,2 -4.046875,4.21875 0,1.53125 1.078125,2.59375 2.609375,2.59375 1.015625,0 1.8125,-0.4375 2.71875,-1.484375 L 5.8125,-1.453125 c -0.890625,0.890625 -1.46875,1.1875 -2.296875,1.1875 -1.109375,0 -1.734375,-0.765625 -1.734375,-2.046875 0,-1.1875 0.46875,-2.390625 1.25,-3.203125 C 3.515625,-6 4.140625,-6.28125 4.796875,-6.28125 c 0.921875,0 1.421875,0.546875 1.515625,1.609375 z m 0,0"
             style="stroke:none;stroke-width:0"
             inkscape:connector-curvature="0" />
        </g>
        <g
           id="g3961"
           style="fill:#000000;fill-opacity:1">
          <path
             id="path3959"
             transform="translate(154.61,136.259)"
             d="m 0.109375,-2.953125 c 0.09375,-0.015625 0.15625,-0.03125 0.234375,-0.03125 0.421875,0 0.53125,0.1875 0.859375,1.453125 0.125,0.484375 0.3125,1.34375 0.3125,1.46875 0,0.125 -0.046875,0.234375 -0.15625,0.375 C 1.125,0.609375 0.984375,0.796875 0.90625,0.890625 0.75,1.046875 0.65625,1.109375 0.5625,1.109375 0.515625,1.109375 0.46875,1.09375 0.390625,1.03125 0.265625,0.9375 0.1875,0.90625 0.109375,0.90625 c -0.15625,0 -0.28125,0.125 -0.28125,0.28125 0,0.1875 0.15625,0.328125 0.375,0.328125 0.46875,0 1.4375,-1.109375 2.234375,-2.5625 0.5,-0.90625 0.703125,-1.4375 0.703125,-1.796875 0,-0.21875 -0.1875,-0.40625 -0.40625,-0.40625 -0.171875,0 -0.28125,0.109375 -0.28125,0.265625 0,0.109375 0.046875,0.203125 0.203125,0.296875 0.140625,0.078125 0.1875,0.140625 0.1875,0.25 0,0.296875 -0.265625,0.859375 -0.890625,1.90625 L 1.796875,-1.390625 C 1.6875,-2.03125 1.28125,-3.25 1.171875,-3.25 h -0.03125 c -0.015625,0 -0.046875,0 -0.078125,0 C 1,-3.234375 0.734375,-3.1875 0.34375,-3.125 0.3125,-3.109375 0.21875,-3.09375 0.109375,-3.078125 Z m 0,0"
             style="stroke:none;stroke-width:0"
             inkscape:connector-curvature="0" />
        </g>
        <g
           id="g3965"
           style="fill:#000000;fill-opacity:1">
          <path
             id="path3963"
             transform="translate(158.382,134.765)"
             d="m 3.296875,2.390625 c 0,-0.03125 0,-0.046875 -0.171875,-0.21875 C 1.890625,0.921875 1.5625,-0.96875 1.5625,-2.5 c 0,-1.734375 0.375,-3.46875 1.609375,-4.703125 0.125,-0.125 0.125,-0.140625 0.125,-0.171875 0,-0.078125 -0.03125,-0.109375 -0.09375,-0.109375 -0.109375,0 -1,0.6875 -1.59375,1.953125 -0.5,1.09375 -0.625,2.203125 -0.625,3.03125 0,0.78125 0.109375,1.984375 0.65625,3.125 C 2.25,1.84375 3.09375,2.5 3.203125,2.5 c 0.0625,0 0.09375,-0.03125 0.09375,-0.109375 z m 0,0"
             style="stroke:none;stroke-width:0"
             inkscape:connector-curvature="0" />
        </g>
        <g
           id="g3969"
           style="fill:#000000;fill-opacity:1">
          <path
             id="path3967"
             transform="translate(162.247,134.765)"
             d="M 0.359375,-1.453125 0.15625,0.125 H 0.3125 c 0.09375,-0.15625 0.140625,-0.203125 0.25,-0.203125 0.109375,0 0.28125,0.03125 0.484375,0.09375 0.21875,0.0625 0.390625,0.09375 0.546875,0.09375 0.84375,0 1.4375,-0.53125 1.4375,-1.296875 C 3.03125,-1.5625 2.828125,-2 2.359375,-2.578125 1.96875,-3.046875 1.8125,-3.359375 1.8125,-3.625 c 0,-0.328125 0.21875,-0.546875 0.5625,-0.546875 0.515625,0 0.8125,0.375 0.921875,1.15625 h 0.15625 L 3.65625,-4.40625 H 3.515625 c -0.09375,0.140625 -0.171875,0.171875 -0.3125,0.171875 -0.0625,0 -0.15625,-0.015625 -0.359375,-0.0625 -0.234375,-0.078125 -0.390625,-0.09375 -0.546875,-0.09375 -0.734375,0 -1.203125,0.421875 -1.203125,1.09375 0,0.3125 0.203125,0.75 0.625,1.28125 C 2.109375,-1.5 2.265625,-1.15625 2.265625,-0.875 c 0,0.453125 -0.296875,0.78125 -0.734375,0.78125 -0.546875,0 -0.859375,-0.421875 -1.015625,-1.359375 z m 0,0"
             style="stroke:none;stroke-width:0"
             inkscape:connector-curvature="0" />
        </g>
        <g
           id="g3973"
           style="fill:#000000;fill-opacity:1">
          <path
             id="path3971"
             transform="translate(166.122,134.765)"
             d="m 2.03125,-0.015625 c 0,-0.65625 -0.25,-1.046875 -0.640625,-1.046875 -0.328125,0 -0.53125,0.25 -0.53125,0.53125 C 0.859375,-0.265625 1.0625,0 1.390625,0 1.5,0 1.640625,-0.046875 1.734375,-0.125 1.765625,-0.15625 1.78125,-0.15625 1.78125,-0.15625 c 0.015625,0 0.015625,0 0.015625,0.140625 0,0.75 -0.34375,1.34375 -0.671875,1.671875 -0.109375,0.109375 -0.109375,0.125 -0.109375,0.15625 0,0.078125 0.046875,0.109375 0.09375,0.109375 0.109375,0 0.921875,-0.765625 0.921875,-1.9375 z m 0,0"
             style="stroke:none;stroke-width:0"
             inkscape:connector-curvature="0" />
        </g>
        <g
           id="g3977"
           style="fill:#000000;fill-opacity:1">
          <path
             id="path3975"
             transform="translate(169.989,134.765)"
             d="m 3.78125,-6.84375 c -0.390625,0 -0.828125,0.171875 -1.234375,0.46875 -0.765625,0.546875 -1.328125,1.625 -1.5625,3.03125 -0.21875,1.296875 -0.0625,2.328125 0.4375,2.890625 C 1.75,-0.078125 2.1875,0.125 2.609375,0.125 3,0.125 3.421875,-0.03125 3.84375,-0.34375 4.609375,-0.890625 5.15625,-1.953125 5.390625,-3.296875 5.609375,-4.671875 5.46875,-5.6875 4.96875,-6.265625 4.640625,-6.625 4.21875,-6.84375 3.78125,-6.84375 Z m 0.546875,3.734375 c -0.21875,1.140625 -0.4375,1.78125 -0.8125,2.3125 -0.234375,0.3125 -0.59375,0.53125 -0.84375,0.53125 -0.265625,0 -0.53125,-0.234375 -0.65625,-0.53125 C 1.8125,-1.328125 1.796875,-1.96875 1.96875,-3.109375 Z M 2.0625,-3.671875 C 2.265625,-4.75 2.515625,-5.40625 2.875,-5.9375 c 0.21875,-0.296875 0.578125,-0.53125 0.828125,-0.53125 0.25,0 0.546875,0.234375 0.65625,0.53125 0.203125,0.53125 0.21875,1.1875 0.0625,2.265625 z m 0,0"
             style="stroke:none;stroke-width:0"
             inkscape:connector-curvature="0" />
        </g>
        <g
           id="g3981"
           style="fill:#000000;fill-opacity:1">
          <path
             id="path3979"
             transform="translate(170.21,134.433)"
             d="m 3.78125,-6.84375 c -0.390625,0 -0.828125,0.171875 -1.234375,0.46875 -0.765625,0.546875 -1.328125,1.625 -1.5625,3.03125 -0.21875,1.296875 -0.0625,2.328125 0.4375,2.890625 C 1.75,-0.078125 2.1875,0.125 2.609375,0.125 3,0.125 3.421875,-0.03125 3.84375,-0.34375 4.609375,-0.890625 5.15625,-1.953125 5.390625,-3.296875 5.609375,-4.671875 5.46875,-5.6875 4.96875,-6.265625 4.640625,-6.625 4.21875,-6.84375 3.78125,-6.84375 Z m 0.546875,3.734375 c -0.21875,1.140625 -0.4375,1.78125 -0.8125,2.3125 -0.234375,0.3125 -0.59375,0.53125 -0.84375,0.53125 -0.265625,0 -0.53125,-0.234375 -0.65625,-0.53125 C 1.8125,-1.328125 1.796875,-1.96875 1.96875,-3.109375 Z M 2.0625,-3.671875 C 2.265625,-4.75 2.515625,-5.40625 2.875,-5.9375 c 0.21875,-0.296875 0.578125,-0.53125 0.828125,-0.53125 0.25,0 0.546875,0.234375 0.65625,0.53125 0.203125,0.53125 0.21875,1.1875 0.0625,2.265625 z m 0,0"
             style="stroke:none;stroke-width:0"
             inkscape:connector-curvature="0" />
        </g>
        <g
           id="g3985"
           style="fill:#000000;fill-opacity:1">
          <path
             id="path3983"
             transform="translate(170.431,134.765)"
             d="m 3.78125,-6.84375 c -0.390625,0 -0.828125,0.171875 -1.234375,0.46875 -0.765625,0.546875 -1.328125,1.625 -1.5625,3.03125 -0.21875,1.296875 -0.0625,2.328125 0.4375,2.890625 C 1.75,-0.078125 2.1875,0.125 2.609375,0.125 3,0.125 3.421875,-0.03125 3.84375,-0.34375 4.609375,-0.890625 5.15625,-1.953125 5.390625,-3.296875 5.609375,-4.671875 5.46875,-5.6875 4.96875,-6.265625 4.640625,-6.625 4.21875,-6.84375 3.78125,-6.84375 Z m 0.546875,3.734375 c -0.21875,1.140625 -0.4375,1.78125 -0.8125,2.3125 -0.234375,0.3125 -0.59375,0.53125 -0.84375,0.53125 -0.265625,0 -0.53125,-0.234375 -0.65625,-0.53125 C 1.8125,-1.328125 1.796875,-1.96875 1.96875,-3.109375 Z M 2.0625,-3.671875 C 2.265625,-4.75 2.515625,-5.40625 2.875,-5.9375 c 0.21875,-0.296875 0.578125,-0.53125 0.828125,-0.53125 0.25,0 0.546875,0.234375 0.65625,0.53125 0.203125,0.53125 0.21875,1.1875 0.0625,2.265625 z m 0,0"
             style="stroke:none;stroke-width:0"
             inkscape:connector-curvature="0" />
        </g>
        <g
           id="g3989"
           style="fill:#000000;fill-opacity:1">
          <path
             id="path3987"
             transform="translate(176.768,134.765)"
             d="m 2.875,-2.5 c 0,-0.765625 -0.109375,-1.96875 -0.65625,-3.109375 -0.59375,-1.21875 -1.453125,-1.875 -1.546875,-1.875 -0.0625,0 -0.109375,0.046875 -0.109375,0.109375 0,0.03125 0,0.046875 0.1875,0.234375 0.984375,0.984375 1.546875,2.5625 1.546875,4.640625 0,1.71875 -0.359375,3.46875 -1.59375,4.71875 C 0.5625,2.34375 0.5625,2.359375 0.5625,2.390625 0.5625,2.453125 0.609375,2.5 0.671875,2.5 0.765625,2.5 1.671875,1.8125 2.25,0.546875 2.765625,-0.546875 2.875,-1.65625 2.875,-2.5 Z m 0,0"
             style="stroke:none;stroke-width:0"
             inkscape:connector-curvature="0" />
        </g>
      </g>
    </g>
    <g
       id="g4137"
       ns1:jacobian_sqrt="1.333333"
       inkscapeversion="0.92.4"
       ns1:alignment="middle center"
       ns1:scale="1.0"
       ns1:preamble="/home/david/.config/inkscape/extensions/textext/default_packages.tex"
       ns1:text="$u(s)$"
       ns1:pdfconverter="pdf2svg"
       ns1:texconverter="pdflatex"
       ns1:version="0.11.0"
       transform="matrix(1.333333,0,0,1.333333,-65.467312,217.51812)">
      <g
         id="g4135">
        <g
           id="g4121"
           style="fill:#000000;fill-opacity:1">
          <path
             id="path4119"
             transform="translate(148.712,134.765)"
             d="M 4.59375,-1.171875 C 4.078125,-0.515625 3.921875,-0.375 3.765625,-0.375 c -0.0625,0 -0.109375,-0.0625 -0.109375,-0.171875 0,-0.0625 0,-0.0625 0.1875,-0.78125 L 4.640625,-4.3125 h -0.75 c -0.5625,1.546875 -0.625,1.703125 -1.09375,2.4375 -0.59375,0.953125 -1.078125,1.453125 -1.40625,1.453125 -0.109375,0 -0.203125,-0.09375 -0.203125,-0.25 0,-0.03125 0,-0.0625 0.015625,-0.078125 l 0.90625,-3.625 -0.03125,-0.015625 c -0.578125,0.125 -0.9375,0.1875 -1.5,0.265625 v 0.140625 c 0.375,0 0.40625,0 0.484375,0.0625 C 1.125,-3.90625 1.171875,-3.8125 1.171875,-3.75 c 0,0.078125 -0.046875,0.328125 -0.140625,0.671875 l -0.359375,1.40625 c -0.1875,0.71875 -0.25,1.046875 -0.25,1.234375 0,0.359375 0.171875,0.546875 0.53125,0.546875 0.703125,0 1.234375,-0.53125 2.375,-2.46875 C 3.046875,-1.28125 2.875,-0.59375 2.875,-0.390625 c 0,0.296875 0.1875,0.484375 0.484375,0.484375 0.46875,0 0.703125,-0.203125 1.375,-1.171875 z m 0,0"
             style="stroke:none;stroke-width:0"
             inkscape:connector-curvature="0" />
        </g>
        <g
           id="g4125"
           style="fill:#000000;fill-opacity:1">
          <path
             id="path4123"
             transform="translate(153.694,134.765)"
             d="m 3.296875,2.390625 c 0,-0.03125 0,-0.046875 -0.171875,-0.21875 C 1.890625,0.921875 1.5625,-0.96875 1.5625,-2.5 c 0,-1.734375 0.375,-3.46875 1.609375,-4.703125 0.125,-0.125 0.125,-0.140625 0.125,-0.171875 0,-0.078125 -0.03125,-0.109375 -0.09375,-0.109375 -0.109375,0 -1,0.6875 -1.59375,1.953125 -0.5,1.09375 -0.625,2.203125 -0.625,3.03125 0,0.78125 0.109375,1.984375 0.65625,3.125 C 2.25,1.84375 3.09375,2.5 3.203125,2.5 c 0.0625,0 0.09375,-0.03125 0.09375,-0.109375 z m 0,0"
             style="stroke:none;stroke-width:0"
             inkscape:connector-curvature="0" />
        </g>
        <g
           id="g4129"
           style="fill:#000000;fill-opacity:1">
          <path
             id="path4127"
             transform="translate(157.559,134.765)"
             d="M 0.359375,-1.453125 0.15625,0.125 H 0.3125 c 0.09375,-0.15625 0.140625,-0.203125 0.25,-0.203125 0.109375,0 0.28125,0.03125 0.484375,0.09375 0.21875,0.0625 0.390625,0.09375 0.546875,0.09375 0.84375,0 1.4375,-0.53125 1.4375,-1.296875 C 3.03125,-1.5625 2.828125,-2 2.359375,-2.578125 1.96875,-3.046875 1.8125,-3.359375 1.8125,-3.625 c 0,-0.328125 0.21875,-0.546875 0.5625,-0.546875 0.515625,0 0.8125,0.375 0.921875,1.15625 h 0.15625 L 3.65625,-4.40625 H 3.515625 c -0.09375,0.140625 -0.171875,0.171875 -0.3125,0.171875 -0.0625,0 -0.15625,-0.015625 -0.359375,-0.0625 -0.234375,-0.078125 -0.390625,-0.09375 -0.546875,-0.09375 -0.734375,0 -1.203125,0.421875 -1.203125,1.09375 0,0.3125 0.203125,0.75 0.625,1.28125 C 2.109375,-1.5 2.265625,-1.15625 2.265625,-0.875 c 0,0.453125 -0.296875,0.78125 -0.734375,0.78125 -0.546875,0 -0.859375,-0.421875 -1.015625,-1.359375 z m 0,0"
             style="stroke:none;stroke-width:0"
             inkscape:connector-curvature="0" />
        </g>
        <g
           id="g4133"
           style="fill:#000000;fill-opacity:1">
          <path
             id="path4131"
             transform="translate(161.434,134.765)"
             d="m 2.875,-2.5 c 0,-0.765625 -0.109375,-1.96875 -0.65625,-3.109375 -0.59375,-1.21875 -1.453125,-1.875 -1.546875,-1.875 -0.0625,0 -0.109375,0.046875 -0.109375,0.109375 0,0.03125 0,0.046875 0.1875,0.234375 0.984375,0.984375 1.546875,2.5625 1.546875,4.640625 0,1.71875 -0.359375,3.46875 -1.59375,4.71875 C 0.5625,2.34375 0.5625,2.359375 0.5625,2.390625 0.5625,2.453125 0.609375,2.5 0.671875,2.5 0.765625,2.5 1.671875,1.8125 2.25,0.546875 2.765625,-0.546875 2.875,-1.65625 2.875,-2.5 Z m 0,0"
             style="stroke:none;stroke-width:0"
             inkscape:connector-curvature="0" />
        </g>
      </g>
    </g>
    <g
       id="g4281"
       ns1:jacobian_sqrt="1.333333"
       inkscapeversion="0.92.4"
       ns1:alignment="middle center"
       ns1:scale="1.0"
       ns1:preamble="/home/david/.config/inkscape/extensions/textext/default_packages.tex"
       ns1:text="$y(s)$"
       ns1:pdfconverter="pdf2svg"
       ns1:texconverter="pdflatex"
       ns1:version="0.11.0"
       transform="matrix(1.333333,0,0,1.333333,-150.93305,325.53293)">
      <g
         id="g4279">
        <g
           id="g4265"
           style="fill:#000000;fill-opacity:1">
          <path
             id="path4263"
             transform="translate(148.712,134.765)"
             d="m 0.15625,-3.984375 c 0.125,-0.03125 0.1875,-0.046875 0.296875,-0.046875 0.578125,0 0.71875,0.25 1.1875,1.96875 0.15625,0.640625 0.40625,1.8125 0.40625,1.984375 0,0.15625 -0.0625,0.3125 -0.21875,0.5 -0.296875,0.40625 -0.5,0.671875 -0.609375,0.78125 C 1,1.421875 0.890625,1.5 0.75,1.5 0.703125,1.5 0.625,1.46875 0.515625,1.390625 0.375,1.28125 0.265625,1.21875 0.15625,1.21875 c -0.21875,0 -0.390625,0.171875 -0.390625,0.390625 0,0.25 0.21875,0.4375 0.5,0.4375 0.640625,0 1.953125,-1.484375 3.03125,-3.46875 C 3.96875,-2.640625 4.25,-3.359375 4.25,-3.84375 4.25,-4.140625 4,-4.390625 3.703125,-4.390625 3.46875,-4.390625 3.3125,-4.25 3.3125,-4.03125 c 0,0.15625 0.078125,0.265625 0.28125,0.390625 0.1875,0.109375 0.25,0.203125 0.25,0.34375 0,0.390625 -0.359375,1.171875 -1.21875,2.578125 L 2.4375,-1.875 C 2.28125,-2.75 1.71875,-4.390625 1.578125,-4.390625 H 1.53125 c 0,0 -0.046875,0 -0.078125,0 C 1.359375,-4.375 1,-4.3125 0.46875,-4.21875 c -0.046875,0.015625 -0.171875,0.046875 -0.3125,0.0625 z m 0,0"
             style="stroke:none;stroke-width:0"
             inkscape:connector-curvature="0" />
        </g>
        <g
           id="g4269"
           style="fill:#000000;fill-opacity:1">
          <path
             id="path4267"
             transform="translate(153.136,134.765)"
             d="m 3.296875,2.390625 c 0,-0.03125 0,-0.046875 -0.171875,-0.21875 C 1.890625,0.921875 1.5625,-0.96875 1.5625,-2.5 c 0,-1.734375 0.375,-3.46875 1.609375,-4.703125 0.125,-0.125 0.125,-0.140625 0.125,-0.171875 0,-0.078125 -0.03125,-0.109375 -0.09375,-0.109375 -0.109375,0 -1,0.6875 -1.59375,1.953125 -0.5,1.09375 -0.625,2.203125 -0.625,3.03125 0,0.78125 0.109375,1.984375 0.65625,3.125 C 2.25,1.84375 3.09375,2.5 3.203125,2.5 c 0.0625,0 0.09375,-0.03125 0.09375,-0.109375 z m 0,0"
             style="stroke:none;stroke-width:0"
             inkscape:connector-curvature="0" />
        </g>
        <g
           id="g4273"
           style="fill:#000000;fill-opacity:1">
          <path
             id="path4271"
             transform="translate(157.001,134.765)"
             d="M 0.359375,-1.453125 0.15625,0.125 H 0.3125 c 0.09375,-0.15625 0.140625,-0.203125 0.25,-0.203125 0.109375,0 0.28125,0.03125 0.484375,0.09375 0.21875,0.0625 0.390625,0.09375 0.546875,0.09375 0.84375,0 1.4375,-0.53125 1.4375,-1.296875 C 3.03125,-1.5625 2.828125,-2 2.359375,-2.578125 1.96875,-3.046875 1.8125,-3.359375 1.8125,-3.625 c 0,-0.328125 0.21875,-0.546875 0.5625,-0.546875 0.515625,0 0.8125,0.375 0.921875,1.15625 h 0.15625 L 3.65625,-4.40625 H 3.515625 c -0.09375,0.140625 -0.171875,0.171875 -0.3125,0.171875 -0.0625,0 -0.15625,-0.015625 -0.359375,-0.0625 -0.234375,-0.078125 -0.390625,-0.09375 -0.546875,-0.09375 -0.734375,0 -1.203125,0.421875 -1.203125,1.09375 0,0.3125 0.203125,0.75 0.625,1.28125 C 2.109375,-1.5 2.265625,-1.15625 2.265625,-0.875 c 0,0.453125 -0.296875,0.78125 -0.734375,0.78125 -0.546875,0 -0.859375,-0.421875 -1.015625,-1.359375 z m 0,0"
             style="stroke:none;stroke-width:0"
             inkscape:connector-curvature="0" />
        </g>
        <g
           id="g4277"
           style="fill:#000000;fill-opacity:1">
          <path
             id="path4275"
             transform="translate(160.876,134.765)"
             d="m 2.875,-2.5 c 0,-0.765625 -0.109375,-1.96875 -0.65625,-3.109375 -0.59375,-1.21875 -1.453125,-1.875 -1.546875,-1.875 -0.0625,0 -0.109375,0.046875 -0.109375,0.109375 0,0.03125 0,0.046875 0.1875,0.234375 0.984375,0.984375 1.546875,2.5625 1.546875,4.640625 0,1.71875 -0.359375,3.46875 -1.59375,4.71875 C 0.5625,2.34375 0.5625,2.359375 0.5625,2.390625 0.5625,2.453125 0.609375,2.5 0.671875,2.5 0.765625,2.5 1.671875,1.8125 2.25,0.546875 2.765625,-0.546875 2.875,-1.65625 2.875,-2.5 Z m 0,0"
             style="stroke:none;stroke-width:0"
             inkscape:connector-curvature="0" />
        </g>
      </g>
    </g>
  </g>
</svg>
