<?xml version="1.0" encoding="UTF-8" standalone="no"?>
<!-- Created with Inkscape (http://www.inkscape.org/) -->

<svg
   xmlns:ns1="http://www.iki.fi/pav/software/textext/"
   xmlns:dc="http://purl.org/dc/elements/1.1/"
   xmlns:cc="http://creativecommons.org/ns#"
   xmlns:rdf="http://www.w3.org/1999/02/22-rdf-syntax-ns#"
   xmlns:svg="http://www.w3.org/2000/svg"
   xmlns="http://www.w3.org/2000/svg"
   xmlns:sodipodi="http://sodipodi.sourceforge.net/DTD/sodipodi-0.dtd"
   xmlns:inkscape="http://www.inkscape.org/namespaces/inkscape"
   width="53.858261mm"
   height="39.507618mm"
   viewBox="0 0 53.858261 39.507618"
   version="1.1"
   id="svg8"
   inkscape:version="0.92.4 (5da689c313, 2019-01-14)"
   sodipodi:docname="Ch5GeneralPareto.svg">
  <defs
     id="defs2" />
  <sodipodi:namedview
     id="base"
     pagecolor="#ffffff"
     bordercolor="#666666"
     borderopacity="1.0"
     inkscape:pageopacity="0.0"
     inkscape:pageshadow="2"
     inkscape:zoom="2.8284271"
     inkscape:cx="98.871508"
     inkscape:cy="63.65872"
     inkscape:document-units="mm"
     inkscape:current-layer="layer1"
     showgrid="false"
     inkscape:window-width="1366"
     inkscape:window-height="704"
     inkscape:window-x="0"
     inkscape:window-y="27"
     inkscape:window-maximized="1"
     fit-margin-top="0"
     fit-margin-left="0"
     fit-margin-right="0"
     fit-margin-bottom="0" />
  <metadata
     id="metadata5">
    <rdf:RDF>
      <cc:Work
         rdf:about="">
        <dc:format>image/svg+xml</dc:format>
        <dc:type
           rdf:resource="http://purl.org/dc/dcmitype/StillImage" />
        <dc:title></dc:title>
      </cc:Work>
    </rdf:RDF>
  </metadata>
  <g
     inkscape:label="Capa 1"
     inkscape:groupmode="layer"
     id="layer1"
     transform="translate(-33.926597,-29.782823)">
    <path
       style="fill:none;stroke:#000000;stroke-width:0.26458332px;stroke-linecap:butt;stroke-linejoin:miter;stroke-opacity:1"
       d="m 40.431467,29.782823 v 34.96717"
       id="path815"
       inkscape:connector-curvature="0" />
    <path
       style="fill:none;stroke:#000000;stroke-width:0.26458332px;stroke-linecap:butt;stroke-linejoin:miter;stroke-opacity:1"
       d="M 40.431467,64.749993 H 87.784859"
       id="path817"
       inkscape:connector-curvature="0" />
    <g
       id="g941"
       ns1:jacobian_sqrt="0.267082"
       inkscapeversion="0.92.4"
       ns1:alignment="middle center"
       ns1:scale="0.757082180782"
       ns1:preamble="/home/david/.config/inkscape/extensions/textext/default_packages.tex"
       ns1:text="$f_1(\\mathbf{x})$"
       ns1:pdfconverter="pdf2svg"
       ns1:texconverter="pdflatex"
       ns1:version="0.11.0"
       transform="matrix(0.267082,0,0,0.267082,42.384236,32.62943)">
      <g
         id="surface1">
        <g
           id="g922"
           style="fill:#000000;fill-opacity:1">
          <path
             id="path920"
             transform="translate(150.207,134.765)"
             d="M 0.34375,-3.953125 H 1.25 l -0.875,4.1875 c -0.21875,1.078125 -0.546875,1.625 -0.96875,1.625 -0.125,0 -0.203125,-0.078125 -0.203125,-0.171875 0,-0.015625 0.015625,-0.046875 0.046875,-0.109375 0.03125,-0.046875 0.046875,-0.09375 0.046875,-0.15625 0,-0.203125 -0.1875,-0.375 -0.390625,-0.375 -0.21875,0 -0.375,0.171875 -0.375,0.40625 0,0.34375 0.359375,0.609375 0.796875,0.609375 0.875,0 1.578125,-0.984375 1.984375,-2.8125 L 2.03125,-3.953125 H 3.125 l 0.0625,-0.3125 H 2.109375 c 0.28125,-1.5625 0.65625,-2.28125 1.203125,-2.28125 0.140625,0 0.21875,0.0625 0.21875,0.125 0,0.03125 0,0.046875 -0.03125,0.109375 -0.046875,0.078125 -0.0625,0.125 -0.0625,0.203125 0,0.234375 0.15625,0.390625 0.375,0.390625 0.21875,0 0.421875,-0.171875 0.421875,-0.390625 0,-0.375 -0.375,-0.65625 -0.859375,-0.65625 -0.5,0 -0.875,0.21875 -1.234375,0.6875 -0.3125,0.390625 -0.5,0.859375 -0.8125,1.8125 h -0.90625 z m 0,0"
             style="stroke:none;stroke-width:0"
             inkscape:connector-curvature="0" />
        </g>
        <g
           id="g926"
           style="fill:#000000;fill-opacity:1">
          <path
             id="path924"
             transform="translate(153.225,136.27)"
             d="M 2.140625,-4.984375 0.8125,-4.3125 v 0.09375 C 0.90625,-4.25 0.984375,-4.28125 1.015625,-4.296875 1.15625,-4.34375 1.28125,-4.375 1.34375,-4.375 c 0.15625,0 0.234375,0.109375 0.234375,0.34375 v 3.34375 c 0,0.25 -0.0625,0.421875 -0.1875,0.484375 C 1.28125,-0.140625 1.1875,-0.125 0.875,-0.109375 V 0 H 2.90625 V -0.109375 C 2.328125,-0.125 2.203125,-0.1875 2.203125,-0.546875 V -4.96875 Z m 0,0"
             style="stroke:none;stroke-width:0"
             inkscape:connector-curvature="0" />
        </g>
        <g
           id="g930"
           style="fill:#000000;fill-opacity:1">
          <path
             id="path928"
             transform="translate(157.41,134.765)"
             d="m 3.296875,2.390625 c 0,-0.03125 0,-0.046875 -0.171875,-0.21875 C 1.890625,0.921875 1.5625,-0.96875 1.5625,-2.5 c 0,-1.734375 0.375,-3.46875 1.609375,-4.703125 0.125,-0.125 0.125,-0.140625 0.125,-0.171875 0,-0.078125 -0.03125,-0.109375 -0.09375,-0.109375 -0.109375,0 -1,0.6875 -1.59375,1.953125 -0.5,1.09375 -0.625,2.203125 -0.625,3.03125 0,0.78125 0.109375,1.984375 0.65625,3.125 C 2.25,1.84375 3.09375,2.5 3.203125,2.5 c 0.0625,0 0.09375,-0.03125 0.09375,-0.109375 z m 0,0"
             style="stroke:none;stroke-width:0"
             inkscape:connector-curvature="0" />
        </g>
        <g
           id="g934"
           style="fill:#000000;fill-opacity:1">
          <path
             id="path932"
             transform="translate(161.275,134.765)"
             d="M 4.828125,-0.234375 C 4.671875,-0.296875 4.59375,-0.328125 4.53125,-0.4375 L 3.046875,-2.71875 4.0625,-3.96875 C 4.25,-4.203125 4.453125,-4.3125 4.75,-4.359375 V -4.59375 H 3.078125 v 0.234375 C 3.171875,-4.34375 3.25,-4.34375 3.28125,-4.34375 c 0.234375,0.015625 0.3125,0.078125 0.3125,0.234375 0,0.140625 -0.109375,0.3125 -0.390625,0.625 C 3.15625,-3.421875 3,-3.234375 2.84375,-3.015625 2.796875,-3.09375 2.75,-3.15625 2.71875,-3.1875 2.40625,-3.609375 2.140625,-4.03125 2.140625,-4.171875 c 0,-0.109375 0.140625,-0.171875 0.46875,-0.1875 V -4.59375 H 0.125 v 0.234375 c 0.25,0.046875 0.3125,0.09375 0.515625,0.390625 L 1.90625,-2 c -0.28125,0.359375 -0.546875,0.6875 -0.640625,0.828125 -0.5625,0.75 -0.75,0.90625 -1.125,0.9375 V 0 h 1.6875 v -0.234375 c -0.359375,-0.03125 -0.5,-0.09375 -0.5,-0.25 0,-0.140625 0.25,-0.5625 0.640625,-1.015625 0.015625,-0.03125 0.078125,-0.109375 0.15625,-0.203125 0.1875,0.28125 0.359375,0.53125 0.421875,0.625 C 2.765625,-0.75 2.875,-0.5625 2.875,-0.4375 c 0,0.125 -0.140625,0.171875 -0.453125,0.203125 V 0 h 2.40625 z m 0,0"
             style="stroke:none;stroke-width:0"
             inkscape:connector-curvature="0" />
        </g>
        <g
           id="g938"
           style="fill:#000000;fill-opacity:1">
          <path
             id="path936"
             transform="translate(166.256,134.765)"
             d="m 2.875,-2.5 c 0,-0.765625 -0.109375,-1.96875 -0.65625,-3.109375 -0.59375,-1.21875 -1.453125,-1.875 -1.546875,-1.875 -0.0625,0 -0.109375,0.046875 -0.109375,0.109375 0,0.03125 0,0.046875 0.1875,0.234375 0.984375,0.984375 1.546875,2.5625 1.546875,4.640625 0,1.71875 -0.359375,3.46875 -1.59375,4.71875 C 0.5625,2.34375 0.5625,2.359375 0.5625,2.390625 0.5625,2.453125 0.609375,2.5 0.671875,2.5 0.765625,2.5 1.671875,1.8125 2.25,0.546875 2.765625,-0.546875 2.875,-1.65625 2.875,-2.5 Z m 0,0"
             style="stroke:none;stroke-width:0"
             inkscape:connector-curvature="0" />
        </g>
      </g>
    </g>
    <g
       id="g1045"
       ns1:jacobian_sqrt="0.267082"
       inkscapeversion="0.92.4"
       ns1:alignment="middle center"
       ns1:scale="0.757082209128"
       ns1:preamble="/home/david/.config/inkscape/extensions/textext/default_packages.tex"
       ns1:text="$f_2(\\mathbf{x})$"
       ns1:pdfconverter="pdf2svg"
       ns1:texconverter="pdflatex"
       ns1:version="0.11.0"
       transform="matrix(0.267082,0,0,0.267082,-4.7403787,-5.5427777)">
      <g
         id="g1043"
         transform="translate(-3.9625782,5.9438673)">
        <g
           id="g1025"
           style="fill:#000000;fill-opacity:1">
          <path
             id="path1023"
             transform="translate(150.207,134.765)"
             d="M 0.34375,-3.953125 H 1.25 l -0.875,4.1875 c -0.21875,1.078125 -0.546875,1.625 -0.96875,1.625 -0.125,0 -0.203125,-0.078125 -0.203125,-0.171875 0,-0.015625 0.015625,-0.046875 0.046875,-0.109375 0.03125,-0.046875 0.046875,-0.09375 0.046875,-0.15625 0,-0.203125 -0.1875,-0.375 -0.390625,-0.375 -0.21875,0 -0.375,0.171875 -0.375,0.40625 0,0.34375 0.359375,0.609375 0.796875,0.609375 0.875,0 1.578125,-0.984375 1.984375,-2.8125 L 2.03125,-3.953125 H 3.125 l 0.0625,-0.3125 H 2.109375 c 0.28125,-1.5625 0.65625,-2.28125 1.203125,-2.28125 0.140625,0 0.21875,0.0625 0.21875,0.125 0,0.03125 0,0.046875 -0.03125,0.109375 -0.046875,0.078125 -0.0625,0.125 -0.0625,0.203125 0,0.234375 0.15625,0.390625 0.375,0.390625 0.21875,0 0.421875,-0.171875 0.421875,-0.390625 0,-0.375 -0.375,-0.65625 -0.859375,-0.65625 -0.5,0 -0.875,0.21875 -1.234375,0.6875 -0.3125,0.390625 -0.5,0.859375 -0.8125,1.8125 h -0.90625 z m 0,0"
             style="stroke:none;stroke-width:0"
             inkscape:connector-curvature="0" />
        </g>
        <g
           id="g1029"
           style="fill:#000000;fill-opacity:1">
          <path
             id="path1027"
             transform="translate(153.225,136.27)"
             d="M 3.5,-1.015625 3.40625,-1.046875 C 3.140625,-0.625 3.03125,-0.5625 2.703125,-0.5625 H 0.9375 l 1.25,-1.296875 c 0.65625,-0.6875 0.9375,-1.25 0.9375,-1.828125 0,-0.734375 -0.59375,-1.296875 -1.359375,-1.296875 -0.40625,0 -0.796875,0.15625 -1.0625,0.453125 -0.234375,0.25 -0.34375,0.484375 -0.46875,1.015625 l 0.15625,0.03125 c 0.28125,-0.71875 0.546875,-0.953125 1.0625,-0.953125 0.625,0 1.046875,0.421875 1.046875,1.03125 0,0.578125 -0.34375,1.265625 -0.96875,1.921875 L 0.21875,-0.09375 V 0 h 2.875 z m 0,0"
             style="stroke:none;stroke-width:0"
             inkscape:connector-curvature="0" />
        </g>
        <g
           id="g1033"
           style="fill:#000000;fill-opacity:1">
          <path
             id="path1031"
             transform="translate(157.41,134.765)"
             d="m 3.296875,2.390625 c 0,-0.03125 0,-0.046875 -0.171875,-0.21875 C 1.890625,0.921875 1.5625,-0.96875 1.5625,-2.5 c 0,-1.734375 0.375,-3.46875 1.609375,-4.703125 0.125,-0.125 0.125,-0.140625 0.125,-0.171875 0,-0.078125 -0.03125,-0.109375 -0.09375,-0.109375 -0.109375,0 -1,0.6875 -1.59375,1.953125 -0.5,1.09375 -0.625,2.203125 -0.625,3.03125 0,0.78125 0.109375,1.984375 0.65625,3.125 C 2.25,1.84375 3.09375,2.5 3.203125,2.5 c 0.0625,0 0.09375,-0.03125 0.09375,-0.109375 z m 0,0"
             style="stroke:none;stroke-width:0"
             inkscape:connector-curvature="0" />
        </g>
        <g
           id="g1037"
           style="fill:#000000;fill-opacity:1">
          <path
             id="path1035"
             transform="translate(161.275,134.765)"
             d="M 4.828125,-0.234375 C 4.671875,-0.296875 4.59375,-0.328125 4.53125,-0.4375 L 3.046875,-2.71875 4.0625,-3.96875 C 4.25,-4.203125 4.453125,-4.3125 4.75,-4.359375 V -4.59375 H 3.078125 v 0.234375 C 3.171875,-4.34375 3.25,-4.34375 3.28125,-4.34375 c 0.234375,0.015625 0.3125,0.078125 0.3125,0.234375 0,0.140625 -0.109375,0.3125 -0.390625,0.625 C 3.15625,-3.421875 3,-3.234375 2.84375,-3.015625 2.796875,-3.09375 2.75,-3.15625 2.71875,-3.1875 2.40625,-3.609375 2.140625,-4.03125 2.140625,-4.171875 c 0,-0.109375 0.140625,-0.171875 0.46875,-0.1875 V -4.59375 H 0.125 v 0.234375 c 0.25,0.046875 0.3125,0.09375 0.515625,0.390625 L 1.90625,-2 c -0.28125,0.359375 -0.546875,0.6875 -0.640625,0.828125 -0.5625,0.75 -0.75,0.90625 -1.125,0.9375 V 0 h 1.6875 v -0.234375 c -0.359375,-0.03125 -0.5,-0.09375 -0.5,-0.25 0,-0.140625 0.25,-0.5625 0.640625,-1.015625 0.015625,-0.03125 0.078125,-0.109375 0.15625,-0.203125 0.1875,0.28125 0.359375,0.53125 0.421875,0.625 C 2.765625,-0.75 2.875,-0.5625 2.875,-0.4375 c 0,0.125 -0.140625,0.171875 -0.453125,0.203125 V 0 h 2.40625 z m 0,0"
             style="stroke:none;stroke-width:0"
             inkscape:connector-curvature="0" />
        </g>
        <g
           id="g1041"
           style="fill:#000000;fill-opacity:1">
          <path
             id="path1039"
             transform="translate(166.256,134.765)"
             d="m 2.875,-2.5 c 0,-0.765625 -0.109375,-1.96875 -0.65625,-3.109375 -0.59375,-1.21875 -1.453125,-1.875 -1.546875,-1.875 -0.0625,0 -0.109375,0.046875 -0.109375,0.109375 0,0.03125 0,0.046875 0.1875,0.234375 0.984375,0.984375 1.546875,2.5625 1.546875,4.640625 0,1.71875 -0.359375,3.46875 -1.59375,4.71875 C 0.5625,2.34375 0.5625,2.359375 0.5625,2.390625 0.5625,2.453125 0.609375,2.5 0.671875,2.5 0.765625,2.5 1.671875,1.8125 2.25,0.546875 2.765625,-0.546875 2.875,-1.65625 2.875,-2.5 Z m 0,0"
             style="stroke:none;stroke-width:0"
             inkscape:connector-curvature="0" />
        </g>
      </g>
    </g>
    <path
       style="fill:none;stroke:#b10000;stroke-width:0.40000001;stroke-linecap:butt;stroke-linejoin:miter;stroke-miterlimit:4;stroke-dasharray:none;stroke-opacity:1"
       d="m 44.081685,33.141335 c 0.844533,6.840569 12.301802,11.182136 14.90356,15.368619 4.329054,6.965871 8.264415,13.304222 25.03639,13.623697"
       id="path819"
       inkscape:connector-curvature="0"
       sodipodi:nodetypes="csc" />
    <path
       style="fill:none;stroke:#7d7d7d;stroke-width:0.2;stroke-linecap:butt;stroke-linejoin:miter;stroke-miterlimit:4;stroke-dasharray:0.2, 0.8;stroke-dashoffset:0;stroke-opacity:1"
       d="m 44.081685,33.141335 v 28.992316 h 39.93995"
       id="path1065"
       inkscape:connector-curvature="0"
       sodipodi:nodetypes="ccc" />
    <text
       xml:space="preserve"
       style="font-style:normal;font-weight:normal;font-size:3.52777767px;line-height:1.25;font-family:sans-serif;letter-spacing:0px;word-spacing:0px;fill:#000000;fill-opacity:1;stroke:none;stroke-width:0.26458332"
       x="44.946674"
       y="61.154655"
       id="text1069"><tspan
         sodipodi:role="line"
         id="tspan1067"
         x="44.946674"
         y="61.154655"
         style="font-style:normal;font-variant:normal;font-weight:normal;font-stretch:normal;font-size:2.11666656px;font-family:serif;-inkscape-font-specification:serif;stroke-width:0.26458332">utopia point</tspan></text>
    <ellipse
       style="fill:#000000;fill-opacity:1;stroke:#000000;stroke-width:0.2;stroke-linecap:round;stroke-miterlimit:4;stroke-dasharray:none;stroke-dashoffset:0;stroke-opacity:1"
       id="path1071"
       cx="44.037136"
       cy="62.16613"
       rx="0.37913662"
       ry="0.37906885" />
    <ellipse
       style="fill:#060096;fill-opacity:1;stroke:#000000;stroke-width:0.2;stroke-linecap:round;stroke-miterlimit:4;stroke-dasharray:none;stroke-dashoffset:0;stroke-opacity:1"
       id="path1071-9"
       cx="59.005215"
       cy="48.521408"
       rx="0.37913662"
       ry="0.37906885" />
    <g
       id="g1153"
       ns1:jacobian_sqrt="0.267082"
       inkscapeversion="0.92.4"
       ns1:alignment="middle center"
       ns1:scale="0.757082209128"
       ns1:preamble="/home/david/.config/inkscape/extensions/textext/default_packages.tex"
       ns1:text="$p_1$"
       ns1:pdfconverter="pdf2svg"
       ns1:texconverter="pdflatex"
       ns1:version="0.11.0"
       transform="matrix(0.267082,0,0,0.267082,19.867554,11.726363)">
      <g
         id="g1151">
        <g
           id="g1145"
           style="fill:#000000;fill-opacity:1">
          <path
             id="path1143"
             transform="translate(149.46,134.765)"
             d="m 0.5625,-4.03125 h 0.21875 c 0,0 0.03125,0 0.03125,0 0.140625,-0.0625 0.390625,0.125 0.390625,0.265625 C 1.203125,-3.671875 0.84375,-2.25 0.5,-0.9375 0.234375,0.0625 -0.015625,1 -0.078125,1.296875 -0.1875,1.75 -0.3125,1.875 -0.75,1.890625 v 0.15625 h 2.046875 v -0.15625 c -0.46875,0 -0.640625,-0.09375 -0.640625,-0.296875 0,-0.140625 0.171875,-0.921875 0.375,-1.65625 0.25,0.125 0.421875,0.171875 0.65625,0.171875 1.453125,0 2.984375,-1.671875 2.984375,-3.265625 0,-0.765625 -0.4375,-1.234375 -1.140625,-1.234375 -0.65625,0 -1.125,0.3125 -1.703125,1.125 l 0.28125,-1 0.03125,-0.09375 c 0,0 0,0 -0.015625,-0.03125 H 2.109375 c 0,-0.015625 -0.015625,-0.015625 -0.015625,-0.015625 l -0.015625,0.015625 -1.546875,0.21875 z m 2.59375,0.0625 c 0.4375,0.015625 0.625,0.28125 0.625,0.859375 0,0.65625 -0.296875,1.515625 -0.71875,2.125 -0.421875,0.59375 -0.90625,0.90625 -1.421875,0.90625 -0.28125,0 -0.46875,-0.15625 -0.46875,-0.375 0,-0.328125 0.359375,-1.640625 0.640625,-2.375 C 2.078125,-3.515625 2.65625,-4 3.15625,-3.96875 Z m 0,0"
             style="stroke:none;stroke-width:0"
             inkscape:connector-curvature="0" />
        </g>
        <g
           id="g1149"
           style="fill:#000000;fill-opacity:1">
          <path
             id="path1147"
             transform="translate(154.441,136.27)"
             d="M 2.140625,-4.984375 0.8125,-4.3125 v 0.09375 C 0.90625,-4.25 0.984375,-4.28125 1.015625,-4.296875 1.15625,-4.34375 1.28125,-4.375 1.34375,-4.375 c 0.15625,0 0.234375,0.109375 0.234375,0.34375 v 3.34375 c 0,0.25 -0.0625,0.421875 -0.1875,0.484375 C 1.28125,-0.140625 1.1875,-0.125 0.875,-0.109375 V 0 H 2.90625 V -0.109375 C 2.328125,-0.125 2.203125,-0.1875 2.203125,-0.546875 V -4.96875 Z m 0,0"
             style="stroke:none;stroke-width:0"
             inkscape:connector-curvature="0" />
        </g>
      </g>
    </g>
  </g>
</svg>
