<?xml version="1.0" encoding="UTF-8" standalone="no"?>
<!-- Created with Inkscape (http://www.inkscape.org/) -->

<svg
   xmlns:ns1="http://www.iki.fi/pav/software/textext/"
   xmlns:dc="http://purl.org/dc/elements/1.1/"
   xmlns:cc="http://creativecommons.org/ns#"
   xmlns:rdf="http://www.w3.org/1999/02/22-rdf-syntax-ns#"
   xmlns:svg="http://www.w3.org/2000/svg"
   xmlns="http://www.w3.org/2000/svg"
   xmlns:sodipodi="http://sodipodi.sourceforge.net/DTD/sodipodi-0.dtd"
   xmlns:inkscape="http://www.inkscape.org/namespaces/inkscape"
   width="76.771271mm"
   height="58.809628mm"
   viewBox="0 0 272.02418 208.38057"
   id="svg2"
   version="1.1"
   inkscape:version="0.92.4 (5da689c313, 2019-01-14)"
   sodipodi:docname="Ch5NNC.svg">
  <defs
     id="defs4">
    <marker
       inkscape:stockid="Arrow2Lend"
       orient="auto"
       refY="0"
       refX="0"
       id="Arrow2Lend"
       style="overflow:visible"
       inkscape:isstock="true">
      <path
         id="path4212"
         style="fill:#000000;fill-opacity:1;fill-rule:evenodd;stroke:#000000;stroke-width:0.625;stroke-linejoin:round;stroke-opacity:1"
         d="M 8.7185878,4.0337352 -2.2072895,0.01601326 8.7185884,-4.0017078 c -1.7454984,2.3720609 -1.7354408,5.6174519 -6e-7,8.035443 z"
         transform="matrix(-1.1,0,0,-1.1,-1.1,0)"
         inkscape:connector-curvature="0" />
    </marker>
    <marker
       inkscape:stockid="Arrow1Lend"
       orient="auto"
       refY="0"
       refX="0"
       id="Arrow1Lend"
       style="overflow:visible"
       inkscape:isstock="true">
      <path
         id="path4194"
         d="M 0,0 5,-5 -12.5,0 5,5 Z"
         style="fill:#000000;fill-opacity:1;fill-rule:evenodd;stroke:#000000;stroke-width:1.00000003pt;stroke-opacity:1"
         transform="matrix(-0.8,0,0,-0.8,-10,0)"
         inkscape:connector-curvature="0" />
    </marker>
    <marker
       inkscape:stockid="Arrow1Mend"
       orient="auto"
       refY="0"
       refX="0"
       id="Arrow1Mend"
       style="overflow:visible"
       inkscape:isstock="true">
      <path
         id="path4200"
         d="M 0,0 5,-5 -12.5,0 5,5 Z"
         style="fill:#000000;fill-opacity:1;fill-rule:evenodd;stroke:#000000;stroke-width:1.00000003pt;stroke-opacity:1"
         transform="matrix(-0.4,0,0,-0.4,-4,0)"
         inkscape:connector-curvature="0" />
    </marker>
    <marker
       inkscape:stockid="Arrow1Lstart"
       orient="auto"
       refY="0"
       refX="0"
       id="Arrow1Lstart"
       style="overflow:visible"
       inkscape:isstock="true">
      <path
         id="path4191"
         d="M 0,0 5,-5 -12.5,0 5,5 Z"
         style="fill:#000000;fill-opacity:1;fill-rule:evenodd;stroke:#000000;stroke-width:1.00000003pt;stroke-opacity:1"
         transform="matrix(0.8,0,0,0.8,10,0)"
         inkscape:connector-curvature="0" />
    </marker>
    <marker
       inkscape:stockid="Arrow1Mstart"
       orient="auto"
       refY="0"
       refX="0"
       id="Arrow1Mstart"
       style="overflow:visible"
       inkscape:isstock="true">
      <path
         id="path4197"
         d="M 0,0 5,-5 -12.5,0 5,5 Z"
         style="fill:#000000;fill-opacity:1;fill-rule:evenodd;stroke:#000000;stroke-width:1.00000003pt;stroke-opacity:1"
         transform="matrix(0.4,0,0,0.4,4,0)"
         inkscape:connector-curvature="0" />
    </marker>
    <marker
       inkscape:stockid="Arrow2Mend"
       orient="auto"
       refY="0"
       refX="0"
       id="Arrow2Mend"
       style="overflow:visible"
       inkscape:isstock="true">
      <path
         id="path4218"
         style="fill:#000000;fill-opacity:1;fill-rule:evenodd;stroke:#000000;stroke-width:0.625;stroke-linejoin:round;stroke-opacity:1"
         d="M 8.7185878,4.0337352 -2.2072895,0.01601326 8.7185884,-4.0017078 c -1.7454984,2.3720609 -1.7354408,5.6174519 -6e-7,8.035443 z"
         transform="scale(-0.6)"
         inkscape:connector-curvature="0" />
    </marker>
  </defs>
  <sodipodi:namedview
     id="base"
     pagecolor="#ffffff"
     bordercolor="#666666"
     borderopacity="1.0"
     inkscape:pageopacity="0.0"
     inkscape:pageshadow="2"
     inkscape:zoom="1.4"
     inkscape:cx="90.618835"
     inkscape:cy="105.33748"
     inkscape:document-units="px"
     inkscape:current-layer="layer1"
     showgrid="false"
     inkscape:window-width="1366"
     inkscape:window-height="704"
     inkscape:window-x="0"
     inkscape:window-y="27"
     inkscape:window-maximized="1"
     fit-margin-top="0"
     fit-margin-left="0"
     fit-margin-right="0"
     fit-margin-bottom="0" />
  <metadata
     id="metadata7">
    <rdf:RDF>
      <cc:Work
         rdf:about="">
        <dc:format>image/svg+xml</dc:format>
        <dc:type
           rdf:resource="http://purl.org/dc/dcmitype/StillImage" />
        <dc:title></dc:title>
      </cc:Work>
    </rdf:RDF>
  </metadata>
  <g
     inkscape:label="Capa 1"
     inkscape:groupmode="layer"
     id="layer1"
     transform="translate(-147.05636,-209.50506)">
    <path
       style="fill:#f8d4ba;fill-opacity:1;fill-rule:evenodd;stroke:none;stroke-width:1.13610482;stroke-linecap:butt;stroke-linejoin:miter;stroke-miterlimit:4;stroke-dasharray:2.27220961, 2.27220961;stroke-dashoffset:0;stroke-opacity:1"
       d="m 175.26524,248.58616 c -20.51641,36.82947 0.008,90.56851 32.83681,119.64739 2.34673,2.07868 4.83164,4.07539 7.43854,5.98547 0.23418,0.17158 0.7055,0.51266 0.7055,0.51266 l 81.99795,-95.49478 c 0,0 -0.33747,-0.40575 -0.50193,-0.66839 -12.93233,-20.65291 -8.43173,-57.43208 -33.47187,-65.03827 -30.72138,-9.33193 -74.67757,9.33643 -89.005,35.05592 z"
       id="path4138-9-3"
       inkscape:connector-curvature="0"
       sodipodi:nodetypes="assccssa" />
    <path
       style="fill:none;fill-rule:evenodd;stroke:#000000;stroke-width:1px;stroke-linecap:butt;stroke-linejoin:miter;stroke-opacity:1"
       d="M 167.14286,209.50506 V 402.3622 h 237.14285"
       id="path4136"
       inkscape:connector-curvature="0"
       sodipodi:nodetypes="ccc" />
    <g
       id="g4142"
       transform="matrix(1.2097766,0,0,1.0669194,-98.666648,21.023883)">
      <path
         sodipodi:nodetypes="aaaaaaaa"
         inkscape:connector-curvature="0"
         id="path4138"
         d="m 226.79015,213.47887 c -16.95884,34.51945 0.007,84.88799 27.14286,112.14286 25.95388,26.06749 72.35515,38.38406 107.14285,26.42857 26.93759,-9.25764 45.63136,-39.59061 52.85715,-67.14285 3.54511,-13.51766 4.72284,-33.00595 -6.42858,-41.42858 -18.56971,-14.02565 -48.64608,19.32126 -69.28571,8.57143 -23.89955,-12.44771 -12.3792,-62.65313 -37.85714,-71.42857 -25.39426,-8.74662 -61.72839,8.75083 -73.57143,32.85714 z"
         style="fill:none;fill-rule:evenodd;stroke:#000000;stroke-width:1;stroke-linecap:butt;stroke-linejoin:miter;stroke-miterlimit:4;stroke-dasharray:2, 2;stroke-dashoffset:0;stroke-opacity:1" />
      <path
         sodipodi:nodetypes="cssssssssssc"
         inkscape:connector-curvature="0"
         id="path4140"
         d="m 219.96262,247.66157 c 0.625,10.80357 1.96029,16.81972 4.04061,25.00127 1.2811,5.03834 3.13433,9.93048 5.16806,14.71483 2.01765,4.74651 4.35955,9.36437 6.95377,13.82198 2.90065,4.98414 6.11615,9.79653 9.59645,14.39468 2.27946,3.01161 4.72041,5.91454 7.36693,8.60928 2.74665,2.79669 5.71238,5.38498 8.79551,7.8057 3.46683,2.72198 7.1051,5.23824 10.87314,7.52515 3.77668,2.29215 7.71676,4.32029 11.72136,6.18587 4.48705,2.09033 9.04124,4.0864 13.75567,5.59545 4.6196,1.4787 9.37465,2.5558 14.15745,3.36331 6.22792,1.05149 15.86001,1.82641 18.85108,1.9157"
         style="fill:none;fill-rule:evenodd;stroke:#000000;stroke-width:2;stroke-linecap:butt;stroke-linejoin:miter;stroke-miterlimit:4;stroke-dasharray:none;stroke-opacity:1" />
    </g>
    <path
       style="fill:none;fill-rule:evenodd;stroke:#000000;stroke-width:1;stroke-linecap:butt;stroke-linejoin:miter;stroke-miterlimit:4;stroke-dasharray:6, 6;stroke-dashoffset:0;stroke-opacity:1;marker-end:url(#Arrow2Lend)"
       d="M 167.93787,286.16149 302.08288,401.40818"
       id="path4146"
       inkscape:connector-curvature="0"
       sodipodi:nodetypes="cc" />
    <path
       style="fill:none;fill-rule:evenodd;stroke:#000000;stroke-width:1;stroke-linecap:butt;stroke-linejoin:miter;stroke-miterlimit:4;stroke-dasharray:2, 2;stroke-dashoffset:0;stroke-opacity:1"
       d="M 309.46997,264.75349 206.70113,387.23517"
       id="path4146-5"
       inkscape:connector-curvature="0"
       sodipodi:nodetypes="cc" />
    <rect
       style="opacity:1;fill:#a8a8a8;fill-opacity:1;fill-rule:evenodd;stroke:#2e2e2e;stroke-width:0.5;stroke-linecap:butt;stroke-linejoin:miter;stroke-miterlimit:4;stroke-dasharray:none;stroke-dashoffset:0;stroke-opacity:1"
       id="rect4575"
       width="4.1071429"
       height="4.1071429"
       x="165.89285"
       y="283.96936"
       ry="0" />
    <rect
       style="opacity:1;fill:#a8a8a8;fill-opacity:1;fill-rule:evenodd;stroke:#2e2e2e;stroke-width:0.5;stroke-linecap:butt;stroke-linejoin:miter;stroke-miterlimit:4;stroke-dasharray:none;stroke-dashoffset:0;stroke-opacity:1"
       id="rect4575-0"
       width="4.1071429"
       height="4.1071429"
       x="298.97189"
       y="399.26532"
       ry="0" />
    <circle
       style="opacity:1;fill:#a8a8a8;fill-opacity:1;fill-rule:evenodd;stroke:#2e2e2e;stroke-width:0.5;stroke-linecap:butt;stroke-linejoin:miter;stroke-miterlimit:4;stroke-dasharray:none;stroke-dashoffset:0;stroke-opacity:1"
       id="path4592"
       cx="166.80144"
       cy="402.20279"
       r="2.6516504" />
    <circle
       style="opacity:1;fill:#666666;fill-opacity:1;fill-rule:evenodd;stroke:#2e2e2e;stroke-width:0.5;stroke-linecap:butt;stroke-linejoin:miter;stroke-miterlimit:4;stroke-dasharray:none;stroke-dashoffset:0;stroke-opacity:1"
       id="path4592-1"
       cx="239.65869"
       cy="347.90707"
       r="2.6516504" />
    <text
       xml:space="preserve"
       style="font-style:normal;font-weight:normal;line-height:0%;font-family:sans-serif;text-align:center;letter-spacing:0px;word-spacing:0px;text-anchor:middle;fill:#000000;fill-opacity:1;stroke:none;stroke-width:1px;stroke-linecap:butt;stroke-linejoin:miter;stroke-opacity:1"
       x="249.72934"
       y="240.57648"
       id="text4613"><tspan
         sodipodi:role="line"
         id="tspan4615"
         x="249.72934"
         y="240.57648"
         style="font-size:12.5px;line-height:1.25">feasible</tspan></text>
    <text
       xml:space="preserve"
       style="font-style:normal;font-weight:normal;line-height:0%;font-family:sans-serif;text-align:center;letter-spacing:0px;word-spacing:0px;text-anchor:middle;fill:#000000;fill-opacity:1;stroke:none;stroke-width:1px;stroke-linecap:butt;stroke-linejoin:miter;stroke-opacity:1"
       x="249.5975"
       y="254.2475"
       id="text4613-9"><tspan
         sodipodi:role="line"
         id="tspan4615-1"
         x="249.5975"
         y="254.2475"
         style="font-size:12.5px;line-height:1.25">region</tspan></text>
    <text
       xml:space="preserve"
       style="font-style:normal;font-weight:normal;line-height:0%;font-family:sans-serif;text-align:end;letter-spacing:0px;word-spacing:0px;text-anchor:end;fill:#000000;fill-opacity:1;stroke:none;stroke-width:1px;stroke-linecap:butt;stroke-linejoin:miter;stroke-opacity:1"
       x="242.93713"
       y="398.53137"
       id="text4645"><tspan
         sodipodi:role="line"
         id="tspan4647"
         x="242.93713"
         y="398.53137"
         style="font-size:12.5px;line-height:1.25">Pareto</tspan></text>
    <text
       xml:space="preserve"
       style="font-style:normal;font-weight:normal;line-height:0%;font-family:sans-serif;text-align:start;letter-spacing:0px;word-spacing:0px;text-anchor:start;fill:#000000;fill-opacity:1;stroke:none;stroke-width:1px;stroke-linecap:butt;stroke-linejoin:miter;stroke-opacity:1"
       x="171.22086"
       y="284.8988"
       id="text4649"><tspan
         sodipodi:role="line"
         id="tspan4651"
         x="171.22086"
         y="284.8988"
         style="font-size:12.5px;line-height:1.25">anchor point</tspan></text>
    <text
       xml:space="preserve"
       style="font-style:normal;font-weight:normal;line-height:0%;font-family:sans-serif;text-align:start;letter-spacing:0px;word-spacing:0px;text-anchor:start;fill:#000000;fill-opacity:1;stroke:none;stroke-width:1px;stroke-linecap:butt;stroke-linejoin:miter;stroke-opacity:1"
       x="301.0372"
       y="412.78882"
       id="text4649-2"><tspan
         sodipodi:role="line"
         id="tspan4651-7"
         x="301.0372"
         y="412.78882"
         style="font-size:12.5px;line-height:1.25">anchor point</tspan></text>
    <text
       xml:space="preserve"
       style="font-style:normal;font-weight:normal;line-height:0%;font-family:sans-serif;text-align:start;letter-spacing:0px;word-spacing:0px;text-anchor:start;fill:#000000;fill-opacity:1;stroke:none;stroke-width:1px;stroke-linecap:butt;stroke-linejoin:miter;stroke-opacity:1"
       x="168.01221"
       y="415.28552"
       id="text4689"><tspan
         sodipodi:role="line"
         id="tspan4691"
         x="168.01221"
         y="415.28552"
         style="font-size:12.5px;line-height:1.25">utopia point</tspan></text>
    <g
       id="g6159"
       ns1:jacobian_sqrt="1.333333"
       inkscapeversion="0.92.4"
       ns1:alignment="middle center"
       ns1:scale="1.0"
       ns1:preamble="/home/david/.config/inkscape/extensions/textext/default_packages.tex"
       ns1:text="$f_1$"
       ns1:pdfconverter="pdf2svg"
       ns1:texconverter="pdflatex"
       ns1:version="0.11.0"
       transform="matrix(1.333333,0,0,1.333333,-51.261255,40.082604)">
      <g
         id="surface1">
        <g
           id="g6152"
           style="fill:#000000;fill-opacity:1">
          <path
             id="path6150"
             transform="translate(150.207,134.765)"
             d="M 0.34375,-3.953125 H 1.25 l -0.875,4.1875 c -0.21875,1.078125 -0.546875,1.625 -0.96875,1.625 -0.125,0 -0.203125,-0.078125 -0.203125,-0.171875 0,-0.015625 0.015625,-0.046875 0.046875,-0.109375 0.03125,-0.046875 0.046875,-0.09375 0.046875,-0.15625 0,-0.203125 -0.1875,-0.375 -0.390625,-0.375 -0.21875,0 -0.375,0.171875 -0.375,0.40625 0,0.34375 0.359375,0.609375 0.796875,0.609375 0.875,0 1.578125,-0.984375 1.984375,-2.8125 L 2.03125,-3.953125 H 3.125 l 0.0625,-0.3125 H 2.109375 c 0.28125,-1.5625 0.65625,-2.28125 1.203125,-2.28125 0.140625,0 0.21875,0.0625 0.21875,0.125 0,0.03125 0,0.046875 -0.03125,0.109375 -0.046875,0.078125 -0.0625,0.125 -0.0625,0.203125 0,0.234375 0.15625,0.390625 0.375,0.390625 0.21875,0 0.421875,-0.171875 0.421875,-0.390625 0,-0.375 -0.375,-0.65625 -0.859375,-0.65625 -0.5,0 -0.875,0.21875 -1.234375,0.6875 -0.3125,0.390625 -0.5,0.859375 -0.8125,1.8125 h -0.90625 z m 0,0"
             style="stroke:none;stroke-width:0"
             inkscape:connector-curvature="0" />
        </g>
        <g
           id="g6156"
           style="fill:#000000;fill-opacity:1">
          <path
             id="path6154"
             transform="translate(153.225,136.27)"
             d="M 2.140625,-4.984375 0.8125,-4.3125 v 0.09375 C 0.90625,-4.25 0.984375,-4.28125 1.015625,-4.296875 1.15625,-4.34375 1.28125,-4.375 1.34375,-4.375 c 0.15625,0 0.234375,0.109375 0.234375,0.34375 v 3.34375 c 0,0.25 -0.0625,0.421875 -0.1875,0.484375 C 1.28125,-0.140625 1.1875,-0.125 0.875,-0.109375 V 0 H 2.90625 V -0.109375 C 2.328125,-0.125 2.203125,-0.1875 2.203125,-0.546875 V -4.96875 Z m 0,0"
             style="stroke:none;stroke-width:0"
             inkscape:connector-curvature="0" />
        </g>
      </g>
    </g>
    <g
       id="g6265"
       ns1:jacobian_sqrt="1.333333"
       inkscapeversion="0.92.4"
       ns1:alignment="middle center"
       ns1:scale="1.0"
       ns1:preamble="/home/david/.config/inkscape/extensions/textext/default_packages.tex"
       ns1:text="$f_2$"
       ns1:pdfconverter="pdf2svg"
       ns1:texconverter="pdflatex"
       ns1:version="0.11.0"
       transform="matrix(1.333333,0,0,1.333333,210.11393,232.23212)">
      <g
         id="g6263">
        <g
           id="g6257"
           style="fill:#000000;fill-opacity:1">
          <path
             id="path6255"
             transform="translate(150.207,134.765)"
             d="M 0.34375,-3.953125 H 1.25 l -0.875,4.1875 c -0.21875,1.078125 -0.546875,1.625 -0.96875,1.625 -0.125,0 -0.203125,-0.078125 -0.203125,-0.171875 0,-0.015625 0.015625,-0.046875 0.046875,-0.109375 0.03125,-0.046875 0.046875,-0.09375 0.046875,-0.15625 0,-0.203125 -0.1875,-0.375 -0.390625,-0.375 -0.21875,0 -0.375,0.171875 -0.375,0.40625 0,0.34375 0.359375,0.609375 0.796875,0.609375 0.875,0 1.578125,-0.984375 1.984375,-2.8125 L 2.03125,-3.953125 H 3.125 l 0.0625,-0.3125 H 2.109375 c 0.28125,-1.5625 0.65625,-2.28125 1.203125,-2.28125 0.140625,0 0.21875,0.0625 0.21875,0.125 0,0.03125 0,0.046875 -0.03125,0.109375 -0.046875,0.078125 -0.0625,0.125 -0.0625,0.203125 0,0.234375 0.15625,0.390625 0.375,0.390625 0.21875,0 0.421875,-0.171875 0.421875,-0.390625 0,-0.375 -0.375,-0.65625 -0.859375,-0.65625 -0.5,0 -0.875,0.21875 -1.234375,0.6875 -0.3125,0.390625 -0.5,0.859375 -0.8125,1.8125 h -0.90625 z m 0,0"
             style="stroke:none;stroke-width:0"
             inkscape:connector-curvature="0" />
        </g>
        <g
           id="g6261"
           style="fill:#000000;fill-opacity:1">
          <path
             id="path6259"
             transform="translate(153.225,136.27)"
             d="M 3.5,-1.015625 3.40625,-1.046875 C 3.140625,-0.625 3.03125,-0.5625 2.703125,-0.5625 H 0.9375 l 1.25,-1.296875 c 0.65625,-0.6875 0.9375,-1.25 0.9375,-1.828125 0,-0.734375 -0.59375,-1.296875 -1.359375,-1.296875 -0.40625,0 -0.796875,0.15625 -1.0625,0.453125 -0.234375,0.25 -0.34375,0.484375 -0.46875,1.015625 l 0.15625,0.03125 c 0.28125,-0.71875 0.546875,-0.953125 1.0625,-0.953125 0.625,0 1.046875,0.421875 1.046875,1.03125 0,0.578125 -0.34375,1.265625 -0.96875,1.921875 L 0.21875,-0.09375 V 0 h 2.875 z m 0,0"
             style="stroke:none;stroke-width:0"
             inkscape:connector-curvature="0" />
        </g>
      </g>
    </g>
    <g
       id="g6367"
       ns1:jacobian_sqrt="1.333333"
       inkscapeversion="0.92.4"
       ns1:alignment="middle center"
       ns1:scale="1.0"
       ns1:preamble="/home/david/.config/inkscape/extensions/textext/default_packages.tex"
       ns1:text="$\\bar{mathbf{X}}_{pj}$"
       ns1:pdfconverter="pdf2svg"
       ns1:texconverter="pdflatex"
       ns1:version="0.11.0"
       transform="matrix(1.333333,0,0,1.333333,-186.60192,25.138877)">
      <g
         id="g6482"
         ns1:jacobian_sqrt="1.333333"
         inkscapeversion="0.92.4"
         ns1:alignment="middle center"
         ns1:scale="1.0"
         ns1:preamble="/home/david/.config/inkscape/extensions/textext/default_packages.tex"
         ns1:text="$\\bar{\\mathbf{X}}_{pj}$"
         ns1:pdfconverter="pdf2svg"
         ns1:texconverter="pdflatex"
         ns1:version="0.11.0"
         transform="matrix(1.333333,0,0,1.333333,131.45546,63.505062)">
        <g
           id="g6480">
          <g
             id="g6466"
             style="fill:#000000;fill-opacity:1">
            <path
               id="path6464"
               transform="translate(150.65,132.548)"
               d="m 0.109375,-5.984375 v 0.53125 h 3.09375 v -0.53125 z m 0,0"
               style="stroke:none;stroke-width:0"
               inkscape:connector-curvature="0" />
          </g>
          <g
             id="g6470"
             style="fill:#000000;fill-opacity:1">
            <path
               id="path6468"
               transform="translate(148.712,134.765)"
               d="m 6.859375,-6.734375 h -2.5 v 0.25 c 0.09375,0 0.171875,0 0.203125,0.015625 0.40625,0.015625 0.515625,0.109375 0.515625,0.34375 0,0.21875 -0.109375,0.421875 -0.578125,1.0625 -0.078125,0.09375 -0.296875,0.421875 -0.546875,0.765625 l -0.96875,-1.5 c -0.140625,-0.1875 -0.15625,-0.25 -0.15625,-0.359375 0,-0.21875 0.125,-0.296875 0.484375,-0.3125 0.046875,0 0.171875,-0.015625 0.3125,-0.015625 v -0.25 H 0.171875 v 0.25 c 0.359375,0.03125 0.484375,0.125 0.796875,0.578125 L 2.9375,-3.015625 1.203125,-0.8125 c -0.3125,0.375 -0.546875,0.5 -1.046875,0.5625 V 0 h 2.5 v -0.25 c -0.609375,-0.0625 -0.8125,-0.15625 -0.8125,-0.40625 0,-0.21875 0.203125,-0.546875 0.9375,-1.53125 l 0.375,-0.515625 1.015625,1.609375 C 4.28125,-0.890625 4.375,-0.65625 4.375,-0.546875 c 0,0.171875 -0.171875,0.25 -0.515625,0.28125 -0.046875,0 -0.15625,0 -0.28125,0.015625 V 0 H 6.96875 V -0.25 C 6.625,-0.265625 6.484375,-0.390625 6,-1.109375 l -1.8125,-2.8125 0.796875,-1.109375 c 0.875,-1.203125 1.140625,-1.390625 1.875,-1.453125 z m 0,0"
               style="stroke:none;stroke-width:0"
               inkscape:connector-curvature="0" />
          </g>
          <g
             id="g6474"
             style="fill:#000000;fill-opacity:1">
            <path
               id="path6472"
               transform="translate(156.458,136.259)"
               d="m 0.40625,-2.984375 h 0.171875 c 0,0 0.015625,0 0.03125,0 0.09375,-0.046875 0.28125,0.09375 0.28125,0.203125 0,0.0625 -0.265625,1.109375 -0.515625,2.09375 C 0.171875,0.046875 0,0.75 -0.0625,0.953125 c -0.078125,0.34375 -0.171875,0.4375 -0.484375,0.4375 v 0.125 h 1.5 V 1.40625 c -0.34375,0 -0.46875,-0.078125 -0.46875,-0.21875 0,-0.109375 0.125,-0.6875 0.28125,-1.234375 0.171875,0.09375 0.3125,0.125 0.484375,0.125 1.078125,0 2.203125,-1.234375 2.203125,-2.40625 C 3.453125,-2.90625 3.140625,-3.25 2.609375,-3.25 2.125,-3.25 1.78125,-3.015625 1.34375,-2.421875 L 1.5625,-3.15625 1.578125,-3.21875 c 0,0 0,-0.015625 0,-0.03125 H 1.5625 c 0,-0.015625 -0.015625,-0.015625 -0.015625,-0.015625 L 1.53125,-3.25 0.390625,-3.09375 Z m 1.9375,0.046875 c 0.3125,0.015625 0.453125,0.203125 0.453125,0.640625 0,0.484375 -0.21875,1.109375 -0.53125,1.578125 -0.3125,0.4375 -0.671875,0.65625 -1.046875,0.65625 -0.203125,0 -0.359375,-0.109375 -0.359375,-0.265625 0,-0.25 0.265625,-1.21875 0.484375,-1.765625 0.203125,-0.5 0.625,-0.859375 1,-0.84375 z m 0,0"
               style="stroke:none;stroke-width:0"
               inkscape:connector-curvature="0" />
          </g>
          <g
             id="g6478"
             style="fill:#000000;fill-opacity:1">
            <path
               id="path6476"
               transform="translate(161.25,136.259)"
               d="M 1.8125,-3.234375 1.796875,-3.25 c -0.65625,0.109375 -1.03125,0.171875 -1.265625,0.1875 v 0.109375 H 0.796875 C 0.84375,-2.96875 1,-2.921875 1.03125,-2.890625 c 0.03125,0.03125 0.046875,0.09375 0.046875,0.171875 0,0.078125 -0.03125,0.265625 -0.109375,0.59375 L 0.4375,0.015625 c -0.25,1.015625 -0.421875,1.34375 -0.71875,1.34375 -0.09375,0 -0.125,-0.03125 -0.125,-0.078125 0,-0.03125 0,-0.046875 0.03125,-0.09375 0.046875,-0.046875 0.0625,-0.09375 0.0625,-0.140625 0,-0.15625 -0.140625,-0.28125 -0.3125,-0.28125 -0.171875,0 -0.296875,0.140625 -0.296875,0.3125 0,0.25 0.25,0.453125 0.59375,0.453125 0.640625,0 1.078125,-0.5625 1.375,-1.734375 z m -0.140625,-1.59375 c -0.203125,0 -0.359375,0.171875 -0.359375,0.390625 0,0.234375 0.140625,0.390625 0.359375,0.390625 0.1875,0 0.359375,-0.171875 0.359375,-0.375 0,-0.203125 -0.171875,-0.40625 -0.359375,-0.40625 z m 0,0"
               style="stroke:none;stroke-width:0"
               inkscape:connector-curvature="0" />
          </g>
        </g>
      </g>
    </g>
    <g
       id="g6574"
       ns1:jacobian_sqrt="1.333333"
       inkscapeversion="0.92.4"
       ns1:alignment="middle center"
       ns1:scale="1.0"
       ns1:preamble="/home/david/.config/inkscape/extensions/textext/default_packages.tex"
       ns1:text="$\\bar{\\mathbf{N}}_1$"
       ns1:pdfconverter="pdf2svg"
       ns1:texconverter="pdflatex"
       ns1:version="0.11.0"
       transform="matrix(1.333333,0,0,1.333333,96.767994,203.20156)">
      <g
         id="g6572">
        <g
           id="g6562"
           style="fill:#000000;fill-opacity:1">
          <path
             id="path6560"
             transform="translate(150.65,132.548)"
             d="m 0.109375,-5.984375 v 0.53125 h 3.09375 v -0.53125 z m 0,0"
             style="stroke:none;stroke-width:0"
             inkscape:connector-curvature="0" />
        </g>
        <g
           id="g6566"
           style="fill:#000000;fill-opacity:1">
          <path
             id="path6564"
             transform="translate(148.712,134.765)"
             d="M 2.296875,-6.734375 H 0.1875 v 0.25 c 0.203125,0 0.375,0.140625 0.84375,0.71875 v 4.71875 c 0,0.5625 -0.140625,0.703125 -0.875,0.796875 V 0 H 2.421875 V -0.25 C 1.65625,-0.34375 1.46875,-0.53125 1.46875,-1.234375 V -5.25 L 5.9375,0.171875 H 6.203125 V -5.6875 c 0,-0.578125 0.140625,-0.703125 0.78125,-0.796875 v -0.25 H 4.84375 v 0.25 c 0.734375,0.0625 0.921875,0.28125 0.921875,0.984375 v 3.03125 z m 0,0"
             style="stroke:none;stroke-width:0"
             inkscape:connector-curvature="0" />
        </g>
        <g
           id="g6570"
           style="fill:#000000;fill-opacity:1">
          <path
             id="path6568"
             transform="translate(155.905,136.27)"
             d="M 2.140625,-4.984375 0.8125,-4.3125 v 0.09375 C 0.90625,-4.25 0.984375,-4.28125 1.015625,-4.296875 1.15625,-4.34375 1.28125,-4.375 1.34375,-4.375 c 0.15625,0 0.234375,0.109375 0.234375,0.34375 v 3.34375 c 0,0.25 -0.0625,0.421875 -0.1875,0.484375 C 1.28125,-0.140625 1.1875,-0.125 0.875,-0.109375 V 0 H 2.90625 V -0.109375 C 2.328125,-0.125 2.203125,-0.1875 2.203125,-0.546875 V -4.96875 Z m 0,0"
             style="stroke:none;stroke-width:0"
             inkscape:connector-curvature="0" />
        </g>
      </g>
    </g>
  </g>
</svg>
