<?xml version="1.0" encoding="UTF-8" standalone="no"?>
<!-- Created with Inkscape (http://www.inkscape.org/) -->

<svg
   xmlns:ns1="http://www.iki.fi/pav/software/textext/"
   xmlns:dc="http://purl.org/dc/elements/1.1/"
   xmlns:cc="http://creativecommons.org/ns#"
   xmlns:rdf="http://www.w3.org/1999/02/22-rdf-syntax-ns#"
   xmlns:svg="http://www.w3.org/2000/svg"
   xmlns="http://www.w3.org/2000/svg"
   xmlns:sodipodi="http://sodipodi.sourceforge.net/DTD/sodipodi-0.dtd"
   xmlns:inkscape="http://www.inkscape.org/namespaces/inkscape"
   width="59.318832mm"
   height="49.408207mm"
   viewBox="0 0 210.18485 175.06845"
   id="svg2"
   version="1.1"
   inkscape:version="0.92.4 (5da689c313, 2019-01-14)"
   sodipodi:docname="Ch5planoFun01.svg">
  <sodipodi:namedview
     id="base"
     pagecolor="#ffffff"
     bordercolor="#666666"
     borderopacity="1.0"
     inkscape:pageopacity="0.0"
     inkscape:pageshadow="2"
     inkscape:zoom="1.979899"
     inkscape:cx="146.32766"
     inkscape:cy="97.021762"
     inkscape:document-units="px"
     inkscape:current-layer="g4187"
     showgrid="false"
     inkscape:window-width="1366"
     inkscape:window-height="704"
     inkscape:window-x="0"
     inkscape:window-y="27"
     inkscape:window-maximized="1"
     fit-margin-top="0"
     fit-margin-left="0"
     fit-margin-right="0"
     fit-margin-bottom="0" />
  <defs
     id="defs4" />
  <metadata
     id="metadata7">
    <rdf:RDF>
      <cc:Work
         rdf:about="">
        <dc:format>image/svg+xml</dc:format>
        <dc:type
           rdf:resource="http://purl.org/dc/dcmitype/StillImage" />
        <dc:title></dc:title>
      </cc:Work>
    </rdf:RDF>
  </metadata>
  <g
     inkscape:label="Capa 1"
     inkscape:groupmode="layer"
     id="layer1"
     transform="translate(-163.62603,-256.60923)">
    <path
       style="fill:none;fill-rule:evenodd;stroke:#000000;stroke-width:1px;stroke-linecap:butt;stroke-linejoin:miter;stroke-opacity:1"
       d="M 197.14286,259.50506 V 415.21935"
       id="path4136"
       inkscape:connector-curvature="0" />
    <path
       style="fill:none;fill-rule:evenodd;stroke:#000000;stroke-width:1px;stroke-linecap:butt;stroke-linejoin:miter;stroke-opacity:1"
       d="M 196.64286,414.71935 H 373.41955"
       id="path4138"
       inkscape:connector-curvature="0" />
    <g
       id="g4187"
       transform="translate(6.0714286,-3.9285714)">
      <path
         sodipodi:nodetypes="cacaaaaaaaac"
         inkscape:connector-curvature="0"
         id="path4142-8"
         d="m 223.14582,302.84745 c 0,0 6.14262,50.31107 22.36844,67.65921 14.38799,15.38319 58.5372,23.79723 58.5372,23.79723 0,0 16.65939,-8.47267 17.55587,-16.43949 0.80085,-7.11696 -10.41929,-10.82488 -12.02713,-17.80394 -1.04032,-4.51564 0.66859,-9.31216 1.95717,-13.76332 1.0137,-3.5016 3.8602,-6.3834 4.48255,-9.97526 0.90824,-5.24188 0.84291,-11.02435 -1.26269,-15.9099 -1.50972,-3.50295 -5.02035,-5.74847 -7.67085,-8.4916 -5.04668,-5.22306 -9.34279,-11.56403 -15.65736,-15.15229 -10.91878,-6.2046 -23.86869,-11.09271 -36.36549,-9.84898 -11.83203,1.17757 -28.43557,0.92834 -31.91771,15.92834 z"
         style="fill:#f7f7f7;fill-opacity:1;fill-rule:evenodd;stroke:#000000;stroke-width:1px;stroke-linecap:butt;stroke-linejoin:miter;stroke-opacity:1" />
      <path
         sodipodi:nodetypes="cac"
         inkscape:connector-curvature="0"
         id="path4142"
         d="m 223.00008,302.55891 c 0,0 6.14262,50.31108 22.36844,67.65922 14.38799,15.38319 58.5372,23.79723 58.5372,23.79723"
         style="fill:none;fill-rule:evenodd;stroke:#fc3927;stroke-width:2.34375;stroke-linecap:butt;stroke-linejoin:miter;stroke-miterlimit:4;stroke-dasharray:9.37500017, 9.37500017;stroke-dashoffset:0;stroke-opacity:1" />
    </g>
    <path
       style="fill:none;fill-rule:evenodd;stroke:#afafaf;stroke-width:1;stroke-linecap:butt;stroke-linejoin:miter;stroke-miterlimit:4;stroke-dasharray:2, 2;stroke-dashoffset:0;stroke-opacity:1"
       d="m 228.57888,299.04094 v 92.02717"
       id="path4215"
       inkscape:connector-curvature="0"
       sodipodi:nodetypes="cc" />
    <path
       style="fill:none;fill-rule:evenodd;stroke:#afafaf;stroke-width:1;stroke-linecap:butt;stroke-linejoin:miter;stroke-miterlimit:4;stroke-dasharray:2, 2;stroke-dashoffset:0;stroke-opacity:1"
       d="m 310.34318,390.56911 h -82.2643"
       id="path4215-7"
       inkscape:connector-curvature="0"
       sodipodi:nodetypes="cc" />
    <circle
       style="opacity:1;fill:#000000;fill-opacity:1;fill-rule:evenodd;stroke:#000000;stroke-width:1;stroke-linecap:round;stroke-linejoin:round;stroke-miterlimit:4;stroke-dasharray:none;stroke-dashoffset:0;stroke-opacity:1"
       id="path4250"
       cx="228.57887"
       cy="390.56912"
       r="1.3889598" />
    <path
       style="fill:none;fill-rule:evenodd;stroke:#afafaf;stroke-width:1;stroke-linecap:butt;stroke-linejoin:miter;stroke-miterlimit:4;stroke-dasharray:2, 2;stroke-dashoffset:0;stroke-opacity:1"
       d="m 309.84318,299.04194 v 92.02717"
       id="path4215-74"
       inkscape:connector-curvature="0"
       sodipodi:nodetypes="cc" />
    <path
       style="fill:none;fill-rule:evenodd;stroke:#afafaf;stroke-width:1;stroke-linecap:butt;stroke-linejoin:miter;stroke-miterlimit:4;stroke-dasharray:2, 2;stroke-dashoffset:0;stroke-opacity:1"
       d="m 310.34318,299.54094 h -82.2643"
       id="path4215-7-8"
       inkscape:connector-curvature="0"
       sodipodi:nodetypes="cc" />
    <circle
       style="opacity:1;fill:#000000;fill-opacity:1;fill-rule:evenodd;stroke:#000000;stroke-width:1;stroke-linecap:round;stroke-linejoin:round;stroke-miterlimit:4;stroke-dasharray:none;stroke-dashoffset:0;stroke-opacity:1"
       id="path4250-6"
       cx="309.84317"
       cy="299.54095"
       r="1.3889598" />
    <g
       id="g4995"
       ns1:jacobian_sqrt="1.333333"
       inkscapeversion="0.92.4"
       ns1:alignment="middle center"
       ns1:scale="1.0"
       ns1:preamble="/home/david/.config/inkscape/extensions/textext/default_packages.tex"
       ns1:text="$F_2(\\mathbf{x})$"
       ns1:pdfconverter="pdf2svg"
       ns1:texconverter="pdflatex"
       ns1:version="0.11.0"
       transform="matrix(1.333333,0,0,1.333333,-34.76075,86.901771)">
      <g
         id="surface1">
        <g
           id="g4976"
           style="fill:#000000;fill-opacity:1">
          <path
             id="path4974"
             transform="translate(148.712,134.765)"
             d="M 6.4375,-6.515625 H 1.46875 v 0.171875 c 0.640625,0.046875 0.765625,0.109375 0.765625,0.40625 0,0.140625 -0.046875,0.390625 -0.109375,0.640625 l -1.234375,4.40625 c -0.171875,0.59375 -0.25,0.65625 -0.8125,0.734375 V 0 H 2.59375 V -0.15625 C 2.015625,-0.1875 1.828125,-0.296875 1.828125,-0.59375 c 0,-0.078125 0.03125,-0.234375 0.09375,-0.453125 l 0.625,-2.21875 C 2.90625,-3.25 3.125,-3.234375 3.34375,-3.234375 c 0.390625,0 0.46875,0 0.546875,0.046875 0.15625,0.078125 0.21875,0.203125 0.21875,0.40625 0,0.15625 -0.015625,0.28125 -0.078125,0.59375 L 4.203125,-2.140625 4.96875,-4.46875 4.78125,-4.53125 C 4.34375,-3.625 4.3125,-3.625 2.625,-3.59375 L 3.296875,-5.921875 C 3.34375,-6.125 3.484375,-6.1875 3.890625,-6.1875 c 1.6875,0 2.046875,0.140625 2.046875,0.75 0,0.0625 0,0.109375 -0.015625,0.25 C 5.90625,-5.140625 5.90625,-5.125 5.90625,-5 l 0.203125,0.015625 z m 0,0"
             style="stroke:none;stroke-width:0"
             inkscape:connector-curvature="0" />
        </g>
        <g
           id="g4980"
           style="fill:#000000;fill-opacity:1">
          <path
             id="path4978"
             transform="translate(153.803,136.27)"
             d="M 3.5,-1.015625 3.40625,-1.046875 C 3.140625,-0.625 3.03125,-0.5625 2.703125,-0.5625 H 0.9375 l 1.25,-1.296875 c 0.65625,-0.6875 0.9375,-1.25 0.9375,-1.828125 0,-0.734375 -0.59375,-1.296875 -1.359375,-1.296875 -0.40625,0 -0.796875,0.15625 -1.0625,0.453125 -0.234375,0.25 -0.34375,0.484375 -0.46875,1.015625 l 0.15625,0.03125 c 0.28125,-0.71875 0.546875,-0.953125 1.0625,-0.953125 0.625,0 1.046875,0.421875 1.046875,1.03125 0,0.578125 -0.34375,1.265625 -0.96875,1.921875 L 0.21875,-0.09375 V 0 h 2.875 z m 0,0"
             style="stroke:none;stroke-width:0"
             inkscape:connector-curvature="0" />
        </g>
        <g
           id="g4984"
           style="fill:#000000;fill-opacity:1">
          <path
             id="path4982"
             transform="translate(157.988,134.765)"
             d="m 3.296875,2.390625 c 0,-0.03125 0,-0.046875 -0.171875,-0.21875 C 1.890625,0.921875 1.5625,-0.96875 1.5625,-2.5 c 0,-1.734375 0.375,-3.46875 1.609375,-4.703125 0.125,-0.125 0.125,-0.140625 0.125,-0.171875 0,-0.078125 -0.03125,-0.109375 -0.09375,-0.109375 -0.109375,0 -1,0.6875 -1.59375,1.953125 -0.5,1.09375 -0.625,2.203125 -0.625,3.03125 0,0.78125 0.109375,1.984375 0.65625,3.125 C 2.25,1.84375 3.09375,2.5 3.203125,2.5 c 0.0625,0 0.09375,-0.03125 0.09375,-0.109375 z m 0,0"
             style="stroke:none;stroke-width:0"
             inkscape:connector-curvature="0" />
        </g>
        <g
           id="g4988"
           style="fill:#000000;fill-opacity:1">
          <path
             id="path4986"
             transform="translate(161.853,134.765)"
             d="M 4.828125,-0.234375 C 4.671875,-0.296875 4.59375,-0.328125 4.53125,-0.4375 L 3.046875,-2.71875 4.0625,-3.96875 C 4.25,-4.203125 4.453125,-4.3125 4.75,-4.359375 V -4.59375 H 3.078125 v 0.234375 C 3.171875,-4.34375 3.25,-4.34375 3.28125,-4.34375 c 0.234375,0.015625 0.3125,0.078125 0.3125,0.234375 0,0.140625 -0.109375,0.3125 -0.390625,0.625 C 3.15625,-3.421875 3,-3.234375 2.84375,-3.015625 2.796875,-3.09375 2.75,-3.15625 2.71875,-3.1875 2.40625,-3.609375 2.140625,-4.03125 2.140625,-4.171875 c 0,-0.109375 0.140625,-0.171875 0.46875,-0.1875 V -4.59375 H 0.125 v 0.234375 c 0.25,0.046875 0.3125,0.09375 0.515625,0.390625 L 1.90625,-2 c -0.28125,0.359375 -0.546875,0.6875 -0.640625,0.828125 -0.5625,0.75 -0.75,0.90625 -1.125,0.9375 V 0 h 1.6875 v -0.234375 c -0.359375,-0.03125 -0.5,-0.09375 -0.5,-0.25 0,-0.140625 0.25,-0.5625 0.640625,-1.015625 0.015625,-0.03125 0.078125,-0.109375 0.15625,-0.203125 0.1875,0.28125 0.359375,0.53125 0.421875,0.625 C 2.765625,-0.75 2.875,-0.5625 2.875,-0.4375 c 0,0.125 -0.140625,0.171875 -0.453125,0.203125 V 0 h 2.40625 z m 0,0"
             style="stroke:none;stroke-width:0"
             inkscape:connector-curvature="0" />
        </g>
        <g
           id="g4992"
           style="fill:#000000;fill-opacity:1">
          <path
             id="path4990"
             transform="translate(166.834,134.765)"
             d="m 2.875,-2.5 c 0,-0.765625 -0.109375,-1.96875 -0.65625,-3.109375 -0.59375,-1.21875 -1.453125,-1.875 -1.546875,-1.875 -0.0625,0 -0.109375,0.046875 -0.109375,0.109375 0,0.03125 0,0.046875 0.1875,0.234375 0.984375,0.984375 1.546875,2.5625 1.546875,4.640625 0,1.71875 -0.359375,3.46875 -1.59375,4.71875 C 0.5625,2.34375 0.5625,2.359375 0.5625,2.390625 0.5625,2.453125 0.609375,2.5 0.671875,2.5 0.765625,2.5 1.671875,1.8125 2.25,0.546875 2.765625,-0.546875 2.875,-1.65625 2.875,-2.5 Z m 0,0"
             style="stroke:none;stroke-width:0"
             inkscape:connector-curvature="0" />
        </g>
      </g>
    </g>
    <g
       id="g5069"
       ns1:jacobian_sqrt="1.333333"
       inkscapeversion="0.92.4"
       ns1:alignment="middle center"
       ns1:scale="1.0"
       ns1:preamble="/home/david/.config/inkscape/extensions/textext/default_packages.tex"
       ns1:text="$F_1(\\mathbf{x})$"
       ns1:pdfconverter="pdf2svg"
       ns1:texconverter="pdflatex"
       ns1:version="0.11.0"
       transform="matrix(1.333333,0,0,1.333333,147.53227,248.65773)">
      <g
         id="g5067">
        <g
           id="g5049"
           style="fill:#000000;fill-opacity:1">
          <path
             id="path5047"
             transform="translate(148.712,134.765)"
             d="M 6.4375,-6.515625 H 1.46875 v 0.171875 c 0.640625,0.046875 0.765625,0.109375 0.765625,0.40625 0,0.140625 -0.046875,0.390625 -0.109375,0.640625 l -1.234375,4.40625 c -0.171875,0.59375 -0.25,0.65625 -0.8125,0.734375 V 0 H 2.59375 V -0.15625 C 2.015625,-0.1875 1.828125,-0.296875 1.828125,-0.59375 c 0,-0.078125 0.03125,-0.234375 0.09375,-0.453125 l 0.625,-2.21875 C 2.90625,-3.25 3.125,-3.234375 3.34375,-3.234375 c 0.390625,0 0.46875,0 0.546875,0.046875 0.15625,0.078125 0.21875,0.203125 0.21875,0.40625 0,0.15625 -0.015625,0.28125 -0.078125,0.59375 L 4.203125,-2.140625 4.96875,-4.46875 4.78125,-4.53125 C 4.34375,-3.625 4.3125,-3.625 2.625,-3.59375 L 3.296875,-5.921875 C 3.34375,-6.125 3.484375,-6.1875 3.890625,-6.1875 c 1.6875,0 2.046875,0.140625 2.046875,0.75 0,0.0625 0,0.109375 -0.015625,0.25 C 5.90625,-5.140625 5.90625,-5.125 5.90625,-5 l 0.203125,0.015625 z m 0,0"
             style="stroke:none;stroke-width:0"
             inkscape:connector-curvature="0" />
        </g>
        <g
           id="g5053"
           style="fill:#000000;fill-opacity:1">
          <path
             id="path5051"
             transform="translate(153.803,136.27)"
             d="M 2.140625,-4.984375 0.8125,-4.3125 v 0.09375 C 0.90625,-4.25 0.984375,-4.28125 1.015625,-4.296875 1.15625,-4.34375 1.28125,-4.375 1.34375,-4.375 c 0.15625,0 0.234375,0.109375 0.234375,0.34375 v 3.34375 c 0,0.25 -0.0625,0.421875 -0.1875,0.484375 C 1.28125,-0.140625 1.1875,-0.125 0.875,-0.109375 V 0 H 2.90625 V -0.109375 C 2.328125,-0.125 2.203125,-0.1875 2.203125,-0.546875 V -4.96875 Z m 0,0"
             style="stroke:none;stroke-width:0"
             inkscape:connector-curvature="0" />
        </g>
        <g
           id="g5057"
           style="fill:#000000;fill-opacity:1">
          <path
             id="path5055"
             transform="translate(157.988,134.765)"
             d="m 3.296875,2.390625 c 0,-0.03125 0,-0.046875 -0.171875,-0.21875 C 1.890625,0.921875 1.5625,-0.96875 1.5625,-2.5 c 0,-1.734375 0.375,-3.46875 1.609375,-4.703125 0.125,-0.125 0.125,-0.140625 0.125,-0.171875 0,-0.078125 -0.03125,-0.109375 -0.09375,-0.109375 -0.109375,0 -1,0.6875 -1.59375,1.953125 -0.5,1.09375 -0.625,2.203125 -0.625,3.03125 0,0.78125 0.109375,1.984375 0.65625,3.125 C 2.25,1.84375 3.09375,2.5 3.203125,2.5 c 0.0625,0 0.09375,-0.03125 0.09375,-0.109375 z m 0,0"
             style="stroke:none;stroke-width:0"
             inkscape:connector-curvature="0" />
        </g>
        <g
           id="g5061"
           style="fill:#000000;fill-opacity:1">
          <path
             id="path5059"
             transform="translate(161.853,134.765)"
             d="M 4.828125,-0.234375 C 4.671875,-0.296875 4.59375,-0.328125 4.53125,-0.4375 L 3.046875,-2.71875 4.0625,-3.96875 C 4.25,-4.203125 4.453125,-4.3125 4.75,-4.359375 V -4.59375 H 3.078125 v 0.234375 C 3.171875,-4.34375 3.25,-4.34375 3.28125,-4.34375 c 0.234375,0.015625 0.3125,0.078125 0.3125,0.234375 0,0.140625 -0.109375,0.3125 -0.390625,0.625 C 3.15625,-3.421875 3,-3.234375 2.84375,-3.015625 2.796875,-3.09375 2.75,-3.15625 2.71875,-3.1875 2.40625,-3.609375 2.140625,-4.03125 2.140625,-4.171875 c 0,-0.109375 0.140625,-0.171875 0.46875,-0.1875 V -4.59375 H 0.125 v 0.234375 c 0.25,0.046875 0.3125,0.09375 0.515625,0.390625 L 1.90625,-2 c -0.28125,0.359375 -0.546875,0.6875 -0.640625,0.828125 -0.5625,0.75 -0.75,0.90625 -1.125,0.9375 V 0 h 1.6875 v -0.234375 c -0.359375,-0.03125 -0.5,-0.09375 -0.5,-0.25 0,-0.140625 0.25,-0.5625 0.640625,-1.015625 0.015625,-0.03125 0.078125,-0.109375 0.15625,-0.203125 0.1875,0.28125 0.359375,0.53125 0.421875,0.625 C 2.765625,-0.75 2.875,-0.5625 2.875,-0.4375 c 0,0.125 -0.140625,0.171875 -0.453125,0.203125 V 0 h 2.40625 z m 0,0"
             style="stroke:none;stroke-width:0"
             inkscape:connector-curvature="0" />
        </g>
        <g
           id="g5065"
           style="fill:#000000;fill-opacity:1">
          <path
             id="path5063"
             transform="translate(166.834,134.765)"
             d="m 2.875,-2.5 c 0,-0.765625 -0.109375,-1.96875 -0.65625,-3.109375 -0.59375,-1.21875 -1.453125,-1.875 -1.546875,-1.875 -0.0625,0 -0.109375,0.046875 -0.109375,0.109375 0,0.03125 0,0.046875 0.1875,0.234375 0.984375,0.984375 1.546875,2.5625 1.546875,4.640625 0,1.71875 -0.359375,3.46875 -1.59375,4.71875 C 0.5625,2.34375 0.5625,2.359375 0.5625,2.390625 0.5625,2.453125 0.609375,2.5 0.671875,2.5 0.765625,2.5 1.671875,1.8125 2.25,0.546875 2.765625,-0.546875 2.875,-1.65625 2.875,-2.5 Z m 0,0"
             style="stroke:none;stroke-width:0"
             inkscape:connector-curvature="0" />
        </g>
      </g>
    </g>
    <g
       id="g5137"
       ns1:jacobian_sqrt="1.333333"
       inkscapeversion="0.92.4"
       ns1:alignment="middle center"
       ns1:scale="1.0"
       ns1:preamble="/home/david/.config/inkscape/extensions/textext/default_packages.tex"
       ns1:text="$a$"
       ns1:pdfconverter="pdf2svg"
       ns1:texconverter="pdflatex"
       ns1:version="0.11.0"
       transform="matrix(1.333333,0,0,1.333333,19.712931,119.31265)">
      <g
         id="g5135">
        <g
           id="g5133"
           style="fill:#000000;fill-opacity:1">
          <path
             id="path5131"
             transform="translate(148.712,134.765)"
             d="m 4.625,-1.09375 c -0.15625,0.140625 -0.203125,0.203125 -0.28125,0.28125 -0.296875,0.296875 -0.421875,0.40625 -0.515625,0.40625 -0.078125,0 -0.140625,-0.0625 -0.140625,-0.125 0,-0.203125 0.421875,-1.90625 0.890625,-3.625 0.03125,-0.09375 0.03125,-0.125 0.0625,-0.203125 L 4.5625,-4.390625 3.953125,-4.328125 3.921875,-4.296875 3.8125,-3.8125 c -0.078125,-0.375 -0.359375,-0.578125 -0.796875,-0.578125 -1.3125,0 -2.84375,1.8125 -2.84375,3.390625 0,0.703125 0.375,1.109375 1.015625,1.109375 0.703125,0 1.125,-0.328125 2,-1.5625 -0.203125,0.78125 -0.234375,0.90625 -0.234375,1.140625 0,0.296875 0.125,0.40625 0.40625,0.40625 C 3.765625,0.09375 4,-0.09375 4.75,-1 Z M 3.078125,-4.171875 c 0.34375,0.015625 0.5625,0.25 0.5625,0.609375 0,0.828125 -0.5,2 -1.1875,2.75 C 2.21875,-0.546875 1.875,-0.375 1.578125,-0.375 1.234375,-0.375 1,-0.671875 1,-1.125 1,-1.671875 1.390625,-2.6875 1.8125,-3.3125 2.21875,-3.890625 2.6875,-4.203125 3.078125,-4.171875 Z m 0,0"
             style="stroke:none;stroke-width:0"
             inkscape:connector-curvature="0" />
        </g>
      </g>
    </g>
    <g
       id="g5199"
       ns1:jacobian_sqrt="1.333333"
       inkscapeversion="0.92.4"
       ns1:alignment="middle center"
       ns1:scale="1.0"
       ns1:preamble="/home/david/.config/inkscape/extensions/textext/default_packages.tex"
       ns1:text="$u$"
       ns1:pdfconverter="pdf2svg"
       ns1:texconverter="pdflatex"
       ns1:version="0.11.0"
       transform="matrix(1.333333,0,0,1.333333,22.108764,220.15232)">
      <g
         id="g5197">
        <g
           id="g5195"
           style="fill:#000000;fill-opacity:1">
          <path
             id="path5193"
             transform="translate(148.712,134.765)"
             d="M 4.59375,-1.171875 C 4.078125,-0.515625 3.921875,-0.375 3.765625,-0.375 c -0.0625,0 -0.109375,-0.0625 -0.109375,-0.171875 0,-0.0625 0,-0.0625 0.1875,-0.78125 L 4.640625,-4.3125 h -0.75 c -0.5625,1.546875 -0.625,1.703125 -1.09375,2.4375 -0.59375,0.953125 -1.078125,1.453125 -1.40625,1.453125 -0.109375,0 -0.203125,-0.09375 -0.203125,-0.25 0,-0.03125 0,-0.0625 0.015625,-0.078125 l 0.90625,-3.625 -0.03125,-0.015625 c -0.578125,0.125 -0.9375,0.1875 -1.5,0.265625 v 0.140625 c 0.375,0 0.40625,0 0.484375,0.0625 C 1.125,-3.90625 1.171875,-3.8125 1.171875,-3.75 c 0,0.078125 -0.046875,0.328125 -0.140625,0.671875 l -0.359375,1.40625 c -0.1875,0.71875 -0.25,1.046875 -0.25,1.234375 0,0.359375 0.171875,0.546875 0.53125,0.546875 0.703125,0 1.234375,-0.53125 2.375,-2.46875 C 3.046875,-1.28125 2.875,-0.59375 2.875,-0.390625 c 0,0.296875 0.1875,0.484375 0.484375,0.484375 0.46875,0 0.703125,-0.203125 1.375,-1.171875 z m 0,0"
             style="stroke:none;stroke-width:0"
             inkscape:connector-curvature="0" />
        </g>
      </g>
    </g>
    <g
       id="g5263"
       ns1:jacobian_sqrt="1.333333"
       inkscapeversion="0.92.4"
       ns1:alignment="middle center"
       ns1:scale="1.0"
       ns1:preamble="/home/david/.config/inkscape/extensions/textext/default_packages.tex"
       ns1:text="$b$"
       ns1:pdfconverter="pdf2svg"
       ns1:texconverter="pdflatex"
       ns1:version="0.11.0"
       transform="matrix(1.333333,0,0,1.333333,113.12306,217.11165)">
      <g
         id="g5261">
        <g
           id="g5259"
           style="fill:#000000;fill-opacity:1">
          <path
             id="path5257"
             transform="translate(148.712,134.765)"
             d="M 1.09375,-6.40625 C 1.6875,-6.390625 1.75,-6.359375 1.75,-6.140625 c 0,0.09375 -0.03125,0.203125 -0.09375,0.421875 -0.015625,0.078125 -0.046875,0.140625 -0.046875,0.203125 l -0.03125,0.0625 -1.34375,5 v 0.03125 c 0,0.234375 0.765625,0.53125 1.328125,0.53125 1.5,0 3.15625,-1.75 3.15625,-3.3125 0,-0.6875 -0.484375,-1.1875 -1.15625,-1.1875 -0.703125,0 -1.21875,0.40625 -1.921875,1.5 0.515625,-1.890625 0.578125,-2.15625 1.03125,-3.875 L 2.625,-6.8125 c -0.5,0.09375 -0.859375,0.15625 -1.53125,0.234375 z m 2.078125,2.5 c 0.421875,0 0.703125,0.328125 0.703125,0.859375 0,0.65625 -0.515625,1.71875 -1.109375,2.34375 -0.359375,0.375 -0.796875,0.578125 -1.21875,0.578125 -0.3125,0 -0.453125,-0.109375 -0.453125,-0.328125 0,-0.609375 0.296875,-1.578125 0.703125,-2.3125 C 2.25,-3.53125 2.6875,-3.90625 3.171875,-3.90625 Z m 0,0"
             style="stroke:none;stroke-width:0"
             inkscape:connector-curvature="0" />
        </g>
      </g>
    </g>
    <g
       id="g5329"
       ns1:jacobian_sqrt="1.333333"
       inkscapeversion="0.92.4"
       ns1:alignment="middle center"
       ns1:scale="1.0"
       ns1:preamble="/home/david/.config/inkscape/extensions/textext/default_packages.tex"
       ns1:text="$N$"
       ns1:pdfconverter="pdf2svg"
       ns1:texconverter="pdflatex"
       ns1:version="0.11.0"
       transform="matrix(1.333333,0,0,1.333333,116.0814,120.06265)">
      <g
         id="g5327">
        <g
           id="g5325"
           style="fill:#000000;fill-opacity:1">
          <path
             id="path5323"
             transform="translate(148.712,134.765)"
             d="M 7.25,-6.515625 H 5.265625 v 0.171875 c 0.5625,0.046875 0.703125,0.140625 0.703125,0.5 0,0.125 -0.03125,0.234375 -0.09375,0.4375 -0.015625,0.03125 -0.015625,0.078125 -0.015625,0.078125 l -1.03125,3.796875 -2.0625,-4.984375 H 1.15625 V -6.34375 C 1.625,-6.3125 1.828125,-6.1875 2.015625,-5.796875 l -1.1875,4.15625 c -0.375,1.28125 -0.453125,1.40625 -1.03125,1.484375 V 0 H 1.78125 V -0.15625 C 1.265625,-0.203125 1.078125,-0.3125 1.078125,-0.59375 c 0,-0.125 0.03125,-0.328125 0.09375,-0.53125 l 1.125,-4.203125 2.296875,5.484375 h 0.1875 L 6.203125,-4.859375 C 6.578125,-6.15625 6.625,-6.203125 7.25,-6.34375 Z m 0,0"
             style="stroke:none;stroke-width:0"
             inkscape:connector-curvature="0" />
        </g>
      </g>
    </g>
  </g>
</svg>
