<?xml version="1.0" encoding="UTF-8" standalone="no"?>
<!-- Created with Inkscape (http://www.inkscape.org/) -->

<svg
   xmlns:dc="http://purl.org/dc/elements/1.1/"
   xmlns:cc="http://creativecommons.org/ns#"
   xmlns:rdf="http://www.w3.org/1999/02/22-rdf-syntax-ns#"
   xmlns:svg="http://www.w3.org/2000/svg"
   xmlns="http://www.w3.org/2000/svg"
   xmlns:sodipodi="http://sodipodi.sourceforge.net/DTD/sodipodi-0.dtd"
   xmlns:inkscape="http://www.inkscape.org/namespaces/inkscape"
   width="78.964088mm"
   height="58.889988mm"
   viewBox="0 0 279.79401 208.66531"
   id="svg2"
   version="1.1"
   inkscape:version="0.92.3 (2405546, 2018-03-11)"
   sodipodi:docname="NBI2.svg">
  <sodipodi:namedview
     id="base"
     pagecolor="#ffffff"
     bordercolor="#666666"
     borderopacity="1.0"
     inkscape:pageopacity="0.0"
     inkscape:pageshadow="2"
     inkscape:zoom="1.979899"
     inkscape:cx="219.32853"
     inkscape:cy="71.39596"
     inkscape:document-units="px"
     inkscape:current-layer="layer1"
     showgrid="false"
     inkscape:window-width="1920"
     inkscape:window-height="1025"
     inkscape:window-x="0"
     inkscape:window-y="27"
     inkscape:window-maximized="1"
     fit-margin-top="0"
     fit-margin-left="0"
     fit-margin-right="0"
     fit-margin-bottom="0" />
  <defs
     id="defs4">
    <marker
       inkscape:stockid="Arrow1Mend"
       orient="auto"
       refY="0"
       refX="0"
       id="Arrow1Mend"
       style="overflow:visible"
       inkscape:isstock="true">
      <path
         id="path4200"
         d="M 0,0 5,-5 -12.5,0 5,5 Z"
         style="fill:#000000;fill-opacity:1;fill-rule:evenodd;stroke:#000000;stroke-width:1.00000003pt;stroke-opacity:1"
         transform="matrix(-0.4,0,0,-0.4,-4,0)"
         inkscape:connector-curvature="0" />
    </marker>
    <marker
       inkscape:stockid="Arrow1Lstart"
       orient="auto"
       refY="0"
       refX="0"
       id="Arrow1Lstart"
       style="overflow:visible"
       inkscape:isstock="true">
      <path
         id="path4191"
         d="M 0,0 5,-5 -12.5,0 5,5 Z"
         style="fill:#000000;fill-opacity:1;fill-rule:evenodd;stroke:#000000;stroke-width:1.00000003pt;stroke-opacity:1"
         transform="matrix(0.8,0,0,0.8,10,0)"
         inkscape:connector-curvature="0" />
    </marker>
    <marker
       inkscape:stockid="Arrow1Mstart"
       orient="auto"
       refY="0"
       refX="0"
       id="Arrow1Mstart"
       style="overflow:visible"
       inkscape:isstock="true">
      <path
         id="path4197"
         d="M 0,0 5,-5 -12.5,0 5,5 Z"
         style="fill:#000000;fill-opacity:1;fill-rule:evenodd;stroke:#000000;stroke-width:1.00000003pt;stroke-opacity:1"
         transform="matrix(0.4,0,0,0.4,4,0)"
         inkscape:connector-curvature="0" />
    </marker>
    <marker
       inkscape:stockid="Arrow2Mend"
       orient="auto"
       refY="0"
       refX="0"
       id="Arrow2Mend"
       style="overflow:visible"
       inkscape:isstock="true">
      <path
         id="path4218"
         style="fill:#000000;fill-opacity:1;fill-rule:evenodd;stroke:#000000;stroke-width:0.625;stroke-linejoin:round;stroke-opacity:1"
         d="M 8.7185878,4.0337352 -2.2072895,0.01601326 8.7185884,-4.0017078 c -1.7454984,2.3720609 -1.7354408,5.6174519 -6e-7,8.035443 z"
         transform="scale(-0.6)"
         inkscape:connector-curvature="0" />
    </marker>
  </defs>
  <metadata
     id="metadata7">
    <rdf:RDF>
      <cc:Work
         rdf:about="">
        <dc:format>image/svg+xml</dc:format>
        <dc:type
           rdf:resource="http://purl.org/dc/dcmitype/StillImage" />
        <dc:title></dc:title>
      </cc:Work>
    </rdf:RDF>
  </metadata>
  <g
     inkscape:label="Capa 1"
     inkscape:groupmode="layer"
     id="layer1"
     transform="translate(-138.1767,-209.50506)">
    <path
       style="fill:none;fill-rule:evenodd;stroke:#000000;stroke-width:1px;stroke-linecap:butt;stroke-linejoin:miter;stroke-opacity:1"
       d="M 167.14286,209.50506 V 402.3622 h 237.14285"
       id="path4136"
       inkscape:connector-curvature="0"
       sodipodi:nodetypes="ccc" />
    <g
       id="g4142"
       transform="matrix(1.2097766,0,0,1.0669194,-98.309505,21.29174)">
      <path
         sodipodi:nodetypes="aaaaaaaa"
         inkscape:connector-curvature="0"
         id="path4138"
         d="m 226.79015,213.47887 c -16.95884,34.51945 0.007,84.88799 27.14286,112.14286 25.95388,26.06749 72.35515,38.38406 107.14285,26.42857 26.93759,-9.25764 45.63136,-39.59061 52.85715,-67.14285 3.54511,-13.51766 4.72284,-33.00595 -6.42858,-41.42858 -18.56971,-14.02565 -48.64608,19.32126 -69.28571,8.57143 -23.89955,-12.44771 -12.3792,-62.65313 -37.85714,-71.42857 -25.39426,-8.74662 -61.72839,8.75083 -73.57143,32.85714 z"
         style="fill:none;fill-rule:evenodd;stroke:#000000;stroke-width:1;stroke-linecap:butt;stroke-linejoin:miter;stroke-miterlimit:4;stroke-dasharray:2, 2;stroke-dashoffset:0;stroke-opacity:1" />
      <path
         sodipodi:nodetypes="cssssssssssc"
         inkscape:connector-curvature="0"
         id="path4140"
         d="m 219.96262,247.66157 c 0.625,10.80357 1.96029,16.81972 4.04061,25.00127 1.2811,5.03834 3.13433,9.93048 5.16806,14.71483 2.01765,4.74651 4.35955,9.36437 6.95377,13.82198 2.90065,4.98414 6.11615,9.79653 9.59645,14.39468 2.27946,3.01161 4.72041,5.91454 7.36693,8.60928 2.74665,2.79669 5.71238,5.38498 8.79551,7.8057 3.46683,2.72198 7.1051,5.23824 10.87314,7.52515 3.77668,2.29215 7.71676,4.32029 11.72136,6.18587 4.48705,2.09033 9.04124,4.0864 13.75567,5.59545 4.6196,1.4787 9.37465,2.5558 14.15745,3.36331 6.22792,1.05149 15.86001,1.82641 18.85108,1.9157"
         style="fill:none;fill-rule:evenodd;stroke:#e40000;stroke-width:2;stroke-linecap:butt;stroke-linejoin:miter;stroke-miterlimit:4;stroke-dasharray:none;stroke-opacity:1" />
    </g>
    <path
       style="fill:none;fill-rule:evenodd;stroke:#000000;stroke-width:1;stroke-linecap:butt;stroke-linejoin:miter;stroke-miterlimit:4;stroke-dasharray:6, 6;stroke-dashoffset:0;stroke-opacity:1"
       d="M 167.93787,286.16149 302.08288,401.40818"
       id="path4146"
       inkscape:connector-curvature="0"
       sodipodi:nodetypes="cc" />
    <path
       style="fill:none;fill-rule:evenodd;stroke:#000000;stroke-width:1;stroke-linecap:butt;stroke-linejoin:miter;stroke-miterlimit:4;stroke-dasharray:2, 2;stroke-dashoffset:0;stroke-opacity:1;marker-end:url(#Arrow1Mend)"
       d="m 216.91363,374.69468 81.44466,-94.7889 -79.40906,92.42964"
       id="path4146-5"
       inkscape:connector-curvature="0"
       sodipodi:nodetypes="ccc" />
    <rect
       style="opacity:1;fill:#a8a8a8;fill-opacity:1;fill-rule:evenodd;stroke:#2e2e2e;stroke-width:0.5;stroke-linecap:butt;stroke-linejoin:miter;stroke-miterlimit:4;stroke-dasharray:none;stroke-dashoffset:0;stroke-opacity:1"
       id="rect4575"
       width="4.1071429"
       height="4.1071429"
       x="165.89285"
       y="283.96936"
       ry="0" />
    <rect
       style="opacity:1;fill:#a8a8a8;fill-opacity:1;fill-rule:evenodd;stroke:#2e2e2e;stroke-width:0.5;stroke-linecap:butt;stroke-linejoin:miter;stroke-miterlimit:4;stroke-dasharray:none;stroke-dashoffset:0;stroke-opacity:1"
       id="rect4575-0"
       width="4.1071429"
       height="4.1071429"
       x="298.97189"
       y="399.26532"
       ry="0" />
    <circle
       style="opacity:1;fill:#a8a8a8;fill-opacity:1;fill-rule:evenodd;stroke:#2e2e2e;stroke-width:0.5;stroke-linecap:butt;stroke-linejoin:miter;stroke-miterlimit:4;stroke-dasharray:none;stroke-dashoffset:0;stroke-opacity:1"
       id="path4592"
       cx="166.80144"
       cy="402.20279"
       r="2.6516504" />
    <circle
       style="opacity:1;fill:#666666;fill-opacity:1;fill-rule:evenodd;stroke:#2e2e2e;stroke-width:0.5;stroke-linecap:butt;stroke-linejoin:miter;stroke-miterlimit:4;stroke-dasharray:none;stroke-dashoffset:0;stroke-opacity:1"
       id="path4592-1"
       cx="239.65869"
       cy="347.90707"
       r="2.6516504" />
    <text
       xml:space="preserve"
       style="font-style:normal;font-weight:normal;line-height:0%;font-family:sans-serif;text-align:end;letter-spacing:0px;word-spacing:0px;text-anchor:end;fill:#000000;fill-opacity:1;stroke:none;stroke-width:1px;stroke-linecap:butt;stroke-linejoin:miter;stroke-opacity:1"
       x="287.30643"
       y="285.57648"
       id="text4613"><tspan
         sodipodi:role="line"
         id="tspan4615"
         x="287.30643"
         y="285.57648"
         style="font-size:7.5px;line-height:1.25">feasible</tspan></text>
    <text
       xml:space="preserve"
       style="font-style:normal;font-weight:normal;line-height:0%;font-family:sans-serif;text-align:end;letter-spacing:0px;word-spacing:0px;text-anchor:end;fill:#000000;fill-opacity:1;stroke:none;stroke-width:1px;stroke-linecap:butt;stroke-linejoin:miter;stroke-opacity:1"
       x="279.15823"
       y="297.3725"
       id="text4613-9"><tspan
         sodipodi:role="line"
         id="tspan4615-1"
         x="279.15823"
         y="297.3725"
         style="font-size:7.5px;line-height:1.25">line</tspan></text>
    <text
       xml:space="preserve"
       style="font-style:normal;font-weight:normal;line-height:0%;font-family:sans-serif;text-align:end;letter-spacing:0px;word-spacing:0px;text-anchor:end;fill:#000000;fill-opacity:1;stroke:none;stroke-width:1px;stroke-linecap:butt;stroke-linejoin:miter;stroke-opacity:1"
       x="204.50835"
       y="372.71896"
       id="text4645"><tspan
         sodipodi:role="line"
         id="tspan4647"
         x="204.50835"
         y="372.71896"
         style="font-size:7.5px;line-height:1.25">Pareto</tspan><tspan
         sodipodi:role="line"
         x="204.50835"
         y="382.09396"
         style="font-size:7.5px;line-height:1.25"
         id="tspan1401">front</tspan></text>
    <text
       xml:space="preserve"
       style="font-style:normal;font-weight:normal;line-height:0%;font-family:sans-serif;text-align:start;letter-spacing:0px;word-spacing:0px;text-anchor:start;fill:#000000;fill-opacity:1;stroke:none;stroke-width:1px;stroke-linecap:butt;stroke-linejoin:miter;stroke-opacity:1"
       x="171.22086"
       y="284.8988"
       id="text4649"><tspan
         sodipodi:role="line"
         id="tspan4651"
         x="171.22086"
         y="284.8988"
         style="font-size:7.5px;line-height:1.25">anchor point</tspan></text>
    <text
       xml:space="preserve"
       style="font-style:normal;font-weight:normal;line-height:0%;font-family:sans-serif;text-align:start;letter-spacing:0px;word-spacing:0px;text-anchor:start;fill:#000000;fill-opacity:1;stroke:none;stroke-width:1px;stroke-linecap:butt;stroke-linejoin:miter;stroke-opacity:1"
       x="301.0372"
       y="412.78882"
       id="text4649-2"><tspan
         sodipodi:role="line"
         id="tspan4651-7"
         x="301.0372"
         y="412.78882"
         style="font-size:7.5px;line-height:1.25">anchor point</tspan></text>
    <text
       xml:space="preserve"
       style="font-style:normal;font-weight:normal;line-height:0%;font-family:sans-serif;text-align:start;letter-spacing:0px;word-spacing:0px;text-anchor:start;fill:#000000;fill-opacity:1;stroke:none;stroke-width:1px;stroke-linecap:butt;stroke-linejoin:miter;stroke-opacity:1"
       x="282.4935"
       y="380.23419"
       id="text4649-1"><tspan
         sodipodi:role="line"
         id="tspan4651-4"
         x="282.4935"
         y="380.23419"
         style="font-size:7.5px;line-height:1.25">utopia plane</tspan></text>
    <text
       xml:space="preserve"
       style="font-style:normal;font-weight:normal;line-height:0%;font-family:sans-serif;text-align:end;letter-spacing:0px;word-spacing:0px;text-anchor:end;fill:#000000;fill-opacity:1;stroke:none;stroke-width:1px;stroke-linecap:butt;stroke-linejoin:miter;stroke-opacity:1"
       x="161.26996"
       y="399.65973"
       id="text4689"><tspan
         sodipodi:role="line"
         id="tspan4691"
         x="161.26996"
         y="399.65973"
         style="font-size:7.5px;line-height:1.25;text-align:end;text-anchor:end">utopia</tspan><tspan
         sodipodi:role="line"
         x="161.26996"
         y="409.03473"
         style="font-size:7.5px;line-height:1.25;text-align:end;text-anchor:end"
         id="tspan1403">point</tspan></text>
    <g
       transform="translate(60.602677,110.15624)"
       id="g1007">
      <g
         style="font-style:normal;font-variant:normal;font-weight:normal;font-stretch:normal;letter-spacing:normal;word-spacing:normal;text-anchor:start;fill:none;fill-opacity:1;fill-rule:evenodd;stroke:#000000;stroke-linecap:butt;stroke-linejoin:miter;stroke-miterlimit:10.43299961;stroke-dasharray:none;stroke-dashoffset:0;stroke-opacity:1"
         id="content"
         transform="matrix(0.32049698,0,0,-0.32049698,-56.086971,241.89392)"
         xml:space="preserve"
         stroke-miterlimit="10.433"
         font-style="normal"
         font-variant="normal"
         font-weight="normal"
         font-stretch="normal"
         font-size-adjust="none"
         letter-spacing="normal"
         word-spacing="normal"><path
           style="fill:#000000;stroke-width:0"
           inkscape:connector-curvature="0"
           d="m 473.8,426.12 h 4.28 c 1,0 1.5,0 1.5,1 0,0.55 -0.5,0.55 -1.34,0.55 h -4.14 l 1.04,5.69 c 0.21,1.04 0.91,4.57 1.21,5.17 0.45,0.95 1.29,1.7 2.34,1.7 0.19,0 1.49,0 2.44,-0.91 -2.19,-0.18 -2.69,-1.93 -2.69,-2.68 0,-1.14 0.89,-1.74 1.85,-1.74 1.29,0 2.73,1.1 2.73,2.99 0,2.29 -2.3,3.43 -4.33,3.43 -1.7,0 -4.84,-0.89 -6.33,-5.82 -0.29,-1.05 -0.45,-1.55 -1.64,-7.83 h -3.43 c -0.96,0 -1.5,0 -1.5,-0.94 0,-0.61 0.45,-0.61 1.39,-0.61 h 3.29 l -3.75,-19.67 c -0.89,-4.83 -1.73,-9.38 -4.33,-9.38 -0.2,0 -1.43,0 -2.39,0.91 2.3,0.14 2.74,1.94 2.74,2.69 0,1.14 -0.89,1.75 -1.85,1.75 -1.29,0 -2.73,-1.1 -2.73,-3 0,-2.24 2.19,-3.44 4.23,-3.44 2.74,0 4.74,2.94 5.63,4.84 1.59,3.14 2.75,9.16 2.8,9.52 z"
           id="path1002" /><path
           style="fill:#000000;stroke-width:0"
           inkscape:connector-curvature="0"
           d="m 491.55,420.92 v 0.04 0.04 0.05 0.04 0.03 0.04 0.04 0.03 l -0.01,0.04 v 0.03 0.03 0.03 0.03 l -0.01,0.03 v 0.03 0.02 l -0.01,0.03 v 0.02 l -0.01,0.03 v 0.02 l -0.02,0.04 -0.01,0.04 -0.02,0.03 -0.02,0.03 -0.02,0.03 -0.02,0.03 -0.03,0.02 -0.03,0.02 -0.04,0.02 -0.03,0.01 -0.04,0.01 -0.05,0.02 h -0.02 -0.03 l -0.02,0.01 h -0.03 l -0.02,0.01 h -0.03 -0.03 -0.03 -0.04 l -0.03,0.01 h -0.03 -0.04 -0.04 -0.03 -0.04 -0.04 -0.04 -0.05 -0.04 -0.05 c -2.23,-2.2 -5.39,-2.23 -6.82,-2.23 v -1.25 c 0.84,0 3.14,0 5.04,0.97 v -17.77 c 0,-1.16 0,-1.61 -3.48,-1.61 h -1.31 v -1.25 c 0.62,0.03 4.9,0.14 6.2,0.14 1.08,0 5.47,-0.11 6.23,-0.14 v 1.25 h -1.32 c -3.49,0 -3.49,0.45 -3.49,1.61 z"
           id="path1004" /></g>    </g>
    <g
       id="g1109"
       transform="translate(158.37053,240.06696)">
      <g
         word-spacing="normal"
         letter-spacing="normal"
         font-size-adjust="none"
         font-stretch="normal"
         font-weight="normal"
         font-variant="normal"
         font-style="normal"
         stroke-miterlimit="10.433"
         xml:space="preserve"
         transform="matrix(0.32049698,0,0,-0.32049698,-56.086971,241.89392)"
         id="g1107"
         style="font-style:normal;font-variant:normal;font-weight:normal;font-stretch:normal;letter-spacing:normal;word-spacing:normal;text-anchor:start;fill:none;fill-opacity:1;fill-rule:evenodd;stroke:#000000;stroke-linecap:butt;stroke-linejoin:miter;stroke-miterlimit:10.43299961;stroke-dasharray:none;stroke-dashoffset:0;stroke-opacity:1"><path
           id="path1103"
           d="m 475.39,412.92 0.72,0.07 0.71,0.09 0.69,0.11 0.67,0.14 0.66,0.15 0.64,0.18 0.63,0.2 0.61,0.21 0.59,0.23 0.58,0.26 0.55,0.26 0.54,0.29 0.51,0.3 0.5,0.31 0.47,0.33 0.45,0.34 0.43,0.36 0.41,0.37 0.38,0.37 0.36,0.4 0.33,0.4 0.31,0.41 0.28,0.42 0.25,0.42 0.23,0.44 0.19,0.44 0.17,0.45 0.14,0.45 0.11,0.46 0.08,0.47 0.05,0.46 0.01,0.47 c 0,5.19 -5.67,9.72 -13.25,10.32 v -1.1 c 6.88,-0.79 8.29,-5.37 8.29,-9.17 0,-2.98 -0.75,-8.31 -8.29,-9.2 v 18.37 1.1 2.79 c 0,1.69 0,2.39 4.74,2.39 h 1.64 v 1.55 c -1.78,-0.16 -6.38,-0.16 -8.41,-0.16 -2.04,0 -6.68,0 -8.48,0.16 v -1.55 h 1.66 c 4.73,0 4.73,-0.65 4.73,-2.39 v -2.79 -1.14 -18.29 c -7.08,0.94 -7.98,6.04 -7.98,9.11 0,2.6 0.5,8.18 7.98,9.18 v 1.14 c -7.63,-0.74 -12.95,-5.33 -12.95,-10.27 0,-5.12 5.51,-9.56 12.95,-10.31 v -2.78 c 0,-1.71 0,-2.39 -4.73,-2.39 h -1.66 v -1.55 c 1.8,0.16 6.39,0.16 8.42,0.16 2.05,0 6.69,0 8.47,-0.16 v 1.55 h -1.64 c -4.74,0 -4.74,0.64 -4.74,2.39 z"
           inkscape:connector-curvature="0"
           style="fill:#000000;stroke-width:0" /><path
           id="path1105"
           d="m 520.16,434.54 -0.01,0.35 -0.02,0.35 -0.04,0.33 -0.06,0.34 -0.06,0.33 -0.09,0.32 -0.1,0.32 -0.11,0.31 -0.13,0.3 -0.14,0.29 -0.15,0.29 -0.17,0.27 -0.18,0.27 -0.19,0.26 -0.2,0.25 -0.22,0.24 -0.23,0.22 -0.24,0.22 -0.25,0.2 -0.26,0.2 -0.28,0.17 -0.28,0.17 -0.29,0.15 -0.31,0.14 -0.31,0.12 -0.32,0.11 -0.34,0.09 -0.34,0.08 -0.35,0.06 -0.35,0.05 -0.37,0.02 -0.37,0.01 c -2.9,0 -4.29,-0.8 -6.04,-2.09 -2.73,-1.99 -5.48,-6.83 -6.42,-10.61 l -7.92,-31.64 c -0.06,-0.19 0.19,-0.5 0.59,-0.5 0.39,0 0.55,0.11 0.6,0.25 l 3.48,13.75 c 0.95,-2.99 3.14,-4.83 6.78,-4.83 l -0.15,1.09 c -3.78,0 -5.68,2.89 -5.68,6.44 0,0.48 0,1.23 0.25,2.19 l 3.19,12.61 c 1.1,4.28 4.69,12.2 10.66,12.2 2.89,0 4.64,-1.55 4.64,-4.53 v 0 c 0,-3.5 -1.89,-7.08 -4.48,-8.63 -1.35,0.5 -2.35,0.6 -3.85,0.6 -1.05,0 -3.83,0.04 -3.83,-1.6 -0.04,-1.39 2.53,-1.23 3.44,-1.23 l 0.14,1.09 c -0.69,0 -1.69,-0.06 -2.19,0.19 0.11,0.5 1.89,0.41 2.44,0.41 1.05,0 1.5,0 2.14,-0.25 v 0 c -0.64,-0.25 -1.19,-0.35 -2.39,-0.35 l -0.14,-1.09 c 1.84,0 2.59,0.05 4.08,0.64 1.89,-1.8 2.14,-3.34 2.2,-5.62 0.09,-2.9 -1.11,-6.63 -2.5,-8.58 -1.94,-2.69 -5.28,-4.49 -8.12,-4.49 l 0.15,-1.09 c 3.64,0 7.38,1.75 9.61,3.94 2.39,2.29 4,5.48 4,9.17 0,3.58 -1.84,6.17 -3.64,7.42 2.89,1.64 5.72,4.73 5.72,8.31 z"
           inkscape:connector-curvature="0"
           style="fill:#000000;stroke-width:0" /></g>    </g>
    <g
       transform="translate(314.62005,303.18684)"
       id="g1234">
      <g
         style="font-style:normal;font-variant:normal;font-weight:normal;font-stretch:normal;letter-spacing:normal;word-spacing:normal;text-anchor:start;fill:none;fill-opacity:1;fill-rule:evenodd;stroke:#000000;stroke-linecap:butt;stroke-linejoin:miter;stroke-miterlimit:10.43299961;stroke-dasharray:none;stroke-dashoffset:0;stroke-opacity:1"
         id="g1232"
         transform="matrix(0.32049698,0,0,-0.32049698,-56.086971,241.89392)"
         xml:space="preserve"
         stroke-miterlimit="10.433"
         font-style="normal"
         font-variant="normal"
         font-weight="normal"
         font-stretch="normal"
         font-size-adjust="none"
         letter-spacing="normal"
         word-spacing="normal"><path
           style="fill:#000000;stroke-width:0"
           inkscape:connector-curvature="0"
           d="m 473.8,426.12 h 4.28 c 1,0 1.5,0 1.5,1 0,0.55 -0.5,0.55 -1.34,0.55 h -4.14 l 1.04,5.69 c 0.21,1.04 0.91,4.57 1.21,5.17 0.45,0.95 1.29,1.7 2.34,1.7 0.19,0 1.49,0 2.44,-0.91 -2.19,-0.18 -2.69,-1.93 -2.69,-2.68 0,-1.14 0.89,-1.74 1.85,-1.74 1.29,0 2.73,1.1 2.73,2.99 0,2.29 -2.3,3.43 -4.33,3.43 -1.7,0 -4.84,-0.89 -6.33,-5.82 -0.29,-1.05 -0.45,-1.55 -1.64,-7.83 h -3.43 c -0.96,0 -1.5,0 -1.5,-0.94 0,-0.61 0.45,-0.61 1.39,-0.61 h 3.29 l -3.75,-19.67 c -0.89,-4.83 -1.73,-9.38 -4.33,-9.38 -0.2,0 -1.43,0 -2.39,0.91 2.3,0.14 2.74,1.94 2.74,2.69 0,1.14 -0.89,1.75 -1.85,1.75 -1.29,0 -2.73,-1.1 -2.73,-3 0,-2.24 2.19,-3.44 4.23,-3.44 2.74,0 4.74,2.94 5.63,4.84 1.59,3.14 2.75,9.16 2.8,9.52 z"
           id="path1228" /><path
           style="fill:#000000;stroke-width:0"
           inkscape:connector-curvature="0"
           d="m 497.47,405.11 h -1.18 c -0.1,-0.77 -0.46,-2.83 -0.91,-3.18 -0.27,-0.2 -2.95,-0.2 -3.44,-0.2 h -6.42 c 3.66,3.23 4.87,4.2 6.97,5.84 2.58,2.07 4.98,4.22 4.98,7.54 0,4.21 -3.68,6.79 -8.15,6.79 -4.32,0 -7.25,-3.03 -7.25,-6.23 0,-1.78 1.5,-1.96 1.86,-1.96 0.82,0 1.84,0.6 1.84,1.85 0,0.62 -0.25,1.84 -2.06,1.84 1.08,2.47 3.45,3.24 5.09,3.24 3.49,0 5.3,-2.71 5.3,-5.53 0,-3.04 -2.16,-5.44 -3.28,-6.69 l -8.39,-8.3 c -0.36,-0.31 -0.36,-0.39 -0.36,-1.36 h 14.36 z"
           id="path1230" /></g>    </g>
    <g
       id="g1344"
       transform="translate(123.64328,250.38123)">
      <g
         word-spacing="normal"
         letter-spacing="normal"
         font-size-adjust="none"
         font-stretch="normal"
         font-weight="normal"
         font-variant="normal"
         font-style="normal"
         stroke-miterlimit="10.433"
         xml:space="preserve"
         transform="matrix(0.32049698,0,0,-0.32049698,-56.086971,241.89392)"
         id="g1342"
         style="font-style:normal;font-variant:normal;font-weight:normal;font-stretch:normal;letter-spacing:normal;word-spacing:normal;text-anchor:start;fill:none;fill-opacity:1;fill-rule:evenodd;stroke:#000000;stroke-linecap:butt;stroke-linejoin:miter;stroke-miterlimit:10.43299961;stroke-dasharray:none;stroke-dashoffset:0;stroke-opacity:1"><polygon
           id="polygon1338"
           points="464.78,434.72 465.67,433.83 471.45,438.91 477.19,433.83 478.08,434.72 471.45,441.5 "
           style="fill:#000000;stroke-width:0" /><path
           id="path1340"
           d="m 461.19,423.93 v -15.39 h -3.44 v -2.34 c 1.41,0.05 4.39,0.16 6.29,0.16 1.95,0 4.89,-0.11 6.28,-0.16 v 2.34 h -3.44 v 10.41 c 0,5.44 4.28,7.87 7.42,7.87 1.7,0 2.74,-1.04 2.74,-4.82 v -13.46 h -3.44 v -2.34 c 1.4,0.05 4.39,0.16 6.28,0.16 1.95,0 4.89,-0.11 6.28,-0.16 v 2.34 h -3.44 v 12.91 c 0,5.23 -2.68,7.17 -7.67,7.17 -4.78,0 -7.42,-2.84 -8.72,-5.39 v 5.39 l -8.58,-0.41 v -2.34 c 3.1,0 3.44,0 3.44,-1.94 z"
           inkscape:connector-curvature="0"
           style="fill:#000000;stroke-width:0" /></g>    </g>
  </g>
</svg>
