<?xml version="1.0" encoding="UTF-8" standalone="no"?>
<!-- Created with Inkscape (http://www.inkscape.org/) -->

<svg
   xmlns:dc="http://purl.org/dc/elements/1.1/"
   xmlns:cc="http://creativecommons.org/ns#"
   xmlns:rdf="http://www.w3.org/1999/02/22-rdf-syntax-ns#"
   xmlns:svg="http://www.w3.org/2000/svg"
   xmlns="http://www.w3.org/2000/svg"
   xmlns:sodipodi="http://sodipodi.sourceforge.net/DTD/sodipodi-0.dtd"
   xmlns:inkscape="http://www.inkscape.org/namespaces/inkscape"
   width="267.08481"
   height="397.71497"
   id="svg2"
   version="1.1"
   inkscape:version="0.48.4 r9939"
   sodipodi:docname="sPareto.svg">
  <defs
     id="defs4">
    <marker
       inkscape:stockid="Arrow1Mstart"
       orient="auto"
       refY="0"
       refX="0"
       id="Arrow1Mstart"
       style="overflow:visible">
      <path
         id="path4300"
         d="M 0,0 5,-5 -12.5,0 5,5 0,0 z"
         style="fill-rule:evenodd;stroke:#000000;stroke-width:1pt"
         transform="matrix(0.4,0,0,0.4,4,0)"
         inkscape:connector-curvature="0" />
    </marker>
    <marker
       inkscape:stockid="Arrow2Lend"
       orient="auto"
       refY="0"
       refX="0"
       id="Arrow2Lend"
       style="overflow:visible">
      <path
         id="path4315"
         style="fill-rule:evenodd;stroke-width:0.625;stroke-linejoin:round"
         d="M 8.7185878,4.0337352 -2.2072895,0.01601326 8.7185884,-4.0017078 c -1.7454984,2.3720609 -1.7354408,5.6174519 -6e-7,8.035443 z"
         transform="matrix(-1.1,0,0,-1.1,-1.1,0)"
         inkscape:connector-curvature="0" />
    </marker>
    <marker
       inkscape:stockid="Arrow2Lstart"
       orient="auto"
       refY="0"
       refX="0"
       id="Arrow2Lstart"
       style="overflow:visible">
      <path
         id="path4312"
         style="fill-rule:evenodd;stroke-width:0.625;stroke-linejoin:round"
         d="M 8.7185878,4.0337352 -2.2072895,0.01601326 8.7185884,-4.0017078 c -1.7454984,2.3720609 -1.7354408,5.6174519 -6e-7,8.035443 z"
         transform="matrix(1.1,0,0,1.1,1.1,0)"
         inkscape:connector-curvature="0" />
    </marker>
    <marker
       inkscape:stockid="Arrow1Lstart"
       orient="auto"
       refY="0"
       refX="0"
       id="Arrow1Lstart"
       style="overflow:visible">
      <path
         id="path4294"
         d="M 0,0 5,-5 -12.5,0 5,5 0,0 z"
         style="fill-rule:evenodd;stroke:#000000;stroke-width:1pt"
         transform="matrix(0.8,0,0,0.8,10,0)"
         inkscape:connector-curvature="0" />
    </marker>
    <marker
       inkscape:stockid="Arrow1Lend"
       orient="auto"
       refY="0"
       refX="0"
       id="Arrow1Lend"
       style="overflow:visible">
      <path
         id="path4297"
         d="M 0,0 5,-5 -12.5,0 5,5 0,0 z"
         style="fill-rule:evenodd;stroke:#000000;stroke-width:1pt"
         transform="matrix(-0.8,0,0,-0.8,-10,0)"
         inkscape:connector-curvature="0" />
    </marker>
    <marker
       inkscape:stockid="Arrow2Lend"
       orient="auto"
       refY="0"
       refX="0"
       id="Arrow2Lend-6"
       style="overflow:visible">
      <path
         id="path4315-8"
         style="fill-rule:evenodd;stroke-width:0.625;stroke-linejoin:round"
         d="M 8.7185878,4.0337352 -2.2072895,0.01601326 8.7185884,-4.0017078 c -1.7454984,2.3720609 -1.7354408,5.6174519 -6e-7,8.035443 z"
         transform="matrix(-1.1,0,0,-1.1,-1.1,0)"
         inkscape:connector-curvature="0" />
    </marker>
    <marker
       inkscape:stockid="Arrow2Lstart"
       orient="auto"
       refY="0"
       refX="0"
       id="Arrow2Lstart-5"
       style="overflow:visible">
      <path
         id="path4312-7"
         style="fill-rule:evenodd;stroke-width:0.625;stroke-linejoin:round"
         d="M 8.7185878,4.0337352 -2.2072895,0.01601326 8.7185884,-4.0017078 c -1.7454984,2.3720609 -1.7354408,5.6174519 -6e-7,8.035443 z"
         transform="matrix(1.1,0,0,1.1,1.1,0)"
         inkscape:connector-curvature="0" />
    </marker>
    <marker
       inkscape:stockid="Arrow1Mstart"
       orient="auto"
       refY="0"
       refX="0"
       id="Arrow1Mstart-1"
       style="overflow:visible">
      <path
         inkscape:connector-curvature="0"
         id="path4300-3"
         d="M 0,0 5,-5 -12.5,0 5,5 0,0 z"
         style="fill-rule:evenodd;stroke:#000000;stroke-width:1pt"
         transform="matrix(0.4,0,0,0.4,4,0)" />
    </marker>
  </defs>
  <sodipodi:namedview
     id="base"
     pagecolor="#ffffff"
     bordercolor="#666666"
     borderopacity="1.0"
     inkscape:pageopacity="0.0"
     inkscape:pageshadow="2"
     inkscape:zoom="1.5630852"
     inkscape:cx="169.52428"
     inkscape:cy="92.195467"
     inkscape:document-units="px"
     inkscape:current-layer="layer1"
     showgrid="false"
     showguides="true"
     inkscape:guide-bbox="true"
     inkscape:window-width="1280"
     inkscape:window-height="738"
     inkscape:window-x="-8"
     inkscape:window-y="-8"
     inkscape:window-maximized="1"
     fit-margin-top="0"
     fit-margin-left="0"
     fit-margin-right="0"
     fit-margin-bottom="0" />
  <metadata
     id="metadata7">
    <rdf:RDF>
      <cc:Work
         rdf:about="">
        <dc:format>image/svg+xml</dc:format>
        <dc:type
           rdf:resource="http://purl.org/dc/dcmitype/StillImage" />
      </cc:Work>
    </rdf:RDF>
  </metadata>
  <g
     inkscape:label="Capa 1"
     inkscape:groupmode="layer"
     id="layer1"
     transform="translate(-11.848804,-421.57922)">
    <path
       style="fill:none;stroke:#000000;stroke-width:1px;stroke-linecap:butt;stroke-linejoin:miter;stroke-opacity:1"
       d="m 92.673782,500.66534 c 29.913768,34.43288 53.886978,28.48008 53.953308,28.46361"
       id="path3890"
       inkscape:connector-curvature="0"
       sodipodi:nodetypes="cc" />
    <path
       style="fill:none;stroke:#000000;stroke-width:1;stroke-linecap:butt;stroke-linejoin:miter;stroke-miterlimit:4;stroke-opacity:1;stroke-dasharray:1, 1;stroke-dashoffset:0"
       d="m 146.35331,529.14063 c 0,0 12.50595,-1.52099 14.19594,-4.73197 1.68999,-3.21099 3.37998,-8.95696 -8.95696,-16.39293 -12.33694,-7.43596 -13.51994,-10.98495 -13.51994,-10.98495 0,0 -18.08291,-25.68787 -34.13784,-17.91391 -16.054922,7.77396 -11.153952,21.9699 -11.153952,21.9699"
       id="path3892"
       inkscape:connector-curvature="0" />
    <path
       style="fill:none;stroke:#000000;stroke-width:1px;stroke-linecap:butt;stroke-linejoin:miter;stroke-opacity:1"
       d="m 127.3278,517.00809 c 23.48011,39.10423 48.12281,37.40477 48.19099,37.40007"
       id="path3890-4"
       inkscape:connector-curvature="0"
       sodipodi:nodetypes="cc" />
    <path
       style="fill:none;stroke:#000000;stroke-width:1;stroke-linecap:butt;stroke-linejoin:miter;stroke-miterlimit:4;stroke-opacity:1;stroke-dasharray:1, 1;stroke-dashoffset:0"
       d="m 175.24714,554.37213 c 0,0 12.58007,0.67375 14.80197,-2.19499 2.2219,-2.86874 4.88399,-8.23395 -5.97428,-17.69924 -10.85827,-9.46528 -11.40702,-13.16578 -11.40702,-13.16578 0,0 -13.34754,-28.43768 -30.5085,-23.56973 -17.16094,4.86795 -14.79953,19.69926 -14.79953,19.69926"
       id="path3892-0"
       inkscape:connector-curvature="0" />
    <path
       style="fill:none;stroke:#000000;stroke-width:1px;stroke-linecap:butt;stroke-linejoin:miter;stroke-opacity:1"
       d="m 178.29111,482.63069 c 16.92336,29.74618 30.48593,24.60363 30.52345,24.58939"
       id="path3890-9"
       inkscape:connector-curvature="0"
       sodipodi:nodetypes="cc" />
    <path
       style="fill:none;stroke:#000000;stroke-width:1;stroke-linecap:butt;stroke-linejoin:miter;stroke-miterlimit:4;stroke-opacity:1;stroke-dasharray:1, 1;stroke-dashoffset:0"
       d="m 208.65968,507.23018 c 0,0 7.07508,-1.31397 8.03118,-4.0879 0.95609,-2.77393 1.53312,-6.86311 -5.06729,-14.16166 -3.19919,-3.53757 -7.54215,-9.40839 -7.64876,-9.48978 -5.22336,-7.0899 -10.78716,-22.94747 -19.31308,-15.47562 -8.75263,7.67053 -6.31022,18.97954 -6.31022,18.97954"
       id="path3892-4"
       inkscape:connector-curvature="0"
       sodipodi:nodetypes="csscsc" />
    <path
       style="fill:none;stroke:#000000;stroke-width:1px;stroke-linecap:butt;stroke-linejoin:miter;stroke-opacity:1;marker-start:url(#Arrow2Lstart);marker-mid:none;marker-end:none"
       d="m 67.876276,422.90724 c 0,157.18903 -0.478002,157.18903 -0.478002,157.18903"
       id="path3926"
       inkscape:connector-curvature="0" />
    <path
       style="fill:none;stroke:#000000;stroke-width:1px;stroke-linecap:butt;stroke-linejoin:miter;stroke-opacity:1;marker-end:url(#Arrow2Lend)"
       d="m 67.398274,580.57426 c 187.854766,0 187.854766,0 187.854766,0"
       id="path3928"
       inkscape:connector-curvature="0" />
    <text
       xml:space="preserve"
       style="font-size:8px;font-style:normal;font-weight:normal;text-align:center;line-height:125%;letter-spacing:0px;word-spacing:0px;text-anchor:middle;fill:#000000;fill-opacity:1;stroke:none;font-family:Sans"
       x="198.3708"
       y="444.34372"
       id="text5852"
       sodipodi:linespacing="125%"><tspan
         sodipodi:role="line"
         id="tspan5854"
         x="198.3708"
         y="444.34372">Frontera de Pareto</tspan></text>
    <path
       style="fill:none;stroke:#000000;stroke-width:1px;stroke-linecap:butt;stroke-linejoin:miter;stroke-opacity:1"
       d="m 255.73104,442.1927 c 10.51604,0 10.99404,0 10.99404,0"
       id="path5856"
       inkscape:connector-curvature="0" />
    <text
       xml:space="preserve"
       style="font-size:20px;font-style:normal;font-weight:normal;text-align:end;line-height:125%;letter-spacing:0px;word-spacing:0px;text-anchor:end;fill:#000000;fill-opacity:1;stroke:none;font-family:Sans"
       x="279.88089"
       y="605.40723"
       id="text8492"
       sodipodi:linespacing="125%"><tspan
         sodipodi:role="line"
         id="tspan8494"
         x="279.88089"
         y="605.40723">$f_1$</tspan></text>
    <text
       xml:space="preserve"
       style="font-size:20px;font-style:normal;font-weight:normal;text-align:end;line-height:125%;letter-spacing:0px;word-spacing:0px;text-anchor:end;fill:#000000;fill-opacity:1;stroke:none;font-family:Sans"
       x="61.214039"
       y="442.40857"
       id="text8492-8"
       sodipodi:linespacing="125%"><tspan
         sodipodi:role="line"
         id="tspan8494-8"
         x="61.214039"
         y="442.40857">$f_2$</tspan></text>
    <path
       style="fill:none;stroke:#000000;stroke-width:1;stroke-linecap:butt;stroke-linejoin:miter;stroke-miterlimit:4;stroke-opacity:1;stroke-dasharray:1, 1;stroke-dashoffset:0"
       d="m 146.72909,742.25176 c 0,0 12.50595,-1.52099 14.19594,-4.73197 1.68999,-3.21099 3.37998,-8.95696 -8.95696,-16.39293 -12.33694,-7.43596 -13.51994,-10.98495 -13.51994,-10.98495 0,0 -18.08291,-25.68787 -34.13784,-17.91391 -16.054931,7.77396 -11.153961,21.9699 -11.153961,21.9699"
       id="path3892-1"
       inkscape:connector-curvature="0" />
    <path
       style="fill:none;stroke:#000000;stroke-width:1px;stroke-linecap:butt;stroke-linejoin:miter;stroke-opacity:1"
       d="m 130.81061,740.75476 c 20.45244,26.86346 45.02457,26.77148 45.08396,26.76825"
       id="path3890-4-8"
       inkscape:connector-curvature="0"
       sodipodi:nodetypes="cc" />
    <path
       style="fill:none;stroke:#000000;stroke-width:1;stroke-linecap:butt;stroke-linejoin:miter;stroke-miterlimit:4;stroke-opacity:1;stroke-dasharray:1, 1;stroke-dashoffset:0"
       d="m 175.62292,767.48326 c 0,0 12.58007,0.67375 14.80197,-2.19499 2.2219,-2.86874 4.88399,-8.23395 -5.97428,-17.69924 -10.85827,-9.46528 -11.40702,-13.16578 -11.40702,-13.16578 0,0 -13.34754,-28.43768 -30.5085,-23.56973 -17.16094,4.86795 -14.79953,19.69926 -14.79953,19.69926"
       id="path3892-0-9"
       inkscape:connector-curvature="0" />
    <path
       style="fill:none;stroke:#000000;stroke-width:1;stroke-linecap:butt;stroke-linejoin:miter;stroke-miterlimit:4;stroke-opacity:1;stroke-dasharray:1, 1;stroke-dashoffset:0"
       d="m 178.66689,695.74182 c 16.92336,29.74618 30.48593,24.60363 30.52345,24.58939"
       id="path3890-9-2"
       inkscape:connector-curvature="0"
       sodipodi:nodetypes="cc" />
    <path
       style="fill:none;stroke:#000000;stroke-width:1;stroke-linecap:butt;stroke-linejoin:miter;stroke-miterlimit:4;stroke-opacity:1;stroke-dasharray:1, 1;stroke-dashoffset:0"
       d="m 209.03546,720.34131 c 0,0 7.07508,-1.31397 8.03118,-4.0879 0.95609,-2.77393 1.53312,-6.86311 -5.06729,-14.16166 -3.19919,-3.53757 -7.54215,-9.40839 -7.64876,-9.48978 -5.22336,-7.0899 -10.78716,-22.94747 -19.31308,-15.47562 -8.75263,7.67053 -6.31022,18.97954 -6.31022,18.97954"
       id="path3892-4-7"
       inkscape:connector-curvature="0"
       sodipodi:nodetypes="csscsc" />
    <path
       style="fill:none;stroke:#000000;stroke-width:1px;stroke-linecap:butt;stroke-linejoin:miter;stroke-opacity:1;marker-start:url(#Arrow2Lstart);marker-mid:none;marker-end:none"
       d="m 68.25205,636.01837 c 0,157.18903 -0.478002,157.18903 -0.478002,157.18903"
       id="path3926-9"
       inkscape:connector-curvature="0" />
    <path
       style="fill:none;stroke:#000000;stroke-width:1px;stroke-linecap:butt;stroke-linejoin:miter;stroke-opacity:1;marker-end:url(#Arrow2Lend)"
       d="m 67.774048,793.68539 c 187.854772,0 187.854772,0 187.854772,0"
       id="path3928-5"
       inkscape:connector-curvature="0" />
    <text
       xml:space="preserve"
       style="font-size:20px;font-style:normal;font-weight:normal;text-align:end;line-height:125%;letter-spacing:0px;word-spacing:0px;text-anchor:end;fill:#000000;fill-opacity:1;stroke:none;font-family:Sans"
       x="278.3374"
       y="815.31958"
       id="text8492-2"
       sodipodi:linespacing="125%"><tspan
         sodipodi:role="line"
         id="tspan8494-3"
         x="278.3374"
         y="815.31958">$f_1$</tspan></text>
    <text
       xml:space="preserve"
       style="font-size:20px;font-style:normal;font-weight:normal;text-align:end;line-height:125%;letter-spacing:0px;word-spacing:0px;text-anchor:end;fill:#000000;fill-opacity:1;stroke:none;font-family:Sans"
       x="61.589809"
       y="655.51971"
       id="text8492-8-3"
       sodipodi:linespacing="125%"><tspan
         sodipodi:role="line"
         id="tspan8494-8-4"
         x="61.589809"
         y="655.51971">$f_2$</tspan></text>
    <path
       style="fill:none;stroke:#000000;stroke-width:1;stroke-linecap:butt;stroke-linejoin:miter;stroke-miterlimit:4;stroke-opacity:1;stroke-dasharray:1, 1;stroke-dashoffset:0"
       d="m 127.65594,730.2707 c 2.17848,13.45456 3.94352,10.75504 3.94352,10.75504"
       id="path6056"
       inkscape:connector-curvature="0"
       sodipodi:nodetypes="cc" />
    <path
       style="fill:none;stroke:#000000;stroke-width:1;stroke-linecap:butt;stroke-linejoin:miter;stroke-miterlimit:4;stroke-opacity:1;stroke-dasharray:1, 1;stroke-dashoffset:0"
       d="m 146.89552,742.22074 c -11.22629,1.13989 -13.61178,-0.33971 -16.49107,-1.673"
       id="path6080"
       inkscape:connector-curvature="0"
       sodipodi:nodetypes="cc" />
    <path
       style="fill:none;stroke:#000000;stroke-width:1;stroke-linecap:butt;stroke-linejoin:miter;stroke-miterlimit:4;stroke-opacity:1;stroke-dasharray:none;stroke-dashoffset:0"
       d="m 93.048145,714.26403 c 8.597215,20.19796 37.706055,26.25904 37.790415,26.27939"
       id="path3890-9-2-1"
       inkscape:connector-curvature="0"
       sodipodi:nodetypes="cc" />
    <path
       style="fill:none;stroke:#000000;stroke-width:1px;stroke-linecap:butt;stroke-linejoin:miter;stroke-opacity:1;marker-start:url(#Arrow1Mstart)"
       d="m 112.77911,735.45836 c 2.19699,21.6319 2.19699,21.6319 2.19699,21.6319 l 0,0"
       id="path6126"
       inkscape:connector-curvature="0" />
    <path
       style="fill:none;stroke:#000000;stroke-width:1px;stroke-linecap:butt;stroke-linejoin:miter;stroke-opacity:1;marker-start:url(#Arrow1Mstart)"
       d="m 134.59139,748.49001 c -20.04435,8.42556 -20.04435,8.42556 -20.04435,8.42556 l 0,0"
       id="path6126-8"
       inkscape:connector-curvature="0" />
    <text
       xml:space="preserve"
       style="font-size:8px;font-style:normal;font-weight:normal;text-align:center;line-height:125%;letter-spacing:0px;word-spacing:0px;text-anchor:middle;fill:#000000;fill-opacity:1;stroke:none;font-family:Sans"
       x="114.4691"
       y="772.63818"
       id="text6924"
       sodipodi:linespacing="125%"><tspan
         sodipodi:role="line"
         id="tspan6926"
         x="114.4691"
         y="772.63818">Frontera s$-$Pareto</tspan></text>
    <text
       xml:space="preserve"
       style="font-size:8px;font-style:normal;font-weight:normal;text-align:center;line-height:125%;letter-spacing:0px;word-spacing:0px;text-anchor:middle;fill:#000000;fill-opacity:1;stroke:none;font-family:Sans"
       x="146.74796"
       y="606.17401"
       id="text6928"
       sodipodi:linespacing="125%"><tspan
         sodipodi:role="line"
         id="tspan6930"
         x="146.74796"
         y="606.17401">(a)</tspan></text>
    <text
       xml:space="preserve"
       style="font-size:8px;font-style:normal;font-weight:normal;text-align:center;line-height:125%;letter-spacing:0px;word-spacing:0px;text-anchor:middle;fill:#000000;fill-opacity:1;stroke:none;font-family:Sans"
       x="146.49196"
       y="816.94495"
       id="text6932"
       sodipodi:linespacing="125%"><tspan
         sodipodi:role="line"
         id="tspan6934"
         x="146.49196"
         y="816.94495">(b)</tspan></text>
    <text
       xml:space="preserve"
       style="font-size:8px;font-style:normal;font-weight:normal;text-align:center;line-height:125%;letter-spacing:0px;word-spacing:0px;text-anchor:middle;fill:#000000;fill-opacity:1;stroke:none;font-family:Sans"
       x="112.33046"
       y="75.913414"
       id="text6936"
       sodipodi:linespacing="125%"
       transform="translate(5.4646072,421.57922)"><tspan
         sodipodi:role="line"
         id="tspan6938"
         x="112.33046"
         y="75.913414">A</tspan></text>
    <text
       xml:space="preserve"
       style="font-size:8px;font-style:normal;font-weight:normal;text-align:center;line-height:125%;letter-spacing:0px;word-spacing:0px;text-anchor:middle;fill:#000000;fill-opacity:1;stroke:none;font-family:Sans"
       x="161.80367"
       y="113.91457"
       id="text6940"
       sodipodi:linespacing="125%"
       transform="translate(5.4646072,421.57922)"><tspan
         sodipodi:role="line"
         id="tspan6942"
         x="161.80367"
         y="113.91457">B</tspan></text>
    <text
       xml:space="preserve"
       style="font-size:8px;font-style:normal;font-weight:normal;text-align:center;line-height:125%;letter-spacing:0px;word-spacing:0px;text-anchor:middle;fill:#000000;fill-opacity:1;stroke:none;font-family:Sans"
       x="185.70377"
       y="66.114372"
       id="text6944"
       sodipodi:linespacing="125%"
       transform="translate(5.4646072,421.57922)"><tspan
         sodipodi:role="line"
         id="tspan6946"
         x="185.70377"
         y="66.114372">C</tspan></text>
    <text
       xml:space="preserve"
       style="font-size:8px;font-style:normal;font-weight:normal;text-align:center;line-height:125%;letter-spacing:0px;word-spacing:0px;text-anchor:middle;fill:#000000;fill-opacity:1;stroke:none;font-family:Sans"
       x="108.02844"
       y="290.7753"
       id="text6948"
       sodipodi:linespacing="125%"
       transform="translate(5.4646072,421.57922)"><tspan
         sodipodi:role="line"
         id="tspan6950"
         x="108.02844"
         y="290.7753">A</tspan></text>
    <text
       xml:space="preserve"
       style="font-size:8px;font-style:normal;font-weight:normal;text-align:center;line-height:125%;letter-spacing:0px;word-spacing:0px;text-anchor:middle;fill:#000000;fill-opacity:1;stroke:none;font-family:Sans"
       x="165.83426"
       y="750.1167"
       id="text6952"
       sodipodi:linespacing="125%"><tspan
         sodipodi:role="line"
         id="tspan6954"
         x="165.83426"
         y="750.1167">B</tspan></text>
    <text
       xml:space="preserve"
       style="font-size:8px;font-style:normal;font-weight:normal;text-align:center;line-height:125%;letter-spacing:0px;word-spacing:0px;text-anchor:middle;fill:#000000;fill-opacity:1;stroke:none;font-family:Sans"
       x="192.39578"
       y="281.21524"
       id="text6956"
       sodipodi:linespacing="125%"
       transform="translate(5.4646072,421.57922)"><tspan
         sodipodi:role="line"
         id="tspan6958"
         x="192.39578"
         y="281.21524">C</tspan></text>
  </g>
</svg>
